boon-master.sfdir

StartChar: exclam
Encoding: 33 33 163
Width: 320
VWidth: 0
Flags: W
HStem: 0 120<111.108 208.892> 880 20G<125 195>
VStem: 100 120<11.1079 108.892> 125 70<292.8 900>
LayerCount: 5
Fore
SplineSet
125 900 m 5xd0
 195 900 l 5
 195 360 l 5
 180 240 l 5
 140 240 l 5
 125 360 l 5
 125 900 l 5xd0
EndSplineSet
Refer: 103 46 N 1 0 0 1 0 0 2
Layer: 2
SplineSet
260 100 m 0xe0
 260 43 217 0 160 0 c 0
 103 0 60 43 60 100 c 0
 60 157 103 200 160 200 c 0
 217 200 260 157 260 100 c 0xe0
80 900 m 1xd0
 240 900 l 5
 240 360 l 1
 200 260 l 1
 120 260 l 1
 80 360 l 1
 80 900 l 1xd0
EndSplineSet
Layer: 3
SplineSet
110 900 m 1xd0
 210 900 l 1
 210 360 l 1xd0
 190 240 l 5
 130 240 l 5xc8
 110 360 l 1
 110 900 l 1xd0
EndSplineSet
Refer: 103 46 N 1 0 0 1 0 0 2
Layer: 4
SplineSet
125 900 m 5xd0
 195 900 l 5
 195 360 l 5
 180 240 l 5
 140 240 l 5
 125 360 l 5
 125 900 l 5xd0
EndSplineSet
Refer: 103 46 N 1 0 0 1 0 0 2
EndChar

StartChar: numbersign
Encoding: 35 35 151
Width: 870
VWidth: 0
Flags: W
HStem: 0 21G<185 268.739 455 538.739> 230 70<60 228 321 498 591 810> 500 70<80 279 372 549 642 810> 780 20G<331.261 415 601.261 685>
LayerCount: 3
Fore
SplineSet
591 300 m 1
 810 300 l 1
 810 230 l 1
 578 230 l 1
 535 0 l 1
 455 0 l 1
 498 230 l 1
 308 230 l 1
 265 0 l 1
 185 0 l 1
 228 230 l 1
 60 230 l 1
 60 300 l 1
 241 300 l 1
 279 500 l 1
 80 500 l 1
 80 570 l 1
 292 570 l 1
 335 800 l 1
 415 800 l 1
 372 570 l 1
 562 570 l 1
 605 800 l 1
 685 800 l 1
 642 570 l 1
 810 570 l 1
 810 500 l 1
 629 500 l 1
 591 300 l 1
511 300 m 1
 549 500 l 1
 359 500 l 1
 321 300 l 1
 511 300 l 1
EndSplineSet
Validated: 1
Layer: 2
SplineSet
398 960 m 1
 553 960 l 1
 440 620 l 1
 560 620 l 1
 673 960 l 1
 828 960 l 1
 715 620 l 1
 870 620 l 1
 870 510 l 1
 686 510 l 1
 637 380 l 1
 870 380 l 1
 870 270 l 1
 608 270 l 1
 472 -140 l 1
 317 -140 l 1
 453 270 l 1
 333 270 l 1
 197 -140 l 1
 42 -140 l 1
 178 270 l 1
 40 270 l 1
 40 380 l 1
 207 380 l 1
 256 510 l 1
 40 510 l 1
 40 620 l 1
 285 620 l 1
 398 960 l 1
411 510 m 1
 362 380 l 1
 482 380 l 1
 531 510 l 1
 411 510 l 1
EndSplineSet
EndChar

StartChar: dollar
Encoding: 36 36 165
Width: 790
VWidth: 0
Flags: W
HStem: -20 60<266.27 521.763> 760 60<274.379 505.621>
VStem: 90 70<146.1 250> 110 70<520.382 675.753> 370 50<-150 950> 600 70<590 674.758> 630 70<136.318 304.408>
LayerCount: 5
Fore
SplineSet
370 950 m 1xc8
 420 950 l 5
 420 -150 l 5
 370 -150 l 1
 370 950 l 1xc8
EndSplineSet
Refer: 132 83 N 1 0 0 1 0 0 2
Layer: 2
SplineSet
335 40 m 5x83
 455 40 l 5
 455 -150 l 5
 335 -150 l 5
 335 40 l 5x83
335 950 m 5x13
 455 950 l 5
 455 760 l 5
 335 760 l 5
 335 950 l 5x13
EndSplineSet
Refer: 132 83 N 1 0 0 1 0 0 2
Layer: 3
SplineSet
360 950 m 5xc8
 430 950 l 5
 430 -150 l 5
 360 -150 l 5
 360 950 l 5xc8
EndSplineSet
Refer: 132 83 N 1 0 0 1 0 0 2
Layer: 4
SplineSet
370 950 m 1xc8
 420 950 l 5
 420 -150 l 5
 370 -150 l 1
 370 950 l 1xc8
EndSplineSet
Refer: 132 83 N 1 0 0 1 0 0 2
EndChar

StartChar: percent
Encoding: 37 37 166
Width: 800
VWidth: 0
Flags: W
HStem: 0 70<507.062 632.938> 250 70<507.062 632.938> 480 70<167.062 292.938> 730 70<167.062 292.938>
VStem: 70 70<577.062 702.938> 320 70<577.062 702.938> 410 70<97.0625 222.938> 660 70<97.0625 222.938>
LayerCount: 3
Fore
SplineSet
640 800 m 1
 740 800 l 1
 160 0 l 1
 60 0 l 1
 640 800 l 1
230 800 m 0
 318 800 390 728 390 640 c 0
 390 552 318 480 230 480 c 0
 142 480 70 552 70 640 c 0
 70 728 142 800 230 800 c 0
230 730 m 0
 180 730 140 690 140 640 c 0
 140 590 180 550 230 550 c 0
 280 550 320 590 320 640 c 0
 320 690 280 730 230 730 c 0
570 320 m 4
 658 320 730 248 730 160 c 4
 730 72 658 0 570 0 c 4
 482 0 410 72 410 160 c 4
 410 248 482 320 570 320 c 4
570 250 m 4
 520 250 480 210 480 160 c 4
 480 110 520 70 570 70 c 4
 620 70 660 110 660 160 c 4
 660 210 620 250 570 250 c 4
EndSplineSet
Validated: 1
Layer: 2
SplineSet
240 860 m 0
 350 860 440 770 440 660 c 0
 440 550 350 460 240 460 c 0
 130 460 40 550 40 660 c 0
 40 770 130 860 240 860 c 0
650 860 m 1
 800 860 l 1
 310 0 l 1
 160 0 l 1
 650 860 l 1
240 755 m 0
 188 755 145 712 145 660 c 0
 145 608 188 565 240 565 c 0
 292 565 335 608 335 660 c 0
 335 712 292 755 240 755 c 0
720 400 m 0
 830 400 920 310 920 200 c 0
 920 90 830 0 720 0 c 0
 610 0 520 90 520 200 c 0
 520 310 610 400 720 400 c 0
720 295 m 0
 668 295 625 252 625 200 c 0
 625 148 668 105 720 105 c 0
 772 105 815 148 815 200 c 0
 815 252 772 295 720 295 c 0
EndSplineSet
EndChar

StartChar: ampersand
Encoding: 38 38 248
Width: 800
VWidth: 0
Flags: HW
HStem: -20 90<251.476 458.344> 0 21G<624.304 760> 730 90<309.948 443.144>
VStem: 80 100<134.938 286.335> 180 100<552.048 700.723> 470 100<554.338 701.544> 590 100<242.926 380>
LayerCount: 6
Fore
SplineSet
380 820 m 0xbe
 492 820 560 735 560 630 c 0
 560 530 485 473 394 427 c 1
 581 203 l 1
 600 252 610 311 610 380 c 1
 680 380 l 1
 680 294 661 214 626 148 c 1
 750 0 l 1
 670 0 l 1x7e
 591 95 l 1
 534 24 453 -20 350 -20 c 0
 195 -20 90 78 90 210 c 0
 90 327 187 392 296 444 c 1
 262 475 190 541 190 630 c 0
 190 735 268 820 380 820 c 0xbe
380 760 m 0
 298 760 260 698 260 630 c 0
 260 556 321 500 353 471 c 1
 424 504 490 545 490 630 c 0
 490 698 448 760 380 760 c 0
336 399 m 1
 237 351 160 302 160 210 c 0
 160 107 231 40 350 40 c 0xbe
 436 40 505 76 550 143 c 1
 336 399 l 1
EndSplineSet
Layer: 2
SplineSet
380 820 m 0xa8
 523 820 600 735 600 630 c 0xac
 600 532 532 470 452 424 c 1
 580 264 l 1
 593 297 600 336 600 380 c 1
 750 380 l 1
 750 294 720 215 671 150 c 1
 790 0 l 1
 620 0 l 1x62
 575 56 l 1
 508 8 429 -20 350 -20 c 0
 170 -20 50 72 50 210 c 0xb2
 50 332 145 403 251 457 c 1
 212 491 150 551 150 630 c 0
 150 735 237 820 380 820 c 0xa8
380 700 m 0
 333 700 300 677 300 630 c 0
 300 585 335 544 367 514 c 1
 416 542 450 577 450 630 c 0
 450 669 423 700 380 700 c 0
333 363 m 1
 239 311 210 265 210 210 c 0xb0
 210 149 264 100 350 100 c 0
 401 100 455 118 499 153 c 1
 333 363 l 1
EndSplineSet
Layer: 3
SplineSet
380 820 m 0xae
 492 820 570 735 570 630 c 0
 570 532 505 470 426 424 c 1
 570 241 l 1
 583 282 590 329 590 380 c 1
 690 380 l 1
 690 298 670 222 636 158 c 1
 760 0 l 1
 640 0 l 1x6e
 578 79 l 1
 519 17 440 -20 350 -20 c 0
 188 -20 80 78 80 210 c 0xb6
 80 331 174 399 278 451 c 1
 243 484 180 547 180 630 c 0
 180 735 268 820 380 820 c 0xae
380 730 m 0
 316 730 280 688 280 630 c 0
 280 563 331 518 365 492 c 1
 427 524 470 566 470 630 c 0
 470 688 435 730 380 730 c 0
339 380 m 1
 241 332 180 289 180 210 c 0
 180 135 247 70 350 70 c 0xb6
 424 70 482 99 522 149 c 1
 339 380 l 1
EndSplineSet
Layer: 4
SplineSet
380 820 m 0xbe
 492 820 560 735 560 630 c 0
 560 530 485 473 394 427 c 1
 581 203 l 1
 600 252 610 311 610 380 c 1
 680 380 l 1
 680 294 661 214 626 148 c 1
 750 0 l 1
 670 0 l 1x7e
 591 95 l 1
 534 24 453 -20 350 -20 c 0
 195 -20 90 78 90 210 c 0
 90 327 187 392 296 444 c 1
 262 475 190 541 190 630 c 0
 190 735 268 820 380 820 c 0xbe
380 760 m 0
 298 760 260 698 260 630 c 0
 260 556 321 500 353 471 c 1
 424 504 490 545 490 630 c 0
 490 698 448 760 380 760 c 0
336 399 m 1
 237 351 160 302 160 210 c 0
 160 107 231 40 350 40 c 0xbe
 436 40 505 76 550 143 c 1
 336 399 l 1
EndSplineSet
Layer: 5
SplineSet
380 820 m 4xae
 503 820 580 735 580 630 c 0
 580 536 514 472 436 425 c 1
 572 252 l 1
 584 289 590 332 590 380 c 1
 710 380 l 1
 710 295 689 216 651 151 c 1
 770 0 l 1
 630 0 l 1x6e
 580 63 l 1
 520 11 442 -20 350 -20 c 0
 172 -20 70 80 70 210 c 0xb6
 70 332 163 402 265 454 c 1
 229 488 170 550 170 630 c 0
 170 735 255 820 380 820 c 4xae
380 720 m 0
 326 720 290 688 290 630 c 0
 290 570 331 528 363 501 c 1
 425 532 460 565 460 630 c 0
 460 688 426 720 380 720 c 0
335 373 m 1
 241 325 190 274 190 210 c 0
 190 135 253 80 350 80 c 0xb6
 416 80 472 104 513 148 c 1
 335 373 l 1
EndSplineSet
EndChar

StartChar: quotesingle
Encoding: 39 39 167
Width: 240
VWidth: 0
Flags: HW
HStem: 560 240<85 155>
VStem: 85 70<560 660.8>
LayerCount: 6
Fore
SplineSet
80 800 m 1
 160 800 l 1
 145 560 l 5
 95 560 l 1
 80 800 l 1
EndSplineSet
Layer: 2
SplineSet
50 800 m 1
 190 800 l 1
 170 560 l 5
 70 560 l 5
 50 800 l 1
EndSplineSet
Layer: 3
SplineSet
65 800 m 1
 175 800 l 1
 155 560 l 1
 85 560 l 1
 65 800 l 1
EndSplineSet
Layer: 4
SplineSet
80 800 m 1
 160 800 l 1
 145 560 l 5
 95 560 l 1
 80 800 l 1
EndSplineSet
Layer: 5
SplineSet
60 800 m 5
 180 800 l 5
 160 560 l 5
 80 560 l 5
 60 800 l 5
EndSplineSet
EndChar

StartChar: parenleft
Encoding: 40 40 168
Width: 400
VWidth: 0
Flags: W
VStem: 100 60<73.2715 646.729>
LayerCount: 5
Fore
SplineSet
100 360 m 1
 100 390 l 2
 100 706 150 848 350 920 c 1
 350 880 l 1
 198 804 160 667 160 390 c 6
 160 360 l 5
 160 330 l 6
 160 53 198 -84 350 -160 c 1
 350 -200 l 1
 150 -128 100 14 100 330 c 2
 100 360 l 1
EndSplineSet
Layer: 2
SplineSet
60 360 m 1
 60 390 l 2
 60 706 160 848 360 920 c 1
 360 855 l 1
 223 769 190 667 190 390 c 2
 190 360 l 1
 190 330 l 2
 190 53 223 -49 360 -135 c 1
 360 -200 l 1
 160 -128 60 14 60 330 c 2
 60 360 l 1
EndSplineSet
Layer: 3
SplineSet
90 360 m 1
 90 390 l 2
 90 706 160 848 360 920 c 1
 360 870 l 1
 208 794 180 667 180 390 c 2
 180 360 l 1
 180 330 l 2
 180 53 208 -74 360 -150 c 1
 360 -200 l 1
 160 -128 90 14 90 330 c 2
 90 360 l 1
EndSplineSet
Layer: 4
SplineSet
100 360 m 1
 100 390 l 2
 100 706 150 848 350 920 c 1
 350 880 l 1
 198 804 160 667 160 390 c 6
 160 360 l 5
 160 330 l 6
 160 53 198 -84 350 -160 c 1
 350 -200 l 1
 150 -128 100 14 100 330 c 2
 100 360 l 1
EndSplineSet
EndChar

StartChar: parenright
Encoding: 41 41 169
Width: 400
VWidth: 0
Flags: W
VStem: 220 90<71.4651 648.535>
LayerCount: 6
Fore
Refer: 168 40 N -1 0 0 1 400 0 2
Layer: 2
Refer: 168 40 N -1 0 0 1 400 0 2
Layer: 3
Refer: 168 40 N -1 0 0 1 400 0 2
Layer: 4
SplineSet
416.521 360 m 1
 422.897 390 l 2
 490.064 706 420.248 848 235.552 920 c 1
 221.736 855 l 1
 340.456 769 351.775 667 292.897 390 c 2
 286.521 360 l 1
 280.144 330 l 2
 221.266 53 166.585 -49 11.3047 -135 c 1
 -2.51172 -200 l 1
 212.793 -128 342.976 14 410.144 330 c 2
 416.521 360 l 1
EndSplineSet
Layer: 5
SplineSet
386.521 360 m 1
 392.897 390 l 2
 460.064 706 420.248 848 235.552 920 c 1
 224.924 870 l 1
 360.77 794 361.775 667 302.897 390 c 2
 296.521 360 l 1
 290.144 330 l 2
 231.266 53 176.271 -74 8.11621 -150 c 1
 -2.51172 -200 l 1
 212.793 -128 312.976 14 380.144 330 c 2
 386.521 360 l 1
EndSplineSet
EndChar

StartChar: asterisk
Encoding: 42 42 152
Width: 540
VWidth: 0
Flags: W
HStem: 550 350
VStem: 245 50<750 900>
LayerCount: 5
Fore
SplineSet
399 580 m 1
 358 550 l 1
 270 673 l 1
 182 550 l 1
 141 580 l 1
 230 702 l 1
 87 749 l 1
 102 796 l 1
 245 750 l 1
 245 900 l 1
 295 900 l 1
 295 750 l 1
 438 796 l 1
 453 749 l 1
 310 702 l 1
 399 580 l 1
EndSplineSet
Layer: 2
SplineSet
457 479 m 5
 376 420 l 5
 270 566 l 5
 164 420 l 5
 83 479 l 5
 189 625 l 5
 18 681 l 5
 49 776 l 5
 220 720 l 5
 220 900 l 5
 320 900 l 5
 320 720 l 5
 491 776 l 5
 522 681 l 5
 351 625 l 5
 457 479 l 5
EndSplineSet
Layer: 3
SplineSet
448 796 m 1
 469 730 l 1
 327 683 l 1
 415 562 l 1
 359 520 l 1
 270 642 l 1
 181 520 l 1
 125 562 l 1
 213 683 l 1
 71 730 l 1
 92 796 l 1
 235 750 l 1
 235 900 l 1
 305 900 l 1
 305 750 l 1
 448 796 l 1
EndSplineSet
Layer: 4
SplineSet
399 580 m 1
 358 550 l 1
 270 673 l 1
 182 550 l 1
 141 580 l 1
 230 702 l 1
 87 749 l 1
 102 796 l 1
 245 750 l 1
 245 900 l 1
 295 900 l 1
 295 750 l 1
 438 796 l 1
 453 749 l 1
 310 702 l 1
 399 580 l 1
EndSplineSet
EndChar

StartChar: plus
Encoding: 43 43 170
Width: 560
VWidth: 0
Flags: W
HStem: 285 70<80 245 315 480>
VStem: 245 70<120 285 355 520>
LayerCount: 3
Fore
SplineSet
315 285 m 1
 315 120 l 5
 245 120 l 5
 245 285 l 1
 80 285 l 1
 80 355 l 1
 245 355 l 1
 245 520 l 1
 315 520 l 1
 315 355 l 1
 480 355 l 1
 480 285 l 1
 315 285 l 1
EndSplineSet
Validated: 1
Layer: 2
SplineSet
230 575 m 1
 390 575 l 1
 390 380 l 1
 580 380 l 1
 580 270 l 1
 390 270 l 1
 390 75 l 1
 230 75 l 1
 230 270 l 1
 40 270 l 1
 40 380 l 1
 230 380 l 1
 230 575 l 1
EndSplineSet
EndChar

StartChar: comma
Encoding: 44 44 171
Width: 320
VWidth: 0
Flags: W
HStem: -150 290
VStem: 160 80<-53.2049 0>
LayerCount: 6
Fore
SplineSet
160 140 m 4
 211 140 240 101 240 50 c 4
 240 -28 194 -107 135 -150 c 5
 80 -150 l 5
 130 -107 160 -55 160 0 c 5
 121 0 90 31 90 70 c 4
 90 109 121 140 160 140 c 4
EndSplineSet
Layer: 2
SplineSet
160 200 m 0
 223 200 265 151 265 90 c 0
 265 -21 194 -107 135 -150 c 1
 55 -150 l 1
 105 -94 134 -44 135 3 c 5
 91 14 60 52 60 100 c 0
 60 156 104 200 160 200 c 0
EndSplineSet
Layer: 3
SplineSet
160 140 m 4
 211 140 240 101 240 50 c 4
 240 -28 194 -107 135 -150 c 5
 80 -150 l 5
 130 -107 160 -55 160 0 c 5
 121 0 90 31 90 70 c 4
 90 109 121 140 160 140 c 4
EndSplineSet
Layer: 4
SplineSet
202.512 200 m 0
 265.512 200 297.096 151 284.13 90 c 0
 260.536 -21 171.257 -107 103.116 -150 c 1
 23.1162 -150 l 1
 85.0195 -94 124.647 -44 135.638 3 c 1
 93.9756 14 71.0527 52 81.2559 100 c 0
 93.1592 156 146.512 200 202.512 200 c 0
EndSplineSet
Layer: 5
SplineSet
189.758 140 m 0
 240.758 140 261.468 101 250.628 50 c 0
 234.049 -28 171.257 -107 103.116 -150 c 1
 48.1162 -150 l 1
 107.257 -107 148.31 -55 160 0 c 1
 121 0 96.5889 31 104.879 70 c 0
 113.169 109 150.758 140 189.758 140 c 0
EndSplineSet
EndChar

StartChar: hyphen
Encoding: 45 45 157
Width: 560
VWidth: 0
Flags: W
HStem: 285 70<80 480>
LayerCount: 3
Fore
SplineSet
80 355 m 1
 480 355 l 1
 480 285 l 1
 80 285 l 1
 80 355 l 1
EndSplineSet
Validated: 1
Layer: 2
SplineSet
40 380 m 1
 580 380 l 1
 580 270 l 1
 40 270 l 1
 40 380 l 1
EndSplineSet
EndChar

StartChar: period
Encoding: 46 46 103
Width: 310
VWidth: 0
Flags: W
HStem: 0 150<97.6641 211.813>
VStem: 80 150<18.094 131.906>
LayerCount: 3
Fore
SplineSet
230 75 m 4
 230 33 197 0 154 0 c 4
 112 0 80 33 80 75 c 4
 80 117 112 150 154 150 c 4
 197 150 230 117 230 75 c 4
EndSplineSet
Validated: 1
Layer: 2
SplineSet
240 100 m 0
 240 44 196 0 140 0 c 0
 84 0 40 44 40 100 c 0
 40 156 84 200 140 200 c 0
 196 200 240 156 240 100 c 0
EndSplineSet
EndChar

StartChar: slash
Encoding: 47 47 159
Width: 480
VWidth: 0
Flags: W
HStem: 880 20G<344.815 410>
VStem: 70 340
LayerCount: 5
Fore
SplineSet
350 900 m 1
 410 900 l 1
 130 -180 l 5
 70 -180 l 1
 350 900 l 1
EndSplineSet
Layer: 2
SplineSet
320 900 m 5
 440 900 l 5
 160 -180 l 5
 40 -180 l 5
 320 900 l 5
EndSplineSet
Layer: 3
SplineSet
340 900 m 5
 420 900 l 1
 140 -180 l 1
 60 -180 l 5
 340 900 l 5
EndSplineSet
Layer: 4
SplineSet
350 900 m 1
 410 900 l 1
 130 -180 l 5
 70 -180 l 1
 350 900 l 1
EndSplineSet
EndChar

StartChar: zero
Encoding: 48 48 172
Width: 640
Flags: W
HStem: -20 90<232.856 407.144> 730 90<232.856 407.144>
VStem: 70 100<139.963 660.036> 470 100<139.963 660.036>
LayerCount: 3
Fore
SplineSet
70 240 m 2
 70 560 l 2
 70 715 165 820 320 820 c 0
 475 820 570 715 570 560 c 2
 570 240 l 2
 570 85 475 -20 320 -20 c 0
 165 -20 70 85 70 240 c 2
170 240 m 2
 170 141 222 70 320 70 c 0
 418 70 470 141 470 240 c 2
 470 560 l 2
 470 659 418 730 320 730 c 0
 222 730 170 659 170 560 c 2
 170 240 l 2
EndSplineSet
Validated: 1
Layer: 2
SplineSet
310 878 m 0
 467 878 590 753 590 598 c 2
 590 262 l 2
 590 107 467 -18 310 -18 c 0
 153 -18 30 107 30 262 c 2
 30 598 l 2
 30 753 153 878 310 878 c 0
310 758 m 0
 213 758 200 677 200 578 c 2
 200 282 l 2
 200 183 213 102 310 102 c 0
 407 102 420 183 420 282 c 2
 420 578 l 2
 420 677 407 758 310 758 c 0
EndSplineSet
EndChar

StartChar: one
Encoding: 49 49 173
Width: 660
Flags: W
HStem: 0 21G<370 470> 525 95<110 227.155> 780 20G<370 470>
VStem: 370 100<0 630 732.219 800>
LayerCount: 6
Fore
SplineSet
370 630 m 1
 329 567 209 525 110 525 c 1
 110 620 l 1
 226 620 370 706 370 800 c 1
 470 800 l 1
 470 0 l 1
 370 0 l 1
 370 630 l 1
EndSplineSet
Layer: 2
SplineSet
340 600 m 1
 299 537 179 495 80 495 c 1
 80 620 l 1
 196 620 340 706 340 800 c 1
 500 800 l 1
 500 0 l 1
 340 0 l 1
 340 600 l 1
EndSplineSet
Layer: 3
SplineSet
370 630 m 1
 329 567 209 525 110 525 c 1
 110 620 l 1
 226 620 370 706 370 800 c 1
 470 800 l 1
 470 0 l 1
 370 0 l 1
 370 630 l 1
EndSplineSet
Layer: 4
SplineSet
467.534 600 m 1
 413.143 537 284.216 495 185.216 495 c 1
 211.785 620 l 1
 327.785 620 490.064 706 510.045 800 c 1
 670.045 800 l 1
 500 0 l 1
 340 0 l 1
 467.534 600 l 1
EndSplineSet
Layer: 5
SplineSet
503.91 630 m 1
 449.52 567 320.592 525 221.592 525 c 1
 241.785 620 l 1
 357.785 620 520.064 706 540.045 800 c 1
 640.045 800 l 1
 470 0 l 1
 370 0 l 1
 503.91 630 l 1
EndSplineSet
EndChar

StartChar: two
Encoding: 50 50 174
Width: 660
Flags: W
HStem: 0 90<190 580> 730 90<243.566 416.434>
VStem: 80 110<90 176.795> 90 100<595 677.393> 470 100<517.911 677.964>
LayerCount: 6
Fore
SplineSet
470 595 m 4xe8
 470 670 420 730 330 730 c 4
 240 730 190 670 190 595 c 5
 90 595 l 5xd8
 90 719 188 820 330 820 c 4
 472 820 570 719 570 595 c 4
 570 483 483 405 390 340 c 4
 294 273 190 195 190 90 c 5
 580 90 l 5
 580 0 l 5
 80 0 l 5
 80 90 l 6
 80 207 176 297 270 370 c 4
 351 433 470 495 470 595 c 4xe8
EndSplineSet
Layer: 2
SplineSet
440 580 m 4
 440 655 400 700 330 700 c 4
 260 700 220 655 220 580 c 5
 60 580 l 5
 60 704 168 820 330 820 c 4
 492 820 600 704 600 580 c 4
 600 468 523 395 430 330 c 4
 334 263 210 170 210 120 c 5
 610 120 l 5
 610 0 l 5
 50 0 l 5
 50 120 l 6
 50 237 206 327 300 400 c 4
 381 463 440 498 440 580 c 4
EndSplineSet
Layer: 3
SplineSet
470 595 m 4xe8
 470 670 420 730 330 730 c 4
 240 730 190 670 190 595 c 5
 90 595 l 5xd8
 90 719 188 820 330 820 c 4
 472 820 570 719 570 595 c 4
 570 483 483 405 390 340 c 4
 294 273 190 195 190 90 c 5
 580 90 l 5
 580 0 l 5
 80 0 l 5
 80 90 l 6
 80 207 176 297 270 370 c 4
 351 433 470 495 470 595 c 4xe8
EndSplineSet
Layer: 4
SplineSet
563.283 580 m 0
 579.225 655 548.79 700 478.79 700 c 0
 408.79 700 359.225 655 343.283 580 c 1
 183.283 580 l 1
 209.64 704 342.297 820 504.297 820 c 0
 666.297 820 749.64 704 723.283 580 c 0
 699.477 468 606.96 395 500.144 330 c 0
 389.902 263 246.135 170 235.507 120 c 1
 635.507 120 l 1
 610 0 l 1
 50 0 l 1
 75.5068 120 l 2
 100.376 237 275.506 327 385.022 400 c 0
 479.414 463 545.854 498 563.283 580 c 0
EndSplineSet
Layer: 5
SplineSet
596.471 595 m 0
 612.413 670 575.166 730 485.166 730 c 0
 395.166 730 332.413 670 316.471 595 c 1
 216.471 595 l 1
 242.828 719 362.297 820 504.297 820 c 0
 646.297 820 722.828 719 696.471 595 c 0
 672.665 483 569.085 405 462.27 340 c 0
 352.028 273 231.448 195 209.13 90 c 1
 599.13 90 l 1
 580 0 l 1
 80 0 l 1
 99.1299 90 l 2
 123.999 207 239.129 297 348.646 370 c 0
 443.037 433 575.216 495 596.471 595 c 0
EndSplineSet
EndChar

StartChar: three
Encoding: 51 51 175
Width: 660
Flags: W
HStem: -20 90<224.873 415.127> 375 80<240 403.848> 730 90<233.566 406.434>
VStem: 60 100<135.296 220> 80 100<595 677.393> 460 100<510.52 677.964> 480 100<134.197 307.748>
LayerCount: 6
Fore
SplineSet
60 220 m 1xf2
 160 220 l 1
 160 137 217 70 320 70 c 0
 423 70 480 137 480 220 c 0xf2
 480 303 423 375 320 375 c 2
 240 375 l 1
 240 455 l 1
 320 455 l 2
 410 455 460 520 460 595 c 0
 460 670 410 730 320 730 c 0
 230 730 180 670 180 595 c 1
 80 595 l 1
 80 719 178 820 320 820 c 0
 462 820 560 719 560 595 c 0xec
 560 522 526 458 468 418 c 1
 538 378 580 307 580 220 c 0
 580 82 476 -20 320 -20 c 0
 164 -20 60 82 60 220 c 1xf2
EndSplineSet
Layer: 2
SplineSet
30 225 m 1xf2
 190 225 l 1
 190 142 245 100 320 100 c 0
 395 100 450 142 450 225 c 0xf2
 450 308 394 350 320 350 c 2
 210 350 l 1
 210 470 l 1
 320 470 l 2
 381 470 430 505 430 580 c 0
 430 655 390 700 320 700 c 0
 250 700 210 655 210 580 c 1
 50 580 l 1
 50 704 158 820 320 820 c 0
 482 820 590 704 590 580 c 0xec
 590 515 561 455 510 413 c 1
 572 368 610 301 610 225 c 0
 610 87 510 -20 320 -20 c 0
 130 -20 30 87 30 225 c 1xf2
EndSplineSet
Layer: 3
SplineSet
60 220 m 1xf2
 160 220 l 1
 160 137 217 70 320 70 c 0
 423 70 480 137 480 220 c 0xf2
 480 303 423 375 320 375 c 2
 240 375 l 1
 240 455 l 1
 320 455 l 2
 410 455 460 520 460 595 c 0
 460 670 410 730 320 730 c 0
 230 730 180 670 180 595 c 1
 80 595 l 1
 80 719 178 820 320 820 c 0
 462 820 560 719 560 595 c 0xec
 560 522 526 458 468 418 c 1
 538 378 580 307 580 220 c 0
 580 82 476 -20 320 -20 c 0
 164 -20 60 82 60 220 c 1xf2
EndSplineSet
Layer: 4
SplineSet
77.8252 225 m 1
 237.825 225 l 1
 220.183 142 266.256 100 341.256 100 c 0
 416.256 100 480.183 142 497.825 225 c 0
 515.468 308 468.395 350 394.395 350 c 2
 284.395 350 l 1
 309.901 470 l 1
 419.901 470 l 2
 480.901 470 537.341 505 553.283 580 c 0
 569.225 655 538.79 700 468.79 700 c 0
 398.79 700 349.225 655 333.283 580 c 1
 173.283 580 l 1
 199.64 704 332.297 820 494.297 820 c 0
 656.297 820 739.64 704 713.283 580 c 0
 699.467 515 657.713 455 597.786 413 c 1
 650.221 368 673.979 301 657.825 225 c 0
 628.492 87 505.749 -20 315.749 -20 c 0
 125.749 -20 48.4922 87 77.8252 225 c 1
EndSplineSet
Layer: 5
SplineSet
106.763 220 m 1
 206.763 220 l 1
 189.12 137 231.879 70 334.879 70 c 0
 437.879 70 509.12 137 526.763 220 c 0
 544.404 303 502.709 375 399.709 375 c 2
 319.709 375 l 1
 336.713 455 l 1
 416.713 455 l 2
 506.713 455 570.529 520 586.471 595 c 0
 602.413 670 565.166 730 475.166 730 c 0
 385.166 730 322.413 670 306.471 595 c 1
 206.471 595 l 1
 232.828 719 352.297 820 494.297 820 c 0
 636.297 820 712.828 719 686.471 595 c 0
 670.954 522 623.351 458 556.849 418 c 1
 618.347 378 645.255 307 626.763 220 c 0
 597.43 82 471.749 -20 315.749 -20 c 0
 159.749 -20 77.4297 82 106.763 220 c 1
EndSplineSet
EndChar

StartChar: four
Encoding: 52 52 176
Width: 660
Flags: W
HStem: 0 21G<430 500> 165 60<150 430 500 580> 780 20G<417.826 500>
VStem: 430 70<0 165 225 680>
LayerCount: 5
Fore
SplineSet
150 225 m 1
 430 225 l 1
 430 680 l 1
 150 225 l 1
80 225 m 1
 430 800 l 1
 500 800 l 1
 500 225 l 1
 580 225 l 1
 580 165 l 1
 500 165 l 1
 500 0 l 1
 430 0 l 1
 430 165 l 1
 80 165 l 1
 80 225 l 1
EndSplineSet
Layer: 2
SplineSet
190 255 m 1
 380 255 l 1
 380 580 l 1
 190 255 l 1
40 255 m 1
 380 800 l 1
 540 800 l 1
 540 255 l 1
 620 255 l 1
 620 135 l 1
 540 135 l 1
 540 0 l 1
 380 0 l 1
 380 135 l 1
 40 135 l 1
 40 255 l 1
EndSplineSet
Layer: 3
SplineSet
170 240 m 1
 410 240 l 1
 410 630 l 1
 170 240 l 1
70 240 m 1
 410 800 l 1
 510 800 l 1
 510 240 l 1
 590 240 l 1
 590 150 l 1
 510 150 l 1
 510 0 l 1
 410 0 l 1
 410 150 l 1
 70 150 l 1
 70 240 l 1
EndSplineSet
Layer: 4
SplineSet
150 225 m 1
 430 225 l 1
 430 680 l 1
 150 225 l 1
80 225 m 1
 430 800 l 1
 500 800 l 1
 500 225 l 1
 580 225 l 1
 580 165 l 1
 500 165 l 1
 500 0 l 1
 430 0 l 1
 430 165 l 1
 80 165 l 1
 80 225 l 1
EndSplineSet
EndChar

StartChar: five
Encoding: 53 53 177
Width: 660
Flags: HW
HStem: -20 90<242.856 417.144> 410 90<236.494 417.144> 710 90<240 540>
VStem: 80 100<139.963 240> 480 100<138.027 341.973>
LayerCount: 6
Fore
SplineSet
330 -20 m 0
 182 -20 90 85 90 240 c 1
 160 240 l 1
 160 141 205 40 330 40 c 0
 455 40 500 141 500 240 c 0
 500 339 455 440 330 440 c 0
 241 440 197 387 180 350 c 1
 110 360 l 1
 160 800 l 1
 190 800 l 1
 228 800 l 1
 530 800 l 1
 530 740 l 1
 222 740 l 1
 189 437 l 1
 222 469 270 500 330 500 c 0
 478 500 570 395 570 240 c 0
 570 85 478 -20 330 -20 c 0
EndSplineSet
Layer: 2
SplineSet
330 -20 m 4
 164 -20 50 90 50 245 c 5
 210 245 l 5
 210 146 262 100 330 100 c 4
 398 100 450 146 450 245 c 4
 450 344 398 390 330 390 c 4
 276 390 234 369 205 330 c 5
 70 340 l 5
 130 800 l 5
 260 800 l 5
 570 800 l 5
 570 690 l 5
 247 690 l 5
 223 481 l 5
 254 498 290 510 330 510 c 4
 496 510 610 400 610 245 c 4
 610 90 496 -20 330 -20 c 4
EndSplineSet
Layer: 3
SplineSet
330 -20 m 0
 175 -20 80 85 80 240 c 1
 180 240 l 1
 180 141 232 70 330 70 c 0
 428 70 480 141 480 240 c 0
 480 339 428 410 330 410 c 0
 265 410 226 383 200 350 c 1
 100 360 l 1
 150 800 l 1
 250 800 l 1
 540 800 l 1
 540 710 l 1
 240 710 l 1
 212 460 l 1
 244 482 284 500 330 500 c 0
 485 500 580 395 580 240 c 0
 580 85 485 -20 330 -20 c 0
EndSplineSet
Layer: 4
SplineSet
330 -20 m 0
 182 -20 90 85 90 240 c 1
 160 240 l 1
 160 141 205 40 330 40 c 0
 455 40 500 141 500 240 c 0
 500 339 455 440 330 440 c 0
 241 440 197 387 180 350 c 1
 110 360 l 1
 160 800 l 1
 190 800 l 1
 228 800 l 1
 530 800 l 1
 530 740 l 1
 222 740 l 1
 189 437 l 1
 222 469 270 500 330 500 c 0
 478 500 570 395 570 240 c 0
 570 85 478 -20 330 -20 c 0
EndSplineSet
Layer: 5
SplineSet
330 -20 m 0
 181 -20 70 85 70 240 c 1
 190 240 l 1
 190 141 241 80 330 80 c 0
 419 80 470 141 470 240 c 0
 470 339 419 400 330 400 c 0
 276 400 234 382 200 340 c 1
 90 350 l 1
 140 800 l 1
 250 800 l 1
 550 800 l 1
 550 700 l 1
 239 700 l 1
 213 462 l 1
 245 483 285 500 330 500 c 0
 479 500 590 395 590 240 c 0
 590 85 479 -20 330 -20 c 0
EndSplineSet
EndChar

StartChar: seven
Encoding: 55 55 162
Width: 620
Flags: W
HStem: 0 21G<200 300> 710 90<80 450>
VStem: 200 100<0 367.544>
LayerCount: 3
Fore
SplineSet
200 0 m 5
 200 210 l 6
 200 510 450 710 450 710 c 5
 80 710 l 5
 80 800 l 5
 560 800 l 5
 560 710 l 5
 560 710 300 516 300 210 c 6
 300 0 l 5
 200 0 l 5
EndSplineSet
Validated: 1
Layer: 2
SplineSet
190 0 m 1
 190 180 l 2
 190 480 430 740 430 740 c 1
 40 740 l 1
 40 860 l 1
 600 860 l 1
 600 740 l 1
 600 740 370 486 370 180 c 2
 370 0 l 1
 190 0 l 1
EndSplineSet
EndChar

StartChar: eight
Encoding: 56 56 179
Width: 640
Flags: W
HStem: -20 90<224.873 415.127> 370 90<233.856 406.144> 730 90<233.566 406.434>
VStem: 60 100<134.197 306.358> 80 100<512.237 677.964> 460 100<512.237 677.964> 480 100<134.197 306.358>
LayerCount: 3
Fore
SplineSet
473 419 m 5xec
 540 377 580 305 580 220 c 4
 580 82 476 -20 320 -20 c 4
 164 -20 60 82 60 220 c 4xf2
 60 305 100 377 167 419 c 5
 112 460 80 524 80 595 c 4
 80 719 178 820 320 820 c 4
 462 820 560 719 560 595 c 4
 560 524 528 460 473 419 c 5xec
320 460 m 4
 410 460 460 520 460 595 c 4
 460 670 410 730 320 730 c 4
 230 730 180 670 180 595 c 4xec
 180 520 230 460 320 460 c 4
320 370 m 4
 217 370 160 303 160 220 c 4
 160 137 217 70 320 70 c 4
 423 70 480 137 480 220 c 4xf2
 480 303 423 370 320 370 c 4
EndSplineSet
Validated: 1
Layer: 2
SplineSet
310 878 m 0xe8
 458 878 590 774 590 630 c 0xec
 590 547 521 470 460 445 c 1
 521 420 610 363 610 232 c 0
 610 88 487 -18 310 -18 c 0
 133 -18 10 88 10 232 c 0xf2
 10 351 99 420 160 445 c 1
 99 470 30 547 30 630 c 0
 30 774 162 878 310 878 c 0xe8
310 768 m 0
 248 768 195 725 195 630 c 0
 195 545 235 493 310 493 c 0
 384 493 425 540 425 630 c 0
 425 720 372 768 310 768 c 0
310 387 m 0
 230 387 180 321 180 232 c 0
 180 141 230 97 310 97 c 0
 391 97 440 141 440 232 c 0xf2
 440 323 390 387 310 387 c 0
EndSplineSet
EndChar

StartChar: nine
Encoding: 57 57 180
Width: 640
Flags: W
HStem: -20 90<232.856 407.144> 300 90<232.856 407.357> 730 90<232.856 407.144>
VStem: 70 100<139.963 240 458.027 661.973> 470 100<139.963 343 456.09 660.036>
LayerCount: 3
Fore
SplineSet
320 -20 m 4
 165 -20 70 85 70 240 c 5
 170 240 l 5
 170 141 222 70 320 70 c 4
 418 70 470 141 470 240 c 6
 470 343 l 5
 430 315 380 300 320 300 c 4
 165 300 70 405 70 560 c 4
 70 715 165 820 320 820 c 4
 475 820 570 715 570 560 c 6
 570 240 l 6
 570 85 475 -20 320 -20 c 4
170 560 m 4
 170 461 222 390 320 390 c 4
 418 390 470 461 470 560 c 4
 470 659 418 730 320 730 c 4
 222 730 170 659 170 560 c 4
EndSplineSet
Validated: 1
Layer: 2
SplineSet
310 878 m 0
 467 878 590 753 590 598 c 2
 590 262 l 2
 590 107 467 -18 310 -18 c 0
 153 -18 30 107 30 262 c 1
 200 262 l 1
 200 163 233 102 310 102 c 0
 386 102 420 163 420 262 c 2
 420 385 l 1
 389 345 358 318 290 318 c 0
 133 318 30 443 30 598 c 0
 30 753 153 878 310 878 c 0
310 758 m 0
 231 758 200 697 200 598 c 0
 200 499 233 438 310 438 c 0
 388 438 420 499 420 598 c 0
 420 697 386 758 310 758 c 0
EndSplineSet
EndChar

StartChar: less
Encoding: 60 60 182
Width: 600
VWidth: 0
Flags: W
LayerCount: 6
Fore
SplineSet
100 295 m 5
 100 345 l 5
 500 550 l 5
 500 465 l 5
 210 320 l 5
 500 175 l 5
 500 90 l 5
 100 295 l 5
EndSplineSet
Layer: 2
SplineSet
60 270 m 5
 60 370 l 5
 540 640 l 5
 540 500 l 5
 210 320 l 5
 540 140 l 5
 540 0 l 5
 60 270 l 5
EndSplineSet
Layer: 3
SplineSet
100 295 m 5
 100 345 l 5
 500 550 l 5
 500 465 l 5
 210 320 l 5
 500 175 l 5
 500 90 l 5
 100 295 l 5
EndSplineSet
Layer: 4
SplineSet
117.391 270 m 1
 138.646 370 l 1
 676.036 640 l 1
 646.278 500 l 1
 278.019 320 l 1
 569.758 140 l 1
 540 0 l 1
 117.391 270 l 1
EndSplineSet
Layer: 5
SplineSet
162.704 295 m 1
 173.332 345 l 1
 616.906 550 l 1
 598.839 465 l 1
 278.019 320 l 1
 537.197 175 l 1
 519.13 90 l 1
 162.704 295 l 1
EndSplineSet
EndChar

StartChar: greater
Encoding: 62 62 184
Width: 600
VWidth: 0
Flags: W
LayerCount: 3
Fore
Refer: 182 60 N -1 0 0 1 600 0 2
Layer: 2
SplineSet
520 285 m 1
 20 40 l 1
 20 180 l 1
 330 325 l 1
 20 470 l 1
 20 610 l 1
 520 365 l 1
 520 285 l 1
EndSplineSet
EndChar

StartChar: question
Encoding: 63 63 185
Width: 640
VWidth: 0
Flags: HW
HStem: 0 140<255.875 364.125> 730 90<235.077 404.923>
VStem: 80 100<534.911 676.482> 240 140<15.8748 124.125> 255 100<240 362.484> 460 100<520.499 676.482>
LayerCount: 6
Fore
SplineSet
175 535 m 5xec
 110 510 l 1
 98 536 90 567 90 600 c 0
 90 733 192 820 320 820 c 0
 448 820 550 733 550 600 c 0
 550 489 475 446 395 390 c 0
 346 356 345 313 345 240 c 1
 275 240 l 1
 275 343 282 386 380 455 c 0
 441 498 480 527 480 600 c 0
 480 688 424 760 320 760 c 0
 216 760 160 688 160 600 c 0
 160 574 165 555 175 535 c 5xec
EndSplineSet
Refer: 103 46 N 1 0 0 1 150 0 2
Layer: 2
SplineSet
222 533 m 5xec
 70 486 l 5
 57 515 50 557 50 590 c 4
 50 723 164 820 320 820 c 4
 476 820 590 723 590 590 c 4
 590 479 514 419 445 370 c 4
 402.595 339.887 400 312 400 260 c 5
 240 260 l 5
 240 353 247.299 395.154 320 445 c 4
 371.934 480.607 430 530 430 590 c 4
 430 656 396 700 320 700 c 4
 244 700 210 656 210 590 c 4
 210 569 214 553 222 533 c 5xec
420 100 m 4xf4
 420 43 377 0 320 0 c 4
 263 0 220 43 220 100 c 4
 220 157 263 200 320 200 c 4
 377 200 420 157 420 100 c 4xf4
EndSplineSet
Layer: 3
SplineSet
190 540 m 1xec
 100 510 l 1
 88 536 80 567 80 600 c 0
 80 733 187 820 320 820 c 0
 453 820 560 733 560 600 c 0
 560 489 490 446 410 390 c 0
 361 356 355 313 355 240 c 1
 255 240 l 1
 255 343 257 391 360 460 c 0
 422 502 460 527 460 600 c 0
 460 678 399 730 320 730 c 0
 241 730 180 678 180 600 c 0
 180 579 183 556 190 540 c 1xec
380 70 m 0xf4
 380 31 349 0 310 0 c 0
 271 0 240 31 240 70 c 0
 240 109 271 140 310 140 c 0
 349 140 380 109 380 70 c 0xf4
EndSplineSet
Layer: 4
SplineSet
175 535 m 5xec
 110 510 l 1
 98 536 90 567 90 600 c 0
 90 733 192 820 320 820 c 0
 448 820 550 733 550 600 c 0
 550 489 475 446 395 390 c 0
 346 356 345 313 345 240 c 1
 275 240 l 1
 275 343 282 386 380 455 c 0
 441 498 480 527 480 600 c 0
 480 688 424 760 320 760 c 0
 216 760 160 688 160 600 c 0
 160 574 165 555 175 535 c 5xec
EndSplineSet
Refer: 103 46 N 1 0 0 1 150 0 2
Layer: 5
SplineSet
205 540 m 5xec
 95 500 l 5
 80 531 70 562 70 600 c 4
 70 733 177 820 320 820 c 4
 463 820 570 733 570 600 c 4
 570 489 495 441 415 385 c 4
 366 351 360 313 360 240 c 5
 250 240 l 5
 250 343 247 396 350 465 c 4
 412 507 450 527 450 600 c 4
 450 673 389 720 320 720 c 4
 251 720 190 673 190 600 c 4
 190 579 195 561 205 540 c 5xec
EndSplineSet
Refer: 103 46 N 1 0 0 1 160 0 2
EndChar

StartChar: at
Encoding: 64 64 186
Width: 1140
VWidth: 0
Flags: W
HStem: -180 45<447.085 725.102> 70 60<467.129 638.502 794.461 917.953> 530 60<465.627 645.243> 795 45<443.446 696.554>
VStem: 90 50<173.63 472.921> 340 70<188.835 469.777> 700 70<190.297 481.917 517 570> 1000 50<219.707 480.19>
LayerCount: 5
Fore
SplineSet
700 570 m 1
 770 570 l 1
 770 230 l 2
 770 154 813 130 850 130 c 1
 850 132 l 1
 895 132 1000 176 1000 330 c 0
 1000 554 838 795 570 795 c 0
 302 795 140 548 140 330 c 0
 140 58 345 -135 570 -135 c 0
 681 -135 769 -107 842 -58 c 1
 861 -101 l 1
 775 -159 671 -180 570 -180 c 0
 297 -180 90 32 90 330 c 0
 90 617 291 840 570 840 c 0
 849 840 1050 617 1050 330 c 0
 1050 133 937 70 850 70 c 0
 771 70 728 106 710 161 c 1
 679 111 626 70 545 70 c 0
 427 70 340 141 340 290 c 2
 340 370 l 2
 340 513 432 590 545 590 c 0
 615 590 667 558 700 517 c 1
 700 570 l 1
700 229 m 1
 700 230 l 1
 700 452 l 1
 674 490 625 530 560 530 c 0
 454 530 410 464 410 370 c 2
 410 290 l 2
 410 196 455 130 560 130 c 0
 630 130 677 184 700 229 c 1
EndSplineSet
Layer: 2
SplineSet
650 570 m 1xdf80
 810 570 l 1
 810 250 l 2
 810 185 843 160 880 160 c 0
 925 160 990 176 990 330 c 0
 990 579 819 750 570 750 c 0
 321 750 150 579 150 330 c 0
 150 81 310 -90 570 -90 c 0
 681 -90 754 -62 827 -13 c 1
 866 -96 l 1
 780 -154 671 -180 570 -180 c 0
 239 -180 50 43 50 330 c 0
 50 617 283 840 570 840 c 0
 857 840 1090 617 1090 330 c 0
 1090 133 983 70 880 70 c 0xbf80
 780 70 717 94 683 138 c 1
 642 99 589 70 525 70 c 0
 407 70 300 141 300 290 c 2
 300 370 l 2
 300 513 407 590 515 590 c 0
 567 590 613 569 650 540 c 1
 650 570 l 1xdf80
651 222 m 1
 650 231 650 240 650 250 c 2
 650 447 l 1
 626 463 594 474 560 474 c 0
 500 474 460 426 460 370 c 2
 460 290 l 2
 460 232 505 185 560 185 c 0xdf80
 597 185 628 201 651 222 c 1
EndSplineSet
Layer: 3
SplineSet
685 570 m 1
 785 570 l 1
 785 250 l 2
 785 174 823 150 860 150 c 0
 905 150 990 176 990 330 c 0
 990 579 819 775 570 775 c 0
 321 775 150 579 150 330 c 0
 150 81 321 -115 570 -115 c 1
 681 -110 749 -87 822 -38 c 1
 861 -96 l 1
 775 -154 671 -179 570 -180 c 1
 283 -180 80 43 80 330 c 0
 80 617 283 840 570 840 c 0
 857 840 1060 617 1060 330 c 0
 1060 133 947 70 860 70 c 0
 784 70 730 94 703 139 c 1
 667 100 614 70 545 70 c 0
 427 70 330 141 330 290 c 2
 330 370 l 2
 330 513 432 590 545 590 c 0
 605 590 652 566 685 533 c 1
 685 570 l 1
685 236 m 1
 685 446 l 1
 665 476 625 505 560 505 c 0
 492 505 430 464 430 370 c 2
 430 290 l 2
 430 196 492 155 560 155 c 0
 631 155 669 198 685 236 c 1
EndSplineSet
Layer: 4
SplineSet
700 570 m 1
 770 570 l 1
 770 230 l 2
 770 154 813 130 850 130 c 1
 850 132 l 1
 895 132 1000 176 1000 330 c 0
 1000 554 838 795 570 795 c 0
 302 795 140 548 140 330 c 0
 140 58 345 -135 570 -135 c 0
 681 -135 769 -107 842 -58 c 1
 861 -101 l 1
 775 -159 671 -180 570 -180 c 0
 297 -180 90 32 90 330 c 0
 90 617 291 840 570 840 c 0
 849 840 1050 617 1050 330 c 0
 1050 133 937 70 850 70 c 0
 771 70 728 106 710 161 c 1
 679 111 626 70 545 70 c 0
 427 70 340 141 340 290 c 2
 340 370 l 2
 340 513 432 590 545 590 c 0
 615 590 667 558 700 517 c 1
 700 570 l 1
700 229 m 1
 700 230 l 1
 700 452 l 1
 674 490 625 530 560 530 c 0
 454 530 410 464 410 370 c 2
 410 290 l 2
 410 196 455 130 560 130 c 0
 630 130 677 184 700 229 c 1
EndSplineSet
EndChar

StartChar: A
Encoding: 65 65 128
Width: 800
VWidth: 0
Flags: W
HStem: 0 21G<30 147.758 652.242 770> 165 90<239 561> 780 20G<342 458>
AnchorPoint: "hook_above" 761.346 850 basechar 0
AnchorPoint: "ring_above" 723.086 760 basechar 0
AnchorPoint: "diac_bottom" 378.744 -50 basechar 0
AnchorPoint: "diac_top" 761.346 850 basechar 0
AnchorPoint: "ogonek" 707.004 40 basechar 0
AnchorPoint: "cedilla" 707.004 40 basechar 0
LayerCount: 6
Fore
SplineSet
770 0 m 1
 660 0 l 1
 596 165 l 1
 204 165 l 1
 140 0 l 1
 30 0 l 1
 350 800 l 1
 450 800 l 1
 770 0 l 1
561 255 m 1
 400 671 l 1
 239 255 l 1
 561 255 l 1
EndSplineSet
Layer: 2
SplineSet
800 0 m 5
 625 0 l 5
 569 150 l 5
 231 150 l 5
 175 0 l 5
 0 0 l 5
 320 800 l 5
 325 800 l 5
 475 800 l 5
 480 800 l 5
 800 0 l 5
524 270 m 5
 400 600 l 5
 276 270 l 5
 524 270 l 5
EndSplineSet
Layer: 3
SplineSet
770 0 m 1
 660 0 l 1
 596 165 l 1
 204 165 l 1
 140 0 l 1
 30 0 l 1
 350 800 l 1
 450 800 l 1
 770 0 l 1
561 255 m 1
 400 671 l 1
 239 255 l 1
 561 255 l 1
EndSplineSet
Layer: 4
SplineSet
581.391 270 m 1
 527.534 600 l 1
 333.391 270 l 1
 581.391 270 l 1
800 0 m 1
 625 0 l 1
 600.884 150 l 1
 262.884 150 l 1
 175 0 l 1
 0 0 l 1
 490.045 800 l 1
 495.045 800 l 1
 645.045 800 l 1
 650.045 800 l 1
 800 0 l 1
EndSplineSet
Layer: 5
SplineSet
615.202 255 m 1
 542.625 671 l 1
 293.202 255 l 1
 615.202 255 l 1
770 0 m 1
 660 0 l 1
 631.072 165 l 1
 239.072 165 l 1
 140 0 l 1
 30 0 l 1
 520.045 800 l 1
 620.045 800 l 1
 770 0 l 1
EndSplineSet
EndChar

StartChar: B
Encoding: 66 66 102
Width: 770
VWidth: 0
Flags: W
HStem: 0 90<200 550.712> 370 90<200 517.334> 715 85<200 512.39>
VStem: 100 100<90 370 460 715> 560 100<501.547 670.682> 600 100<140.917 315.54>
AnchorPoint: "cedilla" 377.004 40 basechar 0
AnchorPoint: "ogonek" 377.004 40 basechar 0
AnchorPoint: "diac_bottom" 338.744 -50 basechar 0
AnchorPoint: "diac_top" 721.346 850 basechar 0
LayerCount: 6
Fore
SplineSet
460 90 m 6xf4
 562 90 600 154 600 230 c 4
 600 330 530 370 430 370 c 6
 200 370 l 5
 200 90 l 5
 460 90 l 6xf4
460 0 m 6
 100 0 l 5
 100 800 l 5
 400 800 l 6
 601 800 660 688 660 580 c 4xf8
 660 516 632 458 579 421 c 5
 653 387 700 323 700 230 c 4
 700 83 613 0 460 0 c 6
400 715 m 6
 200 715 l 5
 200 460 l 5
 430 460 l 6
 522 460 560 516 560 580 c 4
 560 669 523 715 400 715 c 6
EndSplineSet
Layer: 2
SplineSet
420 120 m 6xf4
 495 120 570 136 570 230 c 4
 570 319 510 355 410 355 c 6
 230 355 l 5
 230 120 l 5
 420 120 l 6xf4
480 0 m 6
 70 0 l 5
 70 800 l 5
 430 800 l 6
 631 800 690 688 690 580 c 4xf8
 690 524 664 467 614 424 c 5
 685 381 730 313 730 230 c 4
 730 83 633 0 480 0 c 6
380 680 m 6
 230 680 l 5
 230 475 l 5
 410 475 l 6
 493 475 530 524 530 580 c 4
 530 642 490 680 380 680 c 6
EndSplineSet
Layer: 3
SplineSet
460 90 m 6xf4
 562 90 600 154 600 230 c 4
 600 330 530 370 430 370 c 6
 200 370 l 5
 200 90 l 5
 460 90 l 6xf4
460 0 m 6
 100 0 l 5
 100 800 l 5
 400 800 l 6
 601 800 660 688 660 580 c 4xf8
 660 516 632 458 579 421 c 5
 653 387 700 323 700 230 c 4
 700 83 613 0 460 0 c 6
400 715 m 6
 200 715 l 5
 200 460 l 5
 430 460 l 6
 522 460 560 516 560 580 c 4
 560 669 523 715 400 715 c 6
EndSplineSet
Layer: 4
SplineSet
524.538 680 m 2
 374.538 680 l 1
 330.965 475 l 1
 510.965 475 l 2
 593.965 475 641.38 524 653.283 580 c 0
 666.461 642 634.538 680 524.538 680 c 2
480 0 m 2
 70 0 l 1
 240.045 800 l 1
 600.045 800 l 2
 801.045 800 836.239 688 813.283 580 c 0
 801.38 524 763.264 467 704.124 424 c 1
 765.984 381 796.53 313 778.888 230 c 0
 747.643 83 633 0 480 0 c 2
445.507 120 m 2
 520.507 120 598.908 136 618.888 230 c 0
 637.806 319 585.458 355 485.458 355 c 2
 305.458 355 l 1
 255.507 120 l 1
 445.507 120 l 2
EndSplineSet
Layer: 5
SplineSet
551.978 715 m 2
 351.978 715 l 1
 297.776 460 l 1
 527.776 460 l 2
 619.776 460 669.68 516 683.283 580 c 0
 702.2 669 674.978 715 551.978 715 c 2
460 0 m 2
 100 0 l 1
 270.045 800 l 1
 570.045 800 l 2
 771.045 800 806.239 688 783.283 580 c 0
 769.68 516 729.351 458 668.486 421 c 1
 735.26 387 768.656 323 748.888 230 c 0
 717.643 83 613 0 460 0 c 2
479.13 90 m 2
 581.13 90 632.733 154 648.888 230 c 0
 670.144 330 608.646 370 508.646 370 c 2
 278.646 370 l 1
 219.13 90 l 1
 479.13 90 l 2
EndSplineSet
EndChar

StartChar: C
Encoding: 67 67 134
Width: 810
VWidth: 0
Flags: HW
HStem: -20 90<287.159 532.841> 735 85<289.846 530.154>
VStem: 90 100<161.213 640.616> 630 100<161.213 250 540 640.616>
AnchorPoint: "diac_top" 405 850 basechar 0
AnchorPoint: "ogonek" 427.004 40 basechar 0
AnchorPoint: "diac_bottom" 388.744 -50 basechar 0
AnchorPoint: "cedilla" 425 40 basechar 0
LayerCount: 6
Fore
SplineSet
410 820 m 4
 580 820 720 716 720 540 c 5
 650 540 l 5
 650 697 530 760 410 760 c 4
 290 760 170 697 170 540 c 6
 170 250 l 6
 170 93 290 40 410 40 c 4
 530 40 650 93 650 250 c 5
 720 250 l 5
 720 74 580 -20 410 -20 c 4
 240 -20 100 74 100 250 c 6
 100 540 l 6
 100 716 240 820 410 820 c 4
EndSplineSet
Layer: 2
SplineSet
410 820 m 4
 617 820 760 702 760 530 c 5
 600 530 l 5
 600 655 512 700 410 700 c 4
 308 700 220 655 220 530 c 6
 220 260 l 6
 220 145 313 100 410 100 c 4
 507 100 600 145 600 260 c 5
 760 260 l 5
 760 88 617 -20 410 -20 c 4
 203 -20 60 88 60 260 c 6
 60 530 l 6
 60 702 203 820 410 820 c 4
EndSplineSet
Layer: 3
SplineSet
410 820 m 4
 597 820 730 712 730 540 c 5
 630 540 l 5
 630 665 542 735 410 735 c 4
 278 735 190 665 190 540 c 6
 190 250 l 6
 190 135 283 70 410 70 c 4
 537 70 630 135 630 250 c 5
 730 250 l 5
 730 78 587 -20 410 -20 c 4
 233 -20 90 78 90 250 c 6
 90 540 l 6
 90 712 223 820 410 820 c 4
EndSplineSet
Layer: 4
SplineSet
410 820 m 4
 580 820 720 716 720 540 c 5
 650 540 l 5
 650 697 530 760 410 760 c 4
 290 760 170 697 170 540 c 6
 170 250 l 6
 170 93 290 40 410 40 c 4
 530 40 650 93 650 250 c 5
 720 250 l 5
 720 74 580 -20 410 -20 c 4
 240 -20 100 74 100 250 c 6
 100 540 l 6
 100 716 240 820 410 820 c 4
EndSplineSet
Layer: 5
SplineSet
410 820 m 0
 607 820 740 712 740 540 c 1
 620 540 l 1
 620 660 532 725 410 725 c 0
 288 725 200 660 200 540 c 2
 200 250 l 2
 200 140 293 80 410 80 c 0
 527 80 620 140 620 250 c 1
 740 250 l 1
 740 78 597 -20 410 -20 c 0
 223 -20 80 78 80 250 c 2
 80 540 l 2
 80 712 213 820 410 820 c 0
EndSplineSet
EndChar

StartChar: D
Encoding: 68 68 115
Width: 780
VWidth: 0
Flags: HW
HStem: 0 90<200 488.105> 715 85<200 477.313>
VStem: 100 100<90 715> 610 100<207.83 586.644>
AnchorPoint: "diac_top" 350 850 basechar 0
AnchorPoint: "ogonek" 370 40 basechar 0
AnchorPoint: "cedilla" 370 40 basechar 0
AnchorPoint: "diac_bottom" 338.744 -50 basechar 0
LayerCount: 6
Fore
SplineSet
320 740 m 2
 180 740 l 1
 180 60 l 1
 350 60 l 2
 568 60 630 162 630 330 c 2
 630 450 l 2
 630 638 529 739 320 740 c 2
350 0 m 2
 110 0 l 1
 110 800 l 1
 320 800 l 2
 576 800 700 684 700 450 c 2
 700 330 l 2
 700 97 592 0 350 0 c 2
EndSplineSet
Layer: 2
SplineSet
310 800 m 2
 581 800 740 684 740 450 c 2
 740 330 l 2
 740 101 591 0 350 0 c 2
 70 0 l 1
 70 800 l 1
 310 800 l 2
310 680 m 2
 230 680 l 1
 230 120 l 1
 340 120 l 2
 459 120 580 173 580 330 c 2
 580 450 l 2
 580 609 501 680 310 680 c 2
EndSplineSet
Layer: 3
SplineSet
310 800 m 2
 581 800 710 684 710 450 c 2
 710 330 l 2
 710 101 591 0 350 0 c 2
 100 0 l 1
 100 800 l 1
 310 800 l 2
310 715 m 2
 200 715 l 1
 200 90 l 1
 350 90 l 2
 489 90 610 143 610 330 c 2
 610 450 l 2
 610 639 521 715 310 715 c 2
EndSplineSet
Layer: 4
SplineSet
320 740 m 2
 180 740 l 1
 180 60 l 1
 350 60 l 2
 568 60 630 162 630 330 c 2
 630 450 l 2
 630 638 529 739 320 740 c 2
350 0 m 2
 110 0 l 1
 110 800 l 1
 320 800 l 2
 576 800 700 684 700 450 c 2
 700 330 l 2
 700 97 592 0 350 0 c 2
EndSplineSet
Layer: 5
SplineSet
320 800 m 2
 591 800 720 684 720 450 c 2
 720 330 l 2
 720 101 601 0 360 0 c 2
 90 0 l 1
 90 800 l 1
 320 800 l 2
300 705 m 2
 210 705 l 1
 210 100 l 1
 340 100 l 2
 479 100 600 153 600 330 c 2
 600 450 l 2
 600 629 511 705 300 705 c 2
EndSplineSet
EndChar

StartChar: E
Encoding: 69 69 116
Width: 670
VWidth: 0
Flags: W
HStem: 0 90<200 600> 355 90<200 560> 710 90<200 590>
VStem: 100 100<90 355 445 710>
CounterMasks: 1 e0
AnchorPoint: "hook_above" 711.346 850 basechar 0
AnchorPoint: "ring_above" 658.086 760 basechar 0
AnchorPoint: "cedilla" 357.004 40 basechar 0
AnchorPoint: "ogonek" 517.004 40 basechar 0
AnchorPoint: "diac_bottom" 328.744 -50 basechar 0
AnchorPoint: "diac_top" 711.346 850 basechar 0
LayerCount: 6
Fore
SplineSet
200 90 m 1
 600 90 l 1
 600 0 l 1
 200 0 l 1
 100 0 l 1
 100 90 l 1
 100 355 l 1
 100 445 l 1
 100 710 l 1
 100 800 l 1
 200 800 l 1
 590 800 l 1
 590 710 l 1
 200 710 l 1
 200 445 l 1
 560 445 l 1
 560 355 l 1
 200 355 l 1
 200 90 l 1
EndSplineSet
Layer: 2
SplineSet
230 120 m 1
 630 120 l 1
 630 0 l 1
 230 0 l 1
 70 0 l 1
 70 120 l 1
 70 340 l 1
 70 460 l 1
 70 680 l 1
 70 800 l 1
 230 800 l 1
 620 800 l 1
 620 680 l 1
 230 680 l 1
 230 460 l 1
 590 460 l 1
 590 340 l 1
 230 340 l 1
 230 120 l 1
EndSplineSet
Layer: 3
SplineSet
200 90 m 1
 600 90 l 1
 600 0 l 1
 200 0 l 1
 100 0 l 1
 100 90 l 1
 100 355 l 1
 100 445 l 1
 100 710 l 1
 100 800 l 1
 200 800 l 1
 590 800 l 1
 590 710 l 1
 200 710 l 1
 200 445 l 1
 560 445 l 1
 560 355 l 1
 200 355 l 1
 200 90 l 1
EndSplineSet
Layer: 4
SplineSet
255.507 120 m 1
 655.507 120 l 1
 630 0 l 1
 230 0 l 1
 70 0 l 1
 95.5068 120 l 1
 142.27 340 l 1
 167.776 460 l 1
 214.538 680 l 1
 240.045 800 l 1
 400.045 800 l 1
 790.045 800 l 1
 764.538 680 l 1
 374.538 680 l 1
 327.776 460 l 1
 687.776 460 l 1
 662.27 340 l 1
 302.27 340 l 1
 255.507 120 l 1
EndSplineSet
Layer: 5
SplineSet
219.13 90 m 1
 619.13 90 l 1
 600 0 l 1
 200 0 l 1
 100 0 l 1
 119.13 90 l 1
 175.458 355 l 1
 194.588 445 l 1
 250.915 710 l 1
 270.045 800 l 1
 370.045 800 l 1
 760.045 800 l 1
 740.915 710 l 1
 350.915 710 l 1
 294.588 445 l 1
 654.588 445 l 1
 635.458 355 l 1
 275.458 355 l 1
 219.13 90 l 1
EndSplineSet
EndChar

StartChar: F
Encoding: 70 70 118
Width: 650
VWidth: 0
Flags: W
HStem: 0 21G<110 180> 370 60<180 550> 740 60<180 580>
VStem: 110 70<0 370 430 740>
AnchorPoint: "diac_top" 711.346 850 basechar 0
LayerCount: 5
Fore
SplineSet
180 0 m 1
 110 0 l 1
 110 355 l 1
 110 445 l 1
 110 710 l 1
 110 800 l 1
 180 800 l 1
 580 800 l 1
 580 740 l 1
 180 740 l 1
 180 430 l 5
 550 430 l 5
 550 370 l 1
 180 370 l 1
 180 0 l 1
EndSplineSet
Layer: 2
SplineSet
230 0 m 1
 70 0 l 1
 70 340 l 1
 70 460 l 1
 70 680 l 1
 70 800 l 1
 230 800 l 1
 620 800 l 1
 620 680 l 1
 230 680 l 1
 230 460 l 1
 590 460 l 1
 590 340 l 1
 230 340 l 1
 230 0 l 1
EndSplineSet
Layer: 3
SplineSet
200 0 m 1
 100 0 l 1
 100 355 l 1
 100 445 l 1
 100 710 l 1
 100 800 l 1
 200 800 l 1
 590 800 l 1
 590 710 l 1
 200 710 l 1
 200 445 l 1
 560 445 l 1
 560 355 l 1
 200 355 l 1
 200 0 l 1
EndSplineSet
Layer: 4
SplineSet
180 0 m 1
 110 0 l 1
 110 355 l 1
 110 445 l 1
 110 710 l 1
 110 800 l 1
 180 800 l 1
 580 800 l 1
 580 740 l 1
 180 740 l 1
 180 430 l 5
 550 430 l 5
 550 370 l 1
 180 370 l 1
 180 0 l 1
EndSplineSet
EndChar

StartChar: G
Encoding: 71 71 136
Width: 800
VWidth: 0
Flags: W
HStem: -20 85<290.069 509.931> 315 85<400 620> 735 85<296.089 503.911>
VStem: 80 100<170.29 624.111> 620 100<170.29 315 530 624.111>
LayerCount: 5
Fore
SplineSet
400 820 m 0
 577 820 720 702 720 530 c 1
 620 530 l 1
 620 645 522 735 400 735 c 0
 278 735 180 645 180 530 c 2
 180 260 l 2
 180 145 278 65 400 65 c 0
 522 65 620 145 620 260 c 2
 620 315 l 1
 400 315 l 1
 400 400 l 1
 720 400 l 1
 720 260 l 2
 720 88 577 -20 400 -20 c 0
 223 -20 80 88 80 260 c 2
 80 530 l 2
 80 702 223 820 400 820 c 0
EndSplineSet
Layer: 2
SplineSet
390 878 m 0xf4
 579 878 702 761 730 590 c 1
 600 590 l 1xf8
 579 699 504 778 390 778 c 0
 246 778 165 652 165 500 c 2
 165 360 l 2
 165 208 246 82 390 82 c 0
 535 82 589 143 610 160 c 1
 610 360 l 1
 400 360 l 1
 400 460 l 1
 720 460 l 1
 720 100 l 1
 580 0 538 -18 390 -18 c 0
 170 -18 50 141 50 360 c 2
 50 500 l 2
 50 719 170 878 390 878 c 0xf4
EndSplineSet
Layer: 3
SplineSet
400 878 m 0
 589 878 732 767 760 570 c 1
 570 570 l 1
 549 661 514 758 400 758 c 0
 256 758 205 642 205 490 c 2
 205 370 l 2
 205 218 256 102 400 102 c 0
 496 102 535 126 590 175 c 1
 590 340 l 1
 400 340 l 1
 400 460 l 1
 760 460 l 1
 760 130 l 1
 659 25 568 -18 400 -18 c 0
 180 -18 30 131 30 350 c 2
 30 510 l 2
 30 729 180 878 400 878 c 0
EndSplineSet
EndChar

StartChar: H
Encoding: 72 72 110
Width: 800
VWidth: 0
Flags: W
HStem: 0 21G<110 180 620 690> 370 60<180 620> 780 20G<110 180 620 690>
VStem: 110 70<0 370 430 800> 620 70<0 370 430 800>
AnchorPoint: "cedilla" 657.004 40 basechar 0
AnchorPoint: "diac_bottom" 378.744 -50 basechar 0
AnchorPoint: "diac_top" 761.346 850 basechar 0
LayerCount: 5
Fore
SplineSet
690 0 m 5
 620 0 l 5
 620 370 l 5
 180 370 l 5
 180 0 l 5
 110 0 l 5
 110 800 l 5
 180 800 l 5
 180 430 l 5
 620 430 l 5
 620 800 l 5
 690 800 l 5
 690 0 l 5
EndSplineSet
Layer: 2
SplineSet
730 0 m 1
 570 0 l 1
 570 340 l 1
 230 340 l 1
 230 0 l 1
 70 0 l 1
 70 340 l 1
 70 460 l 1
 70 800 l 1
 230 800 l 1
 230 460 l 1
 570 460 l 1
 570 800 l 1
 730 800 l 1
 730 460 l 1
 730 340 l 1
 730 0 l 1
EndSplineSet
Layer: 3
SplineSet
700 0 m 1
 600 0 l 1
 600 355 l 1
 200 355 l 1
 200 0 l 1
 100 0 l 1
 100 355 l 1
 100 445 l 1
 100 800 l 5
 200 800 l 5
 200 445 l 1
 600 445 l 1
 600 800 l 5
 700 800 l 5
 700 445 l 1
 700 355 l 1
 700 0 l 1
EndSplineSet
Layer: 4
SplineSet
690 0 m 5
 620 0 l 5
 620 370 l 5
 180 370 l 5
 180 0 l 5
 110 0 l 5
 110 800 l 5
 180 800 l 5
 180 430 l 5
 620 430 l 5
 620 800 l 5
 690 800 l 5
 690 0 l 5
EndSplineSet
EndChar

StartChar: I
Encoding: 73 73 108
Width: 320
VWidth: 0
Flags: HW
HStem: 0 21G<110 210> 780 20G<110 210>
VStem: 110 100<0 800>
AnchorPoint: "diac_top" 160 850 basechar 0
AnchorPoint: "hook_above" 160 850 basechar 0
AnchorPoint: "ogonek" 170 40 basechar 0
AnchorPoint: "cedilla" 177.004 40 basechar 0
AnchorPoint: "diac_bottom" 160 -50 basechar 0
LayerCount: 6
Fore
SplineSet
125 800 m 5
 195 800 l 5
 195 0 l 5
 125 0 l 5
 125 800 l 5
EndSplineSet
Layer: 2
SplineSet
80 800 m 5
 240 800 l 5
 240 0 l 5
 80 0 l 5
 80 800 l 5
EndSplineSet
Layer: 3
SplineSet
110 800 m 5
 210 800 l 5
 210 0 l 5
 110 0 l 5
 110 800 l 5
EndSplineSet
Layer: 4
SplineSet
125 800 m 5
 195 800 l 5
 195 0 l 5
 125 0 l 5
 125 800 l 5
EndSplineSet
Layer: 5
SplineSet
100 800 m 1
 220 800 l 1
 220 0 l 1
 100 0 l 1
 100 800 l 1
EndSplineSet
EndChar

StartChar: J
Encoding: 74 74 119
Width: 520
VWidth: 0
Flags: W
HStem: -20 90<141.542 298.458> 780 20G<320 420>
VStem: 20 100<90.875 150> 320 100<90.875 800>
AnchorPoint: "diac_bottom" 240 0 basechar 0
AnchorPoint: "diac_top" 370 860 basechar 0
LayerCount: 3
Fore
SplineSet
220 -20 m 0
 90 -20 20 53 20 150 c 1
 120 150 l 1
 120 99 155 70 220 70 c 0
 285 70 320 99 320 150 c 2
 320 800 l 1
 420 800 l 1
 420 150 l 2
 420 53 350 -20 220 -20 c 0
EndSplineSet
Validated: 1
Layer: 2
SplineSet
420 850 m 1
 590 850 l 1
 590 242 l 2
 590 88 475 -18 305 -18 c 0
 135 -18 20 88 20 272 c 1
 190 272 l 1
 190 183 219 102 305 102 c 0
 391 102 420 179 420 272 c 2
 420 850 l 1
EndSplineSet
EndChar

StartChar: K
Encoding: 75 75 113
Width: 730
VWidth: 0
Flags: W
HStem: 0 21G<110 180 585.436 690> 390 60<180 298> 780 20G<110 180 545.029 640>
VStem: 110 70<0 390 450 800>
AnchorPoint: "diac_bottom" 348.744 -50 basechar 0
AnchorPoint: "diac_top" 731.346 850 basechar 0
LayerCount: 5
Fore
SplineSet
560 800 m 1
 640 800 l 1
 365 440 l 1
 690 0 l 1
 600 0 l 1
 316 390 l 1
 180 390 l 1
 180 0 l 1
 110 0 l 1
 110 800 l 1
 180 800 l 1
 180 450 l 1
 298 450 l 1
 560 800 l 1
EndSplineSet
Layer: 2
SplineSet
510 800 m 1
 680 800 l 1
 420 440 l 1
 730 0 l 5
 540 0 l 1
 299 360 l 1
 230 360 l 1
 230 0 l 1
 70 0 l 1
 70 800 l 1
 230 800 l 1
 230 480 l 1
 283 480 l 1
 510 800 l 1
EndSplineSet
Layer: 3
SplineSet
540 800 m 1
 650 800 l 1
 390 440 l 1
 700 0 l 1
 580 0 l 1
 320 375 l 1
 200 375 l 1
 200 0 l 1
 100 0 l 1
 100 800 l 1
 200 800 l 1
 200 465 l 1
 303 465 l 1
 540 800 l 1
EndSplineSet
Layer: 4
SplineSet
560 800 m 1
 640 800 l 1
 365 440 l 1
 690 0 l 1
 600 0 l 1
 316 390 l 1
 180 390 l 1
 180 0 l 1
 110 0 l 1
 110 800 l 1
 180 800 l 1
 180 450 l 1
 298 450 l 1
 560 800 l 1
EndSplineSet
EndChar

StartChar: L
Encoding: 76 76 117
Width: 560
VWidth: 0
Flags: W
HStem: 0 90<170 550> 780 20G<70 170>
VStem: 70 100<90 800>
AnchorPoint: "diac_bottom" 320 0 basechar 0
AnchorPoint: "diac_top" 120 860 basechar 0
LayerCount: 3
Fore
SplineSet
170 90 m 5
 550 90 l 5
 550 0 l 5
 170 0 l 5
 70 0 l 5
 70 90 l 5
 70 800 l 5
 170 800 l 5
 170 90 l 5
EndSplineSet
Validated: 1
Layer: 2
SplineSet
40 860 m 1
 210 860 l 1
 210 125 l 1
 600 125 l 1
 600 0 l 1
 40 0 l 1
 40 860 l 1
EndSplineSet
EndChar

StartChar: M
Encoding: 77 77 122
Width: 960
VWidth: 0
Flags: W
HStem: 0 21G<110 180 451.515 508.485 780 850> 780 20G<110 198.286 761.714 850>
VStem: 110 70<0 660> 780 70<0 660>
AnchorPoint: "cedilla" 797.004 40 basechar 0
AnchorPoint: "diac_top" 841.346 850 basechar 0
LayerCount: 5
Fore
SplineSet
850 0 m 1
 780 0 l 1
 780 660 l 1
 500 0 l 1
 480 0 l 1
 460 0 l 1
 180 660 l 1
 180 0 l 1
 110 0 l 1
 110 800 l 5
 180 800 l 5
 190 800 l 5
 480 100 l 1
 770 800 l 5
 780 800 l 5
 850 800 l 5
 850 0 l 1
EndSplineSet
Layer: 2
SplineSet
890 0 m 1
 730 0 l 1
 730 567 l 1
 550 0 l 1
 480 0 l 1
 410 0 l 1
 230 567 l 1
 230 0 l 1
 70 0 l 1
 70 800 l 1
 210 800 l 1
 230 800 l 1
 280 800 l 1
 480 170 l 1
 680 800 l 1
 730 800 l 1
 750 800 l 1
 890 800 l 1
 890 0 l 1
EndSplineSet
Layer: 3
SplineSet
860 0 m 1
 760 0 l 1
 760 630 l 1
 510 0 l 1
 480 0 l 1
 450 0 l 1
 200 630 l 1
 200 0 l 1
 100 0 l 1
 100 800 l 1
 200 800 l 1
 230 800 l 1
 480 170 l 1
 730 800 l 1
 760 800 l 1
 860 800 l 1
 860 0 l 1
EndSplineSet
Layer: 4
SplineSet
850 0 m 1
 780 0 l 1
 780 660 l 1
 500 0 l 1
 480 0 l 1
 460 0 l 1
 180 660 l 1
 180 0 l 1
 110 0 l 1
 110 800 l 5
 180 800 l 5
 190 800 l 5
 480 100 l 1
 770 800 l 5
 780 800 l 5
 850 800 l 5
 850 0 l 1
EndSplineSet
EndChar

StartChar: N
Encoding: 78 78 121
Width: 800
VWidth: 0
Flags: HW
HStem: 0 21G<100 200 587.302 700> 780 20G<100 212.698 600 700>
VStem: 100 100<0 630> 600 100<170 800>
AnchorPoint: "diac_top" 400 850 basechar 0
AnchorPoint: "cedilla" 130 40 basechar 0
AnchorPoint: "diac_bottom" 400 -50 basechar 0
LayerCount: 6
Fore
SplineSet
180 0 m 5
 110 0 l 5
 110 800 l 5
 180 800 l 5
 620 110 l 5
 620 800 l 5
 690 800 l 5
 690 0 l 5
 620 0 l 5
 180 690 l 5
 180 0 l 5
EndSplineSet
Layer: 2
SplineSet
230 0 m 1
 70 0 l 1
 70 800 l 1
 230 800 l 1
 570 240 l 1
 570 800 l 1
 730 800 l 1
 730 0 l 1
 570 0 l 1
 230 560 l 1
 230 0 l 1
EndSplineSet
Layer: 3
SplineSet
200 0 m 1
 100 0 l 1
 100 800 l 1
 200 800 l 1
 600 170 l 1
 600 800 l 1
 700 800 l 1
 700 0 l 1
 600 0 l 1
 200 630 l 1
 200 0 l 1
EndSplineSet
Layer: 4
SplineSet
180 0 m 5
 110 0 l 5
 110 800 l 5
 180 800 l 5
 620 110 l 5
 620 800 l 5
 690 800 l 5
 690 0 l 5
 620 0 l 5
 180 690 l 5
 180 0 l 5
EndSplineSet
Layer: 5
SplineSet
210 0 m 1
 90 0 l 1
 90 800 l 1
 210 800 l 1
 590 180 l 1
 590 800 l 1
 710 800 l 1
 710 0 l 1
 590 0 l 1
 210 620 l 5
 210 0 l 1
EndSplineSet
EndChar

StartChar: O
Encoding: 79 79 107
Width: 820
VWidth: 0
Flags: W
HStem: -20 60<292.256 527.744> 760 60<293.31 526.69>
VStem: 100 70<161.541 637.885> 650 70<161.541 637.885>
AnchorPoint: "hook_above" 771.346 850 basechar 0
AnchorPoint: "ring_above" 733.086 760 basechar 0
AnchorPoint: "ogonek" 427.004 40 basechar 0
AnchorPoint: "cedilla" 427.004 40 basechar 0
AnchorPoint: "diac_bottom" 388.744 -50 basechar 0
AnchorPoint: "diac_top" 771.346 850 basechar 0
LayerCount: 5
Fore
SplineSet
720 520 m 6
 720 270 l 6
 720 88 590 -20 410 -20 c 4
 230 -20 100 88 100 270 c 6
 100 520 l 6
 100 706 233 820 410 820 c 4
 587 820 720 707 720 520 c 6
650 520 m 6
 650 649 573 760 410 760 c 4
 247 760 170 649 170 520 c 6
 170 270 l 6
 170 150 245 40 410 40 c 4
 575 40 650 150 650 270 c 6
 650 520 l 6
EndSplineSet
Layer: 2
SplineSet
760 510 m 2
 760 280 l 2
 760 98 617 -20 410 -20 c 0
 203 -20 60 98 60 280 c 2
 60 510 l 2
 60 686 203 820 410 820 c 0
 617 820 760 687 760 510 c 2
600 510 m 2
 600 629 527 700 410 700 c 0
 293 700 220 629 220 510 c 2
 220 280 l 2
 220 170 293 100 410 100 c 0
 527 100 600 170 600 280 c 2
 600 510 l 2
EndSplineSet
Layer: 3
SplineSet
730 520 m 6
 730 270 l 6
 730 88 587 -20 410 -20 c 4
 233 -20 90 88 90 270 c 6
 90 520 l 6
 90 706 233 820 410 820 c 4
 587 820 730 707 730 520 c 6
630 520 m 6
 630 649 537 735 410 735 c 4
 283 735 190 649 190 520 c 6
 190 270 l 6
 190 150 279 70 410 70 c 4
 541 70 630 150 630 270 c 6
 630 520 l 6
EndSplineSet
Layer: 4
SplineSet
720 520 m 6
 720 270 l 6
 720 88 590 -20 410 -20 c 4
 230 -20 100 88 100 270 c 6
 100 520 l 6
 100 706 233 820 410 820 c 4
 587 820 720 707 720 520 c 6
650 520 m 6
 650 649 573 760 410 760 c 4
 247 760 170 649 170 520 c 6
 170 270 l 6
 170 150 245 40 410 40 c 4
 575 40 650 150 650 270 c 6
 650 520 l 6
EndSplineSet
EndChar

StartChar: P
Encoding: 80 80 111
Width: 740
VWidth: 0
Flags: HW
HStem: 0 21G<100 200> 320 85<200 518.348> 715 85<200 518.348>
VStem: 100 100<0 320 405 715> 580 100<467.06 652.94>
AnchorPoint: "diac_bottom" 338.744 -50 basechar 0
AnchorPoint: "diac_top" 360 850 basechar 0
LayerCount: 6
Fore
SplineSet
410 740 m 6
 180 740 l 5
 180 380 l 5
 410 380 l 6
 533 380 600 458 600 560 c 4
 600 662 533 740 410 740 c 6
410 800 m 6
 611 800 670 668 670 560 c 4
 670 452 611 320 410 320 c 6
 180 320 l 5
 180 0 l 5
 110 0 l 5
 110 800 l 5
 410 800 l 6
EndSplineSet
Layer: 2
SplineSet
440 300 m 2
 230 300 l 1
 230 0 l 1
 70 0 l 1
 70 800 l 1
 440 800 l 2
 641 800 710 658 710 550 c 0
 710 442 641 300 440 300 c 2
390 420 m 2
 513 420 550 479 550 550 c 0
 550 621 513 680 390 680 c 2
 230 680 l 1
 230 420 l 1
 390 420 l 2
EndSplineSet
Layer: 3
SplineSet
420 715 m 6
 200 715 l 5
 200 405 l 5
 420 405 l 6
 543 405 580 489 580 560 c 4
 580 631 543 715 420 715 c 6
420 800 m 6
 621 800 680 668 680 560 c 4
 680 452 621 320 420 320 c 6
 200 320 l 5
 200 0 l 5
 100 0 l 5
 100 800 l 5
 420 800 l 6
EndSplineSet
Layer: 4
SplineSet
410 740 m 6
 180 740 l 5
 180 380 l 5
 410 380 l 6
 533 380 600 458 600 560 c 4
 600 662 533 740 410 740 c 6
410 800 m 6
 611 800 670 668 670 560 c 4
 670 452 611 320 410 320 c 6
 180 320 l 5
 180 0 l 5
 110 0 l 5
 110 800 l 5
 410 800 l 6
EndSplineSet
Layer: 5
SplineSet
400 705 m 2
 210 705 l 1
 210 405 l 1
 400 405 l 2
 523 405 570 484 570 555 c 4
 570 626 523 705 400 705 c 2
420 800 m 2
 621 800 690 663 690 555 c 0
 690 447 621 310 420 310 c 2
 210 310 l 1
 210 0 l 1
 90 0 l 1
 90 800 l 1
 420 800 l 2
EndSplineSet
EndChar

StartChar: Q
Encoding: 81 81 129
Width: 820
VWidth: 0
Flags: W
HStem: -20 60<292.256 532.295> 760 60<293.31 526.69>
VStem: 100 70<161.541 637.885> 650 70<156.516 637.885>
AnchorPoint: "ring_above" 733.086 760 basechar 0
LayerCount: 5
Fore
SplineSet
440 203 m 1
 482 245 l 1
 604 124 l 1
 635 165 650 216 650 270 c 2
 650 520 l 2
 650 649 573 760 410 760 c 0
 247 760 170 649 170 520 c 2
 170 270 l 2
 170 150 245 40 410 40 c 0
 473 40 523 56 560 82 c 1
 440 203 l 1
720 520 m 2
 720 270 l 2
 720 190 695 125 652 76 c 1
 765 -38 l 1
 723 -80 l 1
 607 36 l 1
 554 -0 487 -20 410 -20 c 0
 230 -20 100 88 100 270 c 2
 100 520 l 2
 100 706 233 820 410 820 c 0
 587 820 720 707 720 520 c 2
EndSplineSet
Layer: 2
SplineSet
380 240 m 5
 461 320 l 5
 790 -10 l 5
 710 -90 l 5
 380 240 l 5
EndSplineSet
Refer: 107 79 N 1 0 0 1 0 0 2
Layer: 3
SplineSet
630 520 m 2
 630 649 537 735 410 735 c 0
 283 735 190 649 190 520 c 2
 190 270 l 2
 190 150 279 70 410 70 c 0
 455.583 70 496.082 79.6864 529.514 97.374 c 1
 420 205 l 1
 475 260 l 1
 589.819 147.161 l 1
 615.585 179.89 630 221.706 630 270 c 2
 630 520 l 2
730 520 m 2
 730 270 l 2
 730 191.701 703.533 127.098 659.278 78.8991 c 1
 765 -25 l 1
 710 -80 l 1
 598.677 29.4034 l 1
 545.809 -2.81268 480.61 -20 410 -20 c 0
 233 -20 90 88 90 270 c 2
 90 520 l 2
 90 706 233 820 410 820 c 0
 587 820 730 707 730 520 c 2
EndSplineSet
Layer: 4
SplineSet
440 203 m 1
 482 245 l 1
 604 124 l 1
 635 165 650 216 650 270 c 2
 650 520 l 2
 650 649 573 760 410 760 c 0
 247 760 170 649 170 520 c 2
 170 270 l 2
 170 150 245 40 410 40 c 0
 473 40 523 56 560 82 c 1
 440 203 l 1
720 520 m 2
 720 270 l 2
 720 190 695 125 652 76 c 1
 765 -38 l 1
 723 -80 l 1
 607 36 l 1
 554 -0 487 -20 410 -20 c 0
 230 -20 100 88 100 270 c 2
 100 520 l 2
 100 706 233 820 410 820 c 0
 587 820 720 707 720 520 c 2
EndSplineSet
EndChar

StartChar: R
Encoding: 82 82 125
Width: 780
VWidth: 0
Flags: HW
HStem: 0 21G<100 200 608.125 740> 320 85<200 430> 715 85<200 518.348>
VStem: 100 100<0 320 405 715> 580 100<466.92 652.94>
AnchorPoint: "diac_top" 360 850 basechar 0
AnchorPoint: "diac_bottom" 380 -50 basechar 0
LayerCount: 6
Fore
SplineSet
410 740 m 2
 180 740 l 1
 180 380 l 1
 410 380 l 2
 533 380 600 458 600 560 c 0
 600 662 533 740 410 740 c 2
410 800 m 2
 611 800 670 668 670 560 c 0
 670 475 633 376 521 337 c 1
 730 0 l 1
 650 0 l 1
 450 322 l 1
 437 321 424 320 410 320 c 2
 180 320 l 1
 180 0 l 1
 110 0 l 1
 110 800 l 1
 410 800 l 2
EndSplineSet
Layer: 2
SplineSet
390 680 m 2
 230 680 l 1
 230 420 l 1
 390 420 l 2
 513 420 550 479 550 550 c 0
 550 621 513 680 390 680 c 2
440 800 m 2
 641 800 710 658 710 550 c 0
 710 472 674 376 579 329 c 1
 770 0 l 1
 590 0 l 1
 420 300 l 1
 230 300 l 1
 230 0 l 1
 70 0 l 1
 70 800 l 1
 440 800 l 2
EndSplineSet
Layer: 3
SplineSet
420 715 m 2
 200 715 l 1
 200 405 l 1
 420 405 l 2
 543 405 580 489 580 560 c 0
 580 631 543 715 420 715 c 2
531 337 m 1
 740 0 l 1
 620 0 l 1
 430 320 l 1
 426 320 423 320 420 320 c 2
 200 320 l 1
 200 0 l 1
 100 0 l 1
 100 800 l 1
 420 800 l 2
 621 800 680 668 680 560 c 0
 680 475 643 376 531 337 c 1
EndSplineSet
Layer: 4
SplineSet
410 740 m 2
 180 740 l 1
 180 380 l 1
 410 380 l 2
 533 380 600 458 600 560 c 0
 600 662 533 740 410 740 c 2
410 800 m 2
 611 800 670 668 670 560 c 0
 670 475 633 376 521 337 c 1
 730 0 l 1
 650 0 l 1
 450 322 l 1
 437 321 424 320 410 320 c 2
 180 320 l 1
 180 0 l 1
 110 0 l 1
 110 800 l 1
 410 800 l 2
EndSplineSet
Layer: 5
SplineSet
400 705 m 2
 210 705 l 1
 210 405 l 1
 400 405 l 2
 523 405 570 484 570 555 c 0
 570 626 523 705 400 705 c 2
420 800 m 2
 621 800 690 663 690 555 c 0
 690 473 650 375 544 332 c 1
 750 0 l 1
 610 0 l 1
 426 310 l 1
 424 310 422 310 420 310 c 2
 210 310 l 1
 210 0 l 1
 90 0 l 1
 90 800 l 1
 420 800 l 2
EndSplineSet
EndChar

StartChar: S
Encoding: 83 83 132
Width: 790
VWidth: 0
Flags: W
HStem: -20 90<276.215 523.18> 730 90<278.583 501.417>
VStem: 80 100<158.809 250> 100 100<528.108 660.712> 580 100<590 659.859> 610 100<149.392 301.247>
AnchorPoint: "diac_top" 741.346 850 basechar 0
AnchorPoint: "cedilla" 417.004 40 basechar 0
LayerCount: 6
Fore
SplineSet
710 230 m 4xd4
 710 78 581 -20 395 -20 c 4
 198 -20 80 88 80 250 c 5
 180 250 l 5
 180 147 257 70 395 70 c 4
 533 70 610 137 610 230 c 4xe4
 610 330 510 364 390 380 c 4
 287 394 100 426 100 590 c 4
 100 694 202 820 390 820 c 4
 578 820 680 694 680 590 c 5
 580 590 l 5xd8
 580 665 508 730 390 730 c 4
 272 730 200 665 200 590 c 4
 200 513 290 481 390 470 c 4
 547 452 710 415 710 230 c 4xd4
EndSplineSet
Layer: 2
SplineSet
740 230 m 4xd8
 740 78 601 -20 395 -20 c 4
 178 -20 50 88 50 250 c 5
 215 250 l 5xe8
 215 157 287 100 395 100 c 4
 503 100 585 147 585 230 c 4
 585 310 510 344 390 360 c 4
 287 374 70 401 70 585 c 4
 70 689 182 820 390 820 c 4
 598 820 710 689 710 585 c 5
 550 585 l 5
 550 655 478 700 390 700 c 4
 302 700 230 655 230 585 c 4
 230 528 290 496 390 485 c 4
 547 467 740 435 740 230 c 4xd8
EndSplineSet
Layer: 3
SplineSet
710 230 m 4xd4
 710 78 581 -20 395 -20 c 4
 198 -20 80 88 80 250 c 5
 180 250 l 5
 180 147 257 70 395 70 c 4
 533 70 610 137 610 230 c 4xe4
 610 330 510 364 390 380 c 4
 287 394 100 426 100 590 c 4
 100 694 202 820 390 820 c 4
 578 820 680 694 680 590 c 5
 580 590 l 5xd8
 580 665 508 730 390 730 c 4
 272 730 200 665 200 590 c 4
 200 513 290 481 390 470 c 4
 547 452 710 415 710 230 c 4xd4
EndSplineSet
Layer: 4
SplineSet
788.888 230 m 0
 756.579 78 596.749 -20 390.749 -20 c 0
 173.749 -20 68.7051 88 103.139 250 c 1
 268.139 250 l 1
 248.371 157 308.256 100 416.256 100 c 0
 524.256 100 616.246 147 633.888 230 c 0
 650.893 310 583.119 344 466.521 360 c 0
 366.496 374 155.235 401 194.346 585 c 0
 216.451 689 356.297 820 564.297 820 c 0
 772.297 820 856.451 689 834.346 585 c 1
 674.346 585 l 1
 689.225 655 626.79 700 538.79 700 c 0
 450.79 700 369.225 655 354.346 585 c 0
 342.229 528 395.428 496 493.09 485 c 0
 646.264 467 832.462 435 788.888 230 c 0
EndSplineSet
Layer: 5
SplineSet
758.888 230 m 0
 726.579 78 576.749 -20 390.749 -20 c 0
 193.749 -20 98.7051 88 133.139 250 c 1
 233.139 250 l 1
 211.246 147 271.879 70 409.879 70 c 0
 547.879 70 639.12 137 658.888 230 c 0
 680.144 330 587.371 364 470.771 380 c 0
 370.747 394 190.549 426 225.408 590 c 0
 247.515 694 376.297 820 564.297 820 c 0
 752.297 820 827.515 694 805.408 590 c 1
 705.408 590 l 1
 721.35 665 663.166 730 545.166 730 c 0
 427.166 730 341.35 665 325.408 590 c 0
 309.041 513 392.239 481 489.901 470 c 0
 643.075 452 798.211 415 758.888 230 c 0
EndSplineSet
EndChar

StartChar: T
Encoding: 84 84 120
Width: 560
VWidth: 0
Flags: W
HStem: 0 21G<230 330> 710 90<40 230 330 520>
VStem: 230 100<0 710>
AnchorPoint: "diac_bottom" 280 0 basechar 0
AnchorPoint: "diac_top" 280 860 basechar 0
LayerCount: 3
Fore
SplineSet
40 710 m 1
 40 800 l 1
 230 800 l 1
 330 800 l 1
 520 800 l 1
 520 710 l 1
 330 710 l 1
 330 0 l 1
 230 0 l 1
 230 710 l 1
 40 710 l 1
EndSplineSet
Validated: 1
Layer: 2
SplineSet
20 860 m 1
 600 860 l 1
 600 740 l 1
 395 740 l 1
 395 0 l 1
 225 0 l 1
 225 740 l 1
 20 740 l 1
 20 860 l 1
EndSplineSet
EndChar

StartChar: U
Encoding: 85 85 123
Width: 760
VWidth: 0
Flags: W
HStem: -20 90<272.625 487.375> 780 20G<70 170 590 690>
VStem: 70 100<172.438 800> 590 100<172.438 800>
AnchorPoint: "diac_bottom" 380 0 basechar 0
AnchorPoint: "diac_top" 380 860 basechar 0
LayerCount: 3
Fore
SplineSet
70 800 m 1
 170 800 l 1
 170 280 l 2
 170 131 277 70 380 70 c 0
 483 70 590 131 590 280 c 2
 590 800 l 1
 690 800 l 1
 690 280 l 2
 690 85 553 -20 380 -20 c 0
 207 -20 70 85 70 280 c 2
 70 800 l 1
EndSplineSet
Validated: 1
Layer: 2
SplineSet
40 850 m 1
 215 850 l 1
 215 370 l 2
 215 218 246 102 390 102 c 0
 534 102 565 218 565 370 c 2
 565 850 l 1
 740 850 l 1
 740 330 l 2
 740 111 610 -18 390 -18 c 0
 170 -18 40 111 40 330 c 2
 40 850 l 1
EndSplineSet
EndChar

StartChar: V
Encoding: 86 86 126
Width: 800
VWidth: 0
Flags: W
HStem: 0 21G<342 458> 780 20G<30 147.75 652.25 770>
AnchorPoint: "diac_top" 761.346 850 basechar 0
AnchorPoint: "diac_bottom" 378.744 -50 basechar 0
LayerCount: 6
Fore
SplineSet
350 0 m 1
 30 800 l 1
 140 800 l 1
 400 129 l 1
 660 800 l 1
 770 800 l 1
 450 0 l 1
 350 0 l 1
EndSplineSet
Layer: 2
SplineSet
800 800 m 1
 480 0 l 1
 475 0 l 1
 325 0 l 1
 320 0 l 1
 0 800 l 1
 175 800 l 1
 400 200 l 1
 625 800 l 1
 800 800 l 1
EndSplineSet
Layer: 3
SplineSet
350 0 m 1
 30 800 l 1
 140 800 l 1
 400 129 l 1
 660 800 l 1
 770 800 l 1
 450 0 l 1
 350 0 l 1
EndSplineSet
Layer: 4
SplineSet
970.045 800 m 1
 480 0 l 1
 475 0 l 1
 325 0 l 1
 320 0 l 1
 170.045 800 l 1
 345.045 800 l 1
 442.512 200 l 1
 795.045 800 l 1
 970.045 800 l 1
EndSplineSet
Layer: 5
SplineSet
350 0 m 1
 200.045 800 l 1
 310.045 800 l 1
 427.42 129 l 1
 830.045 800 l 1
 940.045 800 l 1
 450 0 l 1
 350 0 l 1
EndSplineSet
EndChar

StartChar: W
Encoding: 87 87 131
Width: 1100
VWidth: 0
Flags: W
HStem: 0 21G<274 365.621 734.379 826> 780 20G<40 125.755 509.388 590.612 974.245 1060>
AnchorPoint: "diac_bottom" 528.744 -50 basechar 0
AnchorPoint: "diac_top" 911.346 850 basechar 0
AnchorPoint: "ring_above" 873.086 760 basechar 0
LayerCount: 5
Fore
SplineSet
1060 800 m 1
 820 0 l 1
 810 0 l 1
 750 0 l 1
 740 0 l 1
 550 676 l 1
 360 0 l 1
 350 0 l 1
 290 0 l 1
 280 0 l 1
 40 800 l 1
 120 800 l 1
 320 105 l 1
 515 800 l 1
 585 800 l 1
 780 105 l 1
 980 800 l 1
 1060 800 l 1
EndSplineSet
Layer: 2
SplineSet
1100 800 m 1
 860 0 l 1
 850 0 l 1
 720 0 l 1
 550 579 l 1
 380 0 l 1
 250 0 l 1
 240 0 l 1
 0 800 l 1
 170 800 l 1
 319 234 l 1
 485 800 l 1
 615 800 l 1
 781 234 l 1
 930 800 l 1
 1100 800 l 1
EndSplineSet
Layer: 3
SplineSet
1070 800 m 5
 830 0 l 5
 820 0 l 5
 735 0 l 5
 730 0 l 5
 550 640 l 5
 370 0 l 5
 365 0 l 5
 280 0 l 5
 270 0 l 5
 30 800 l 5
 140 800 l 5
 322 151 l 5
 505 800 l 5
 595 800 l 5
 778 151 l 5
 960 800 l 5
 1070 800 l 5
EndSplineSet
Layer: 4
SplineSet
1060 800 m 1
 820 0 l 1
 810 0 l 1
 750 0 l 1
 740 0 l 1
 550 676 l 1
 360 0 l 1
 350 0 l 1
 290 0 l 1
 280 0 l 1
 40 800 l 1
 120 800 l 1
 320 105 l 1
 515 800 l 1
 585 800 l 1
 780 105 l 1
 980 800 l 1
 1060 800 l 1
EndSplineSet
EndChar

StartChar: X
Encoding: 88 88 109
Width: 770
VWidth: 0
Flags: HW
HStem: 0 21G<15 154.627 615.373 755> 780 20G<45 184.626 585.374 725>
AnchorPoint: "diac_top" 385 850 basechar 0
AnchorPoint: "ring_above" 385 750 basechar 0
AnchorPoint: "cedilla" 90 40 basechar 0
AnchorPoint: "diac_bottom" 385 -50 basechar 0
LayerCount: 6
Fore
SplineSet
65 800 m 1
 155 800 l 1
 385 488 l 1
 615 800 l 1
 705 800 l 1
 430 427 l 1
 745 0 l 1
 655 0 l 1
 385 366 l 1
 115 0 l 1
 25 0 l 1
 340 427 l 1
 65 800 l 1
EndSplineSet
Layer: 2
SplineSet
30 800 m 1
 220 800 l 1
 385 530 l 1
 550 800 l 1
 740 800 l 1
 480 420 l 5
 780 0 l 1
 590 0 l 1
 385 310 l 1
 180 0 l 1
 -10 0 l 1
 290 420 l 1
 30 800 l 1
EndSplineSet
Layer: 3
SplineSet
45 800 m 1
 170 800 l 1
 385 506 l 1
 600 800 l 1
 725 800 l 1
 448 421 l 1
 755 0 l 1
 630 0 l 1
 385 335 l 1
 140 0 l 1
 15 0 l 1
 322 421 l 1
 45 800 l 1
EndSplineSet
Layer: 4
SplineSet
65 800 m 1
 155 800 l 1
 385 488 l 1
 615 800 l 1
 705 800 l 1
 430 427 l 1
 745 0 l 1
 655 0 l 1
 385 366 l 1
 115 0 l 1
 25 0 l 1
 340 427 l 1
 65 800 l 1
EndSplineSet
Layer: 5
SplineSet
45 800 m 1
 190 800 l 1
 385 529 l 1
 580 800 l 1
 725 800 l 1
 458 428 l 1
 765 0 l 1
 620 0 l 1
 385 327 l 1
 150 0 l 1
 5 0 l 1
 312 428 l 1
 45 800 l 1
EndSplineSet
EndChar

StartChar: Y
Encoding: 89 89 127
Width: 680
VWidth: 0
Flags: W
HStem: 0 21G<290 390> 780 20G<20 150.811 529.189 660>
VStem: 290 100<0 320>
AnchorPoint: "diac_bottom" 340 0 basechar 0
AnchorPoint: "diac_top" 340 860 basechar 0
LayerCount: 3
Fore
SplineSet
20 800 m 5
 140 800 l 5
 340 430 l 5
 540 800 l 5
 660 800 l 5
 390 320 l 5
 390 0 l 5
 290 0 l 5
 290 320 l 5
 20 800 l 5
EndSplineSet
Validated: 1
Layer: 2
SplineSet
10 860 m 1
 190 860 l 1
 360 520 l 1
 530 860 l 1
 710 860 l 1
 445 360 l 1
 445 0 l 1
 275 0 l 1
 275 360 l 1
 10 860 l 1
EndSplineSet
EndChar

StartChar: Z
Encoding: 90 90 130
Width: 740
VWidth: 0
Flags: HW
HStem: 0 100<200 680> 710 90<90 530>
AnchorPoint: "diac_top" 370 850 basechar 0
AnchorPoint: "cedilla" 380 40 basechar 0
AnchorPoint: "diac_bottom" 370 -50 basechar 0
LayerCount: 6
Fore
SplineSet
100 800 m 5
 650 800 l 5
 650 740 l 5
 150 60 l 5
 670 60 l 5
 670 0 l 5
 70 0 l 5
 70 60 l 5
 570 740 l 5
 100 740 l 5
 100 800 l 5
EndSplineSet
Layer: 2
SplineSet
60 800 m 1
 690 800 l 1
 690 680 l 1
 230 130 l 1
 710 130 l 1
 710 0 l 1
 30 0 l 1
 30 130 l 1
 500 680 l 1
 60 680 l 1
 60 800 l 1
EndSplineSet
Layer: 3
SplineSet
90 800 m 1
 660 800 l 1
 660 710 l 1
 200 100 l 1
 680 100 l 1
 680 0 l 1
 60 0 l 1
 60 100 l 1
 530 710 l 1
 90 710 l 1
 90 800 l 1
EndSplineSet
Layer: 4
SplineSet
100 800 m 5
 650 800 l 5
 650 740 l 5
 150 60 l 5
 670 60 l 5
 670 0 l 5
 70 0 l 5
 70 60 l 5
 570 740 l 5
 100 740 l 5
 100 800 l 5
EndSplineSet
Layer: 5
SplineSet
80 800 m 5
 670 800 l 5
 670 700 l 5
 210 110 l 5
 690 110 l 5
 690 0 l 5
 50 0 l 5
 50 110 l 5
 520 700 l 5
 80 700 l 5
 80 800 l 5
EndSplineSet
EndChar

StartChar: bracketleft
Encoding: 91 91 187
Width: 400
VWidth: 0
Flags: W
HStem: -180 50<160 320> 850 50<160 320>
VStem: 100 60<-130 850>
LayerCount: 5
Fore
SplineSet
100 360 m 1
 100 900 l 1
 320 900 l 1
 320 850 l 5
 160 850 l 5
 160 360 l 1
 160 -130 l 1
 320 -130 l 1
 320 -180 l 1
 100 -180 l 1
 100 360 l 1
EndSplineSet
Layer: 2
SplineSet
60 360 m 5xd0
 60 900 l 5
 360 900 l 5
 360 810 l 5xe0
 180 810 l 5
 180 360 l 5
 180 -90 l 5xd0
 360 -90 l 5
 360 -180 l 5
 60 -180 l 5xe0
 60 360 l 5xd0
EndSplineSet
Layer: 3
SplineSet
90 360 m 5xd0
 90 900 l 5
 330 900 l 1
 330 830 l 1xe0
 170 830 l 1
 170 360 l 1
 170 -110 l 1xd0
 330 -110 l 1
 330 -180 l 1
 90 -180 l 5xe0
 90 360 l 5xd0
EndSplineSet
Layer: 4
SplineSet
100 360 m 1
 100 900 l 1
 320 900 l 1
 320 850 l 5
 160 850 l 5
 160 360 l 1
 160 -130 l 1
 320 -130 l 1
 320 -180 l 1
 100 -180 l 1
 100 360 l 1
EndSplineSet
EndChar

StartChar: backslash
Encoding: 92 92 161
Width: 480
VWidth: 0
Flags: W
HStem: 880 20<60 145.185>
VStem: 60 360
LayerCount: 6
Fore
Refer: 159 47 N -1 0 0 1 480 0 2
Layer: 2
Refer: 159 47 N -1 0 0 1 480 0 2
Layer: 3
Refer: 159 47 N -1 0 0 1 480 0 2
Layer: 4
SplineSet
351.301 900 m 1
 231.301 900 l 1
 281.74 -180 l 1
 401.74 -180 l 1
 351.301 900 l 1
EndSplineSet
Layer: 5
SplineSet
331.301 900 m 1
 251.301 900 l 1
 301.74 -180 l 1
 381.74 -180 l 1
 331.301 900 l 1
EndSplineSet
EndChar

StartChar: bracketright
Encoding: 93 93 188
Width: 400
VWidth: 0
Flags: W
HStem: -180 70<70 230> 830 70<70 230>
VStem: 70 240<-180 -110 830 900> 230 80<-110 830>
LayerCount: 6
Fore
Refer: 187 91 N -1 0 0 1 400 0 2
Layer: 2
Refer: 187 91 N -1 0 0 1 400 0 2
Layer: 3
Refer: 187 91 N -1 0 0 1 400 0 2
Layer: 4
SplineSet
416.521 360 m 1
 531.301 900 l 1
 231.301 900 l 1
 212.171 810 l 1
 392.171 810 l 1
 296.521 360 l 1
 200.87 -90 l 1
 20.8701 -90 l 1
 1.74023 -180 l 1
 301.74 -180 l 1
 416.521 360 l 1
EndSplineSet
Layer: 5
SplineSet
386.521 360 m 1
 501.301 900 l 1
 261.301 900 l 1
 246.422 830 l 1
 406.422 830 l 1
 306.521 360 l 1
 206.619 -110 l 1
 46.6191 -110 l 1
 31.7402 -180 l 1
 271.74 -180 l 1
 386.521 360 l 1
EndSplineSet
EndChar

StartChar: asciicircum
Encoding: 94 94 189
Width: 540
VWidth: 0
Flags: W
HStem: 560 240
VStem: 80 380
LayerCount: 3
Fore
SplineSet
270 731 m 1
 170 560 l 1
 80 560 l 1
 230 800 l 5
 310 800 l 5
 460 560 l 1
 370 560 l 1
 270 731 l 1
EndSplineSet
Layer: 2
SplineSet
200 860 m 1
 320 860 l 1
 520 400 l 1
 380 400 l 1
 260 690 l 1
 140 400 l 1
 0 400 l 1
 200 860 l 1
EndSplineSet
EndChar

StartChar: underscore
Encoding: 95 95 190
Width: 720
VWidth: 0
Flags: W
HStem: -70 70<90 630>
LayerCount: 6
Fore
SplineSet
90 0 m 1
 630 0 l 1
 630 -70 l 5
 90 -70 l 5
 90 0 l 1
EndSplineSet
Layer: 2
SplineSet
60 0 m 5
 660 0 l 5
 660 -100 l 5
 60 -100 l 5
 60 0 l 5
EndSplineSet
Layer: 3
SplineSet
90 0 m 1
 630 0 l 1
 630 -70 l 5
 90 -70 l 5
 90 0 l 1
EndSplineSet
Layer: 4
SplineSet
60 0 m 1
 660 0 l 1
 638.744 -100 l 1
 38.7441 -100 l 1
 60 0 l 1
EndSplineSet
Layer: 5
SplineSet
90 0 m 1
 630 0 l 1
 615.121 -70 l 1
 75.1211 -70 l 1
 90 0 l 1
EndSplineSet
EndChar

StartChar: grave
Encoding: 96 96 191
Width: 300
VWidth: 0
Flags: W
HStem: 560 240
VStem: 40 220
LayerCount: 3
Fore
SplineSet
40 800 m 5
 150 800 l 5
 260 560 l 5
 180 560 l 5
 40 800 l 5
EndSplineSet
Validated: 1
Layer: 2
SplineSet
-20 960 m 1
 120 960 l 1
 240 780 l 1
 120 780 l 1
 -20 960 l 1
EndSplineSet
EndChar

StartChar: a
Encoding: 97 97 142
Width: 630
VWidth: 0
Flags: W
HStem: -20 90<195.691 375.827> -10 90<558.39 600> 280 80<186.217 450> 535 85<223.3 396.7>
VStem: 50 100<114.164 247.304> 70 100<400 481.851> 450 100<129.206 280 360 481.851>
AnchorPoint: "diac_top" 320 700 basechar 0
AnchorPoint: "diac_bottom" 330 0 basechar 0
LayerCount: 3
Fore
SplineSet
170 400 m 1xb6
 70 400 l 1
 70 537 169 620 310 620 c 0
 451 620 550 537 550 400 c 2
 550 150 l 2
 550 96 563 80 600 80 c 1
 600 -10 l 1x76
 521 -10 468 16 454 70 c 1
 411 17 348 -20 270 -20 c 0
 137 -20 50 70 50 180 c 0xba
 50 304 155 360 280 360 c 2
 450 360 l 1
 450 400 l 2
 450 482 396 535 310 535 c 0
 224 535 170 482 170 400 c 1xb6
450 280 m 1
 290 280 l 2
 214 280 150 257 150 180 c 0
 150 110 214 70 290 70 c 0xba
 372 70 428 111 450 175 c 1
 450 280 l 1
EndSplineSet
Layer: 2
SplineSet
210 400 m 1
 50 400 l 1
 50 537 160.684 620 320 620 c 0
 479.316 620 590 537 590 400 c 2
 590 180 l 2
 590 125.549 602.789 110 640 110 c 1
 640 -10 l 1
 543.996 -10 483.332 5.79102 453.118 46.2129 c 1
 408.764 6.44141 347.595 -20 270 -20 c 0
 120.107 -20 30 69.543 30 180 c 0
 30 310.769 150.085 360 280 360 c 2
 430 360 l 1
 430 400 l 2
 430 482 368.968 500 320 500 c 0
 271.032 500 210 482 210 400 c 1
430 255 m 1
 300 255 l 2
 231.955 255 190 225.974 190 180 c 0
 190 130.857 235.521 100 300 100 c 0
 355.863 100 404.178 122.658 430 164.502 c 1
 430 255 l 1
EndSplineSet
EndChar

StartChar: b
Encoding: 98 98 124
Width: 710
VWidth: 0
Flags: W
HStem: -20 60<269.683 466.076> 0 21G<110 180> 560 60<266.109 462.643> 880 20G<110 180>
VStem: 110 70<0 84 119.312 474.781 522 900> 550 70<126.38 466.29>
AnchorPoint: "diac_bottom" 358.744 -50 basechar 0
AnchorPoint: "diac_top" 726.324 650 basechar 0
LayerCount: 5
Fore
SplineSet
180 164 m 5xbc
 204 104 270 40 360 40 c 4
 482 40 550 111 550 240 c 6
 550 340 l 6
 550 489 477 560 360 560 c 4
 269 560 204 499 180 419 c 5
 180 164 l 5xbc
180 84 m 5
 180 0 l 5
 110 0 l 5x7c
 110 900 l 5
 180 900 l 5
 180 522 l 5
 220 580 286 620 380 620 c 4
 524 620 620 528 620 340 c 6
 620 240 l 6
 620 81 536 -20 380 -20 c 4
 293 -20 222 24 180 84 c 5
EndSplineSet
Layer: 2
SplineSet
230 189 m 1xbc
 248 137 291 100 360 100 c 0
 462 100 500 157 500 240 c 2
 500 340 l 2
 500 435 462 500 360 500 c 0
 288 500 250 469 230 424 c 1
 230 189 l 1xbc
230 64 m 1
 230 0 l 1
 70 0 l 1x7c
 70 900 l 1
 230 900 l 1
 230 545 l 1
 269 589 322 620 390 620 c 0
 546 620 660 528 660 340 c 2
 660 240 l 2
 660 88 549 -20 410 -20 c 0
 333 -20 273 16 230 64 c 1
EndSplineSet
Layer: 3
SplineSet
100 900 m 1x7c
 200 900 l 1
 200 542 l 1
 244 588 305 620 380 620 c 0
 524 620 630 528 630 340 c 2
 630 240 l 2
 630 81 536 -20 380 -20 c 0xbc
 298 -20 237 20 200 74 c 1
 200 0 l 1
 100 0 l 1
 100 900 l 1x7c
360 535 m 0
 288 535 229 495 200 436 c 1
 200 161 l 1
 222 116 280 70 360 70 c 0
 452 70 530 111 530 240 c 2
 530 340 l 2
 530 489 445 535 360 535 c 0
EndSplineSet
Layer: 4
SplineSet
180 164 m 5xbc
 204 104 270 40 360 40 c 4
 482 40 550 111 550 240 c 6
 550 340 l 6
 550 489 477 560 360 560 c 4
 269 560 204 499 180 419 c 5
 180 164 l 5xbc
180 84 m 5
 180 0 l 5
 110 0 l 5x7c
 110 900 l 5
 180 900 l 5
 180 522 l 5
 220 580 286 620 380 620 c 4
 524 620 620 528 620 340 c 6
 620 240 l 6
 620 81 536 -20 380 -20 c 4
 293 -20 222 24 180 84 c 5
EndSplineSet
EndChar

StartChar: c
Encoding: 99 99 145
Width: 640
VWidth: 0
Flags: HW
HStem: -20 90<228.867 440.406> 535 85<234.493 433.978>
VStem: 80 100<115.662 481.582> 480 100<108.975 190 410 487.02>
AnchorPoint: "diac_top" 330 650 basechar 0
AnchorPoint: "diac_bottom" 330 -50 basechar 0
AnchorPoint: "cedilla" 340 40 basechar 0
LayerCount: 6
Fore
SplineSet
330 620 m 4
 469.886 620 570 533.727 570 400 c 5
 500 400 l 5
 500 499.509 436.439 560 330 560 c 4
 223.561 560 160 499.509 160 400 c 6
 160 190 l 6
 160 90.4912 223.561 40 330 40 c 4
 436.439 40 500 90.4912 500 190 c 5
 570 190 l 5
 570 56.2734 469.886 -20 330 -20 c 4
 190.114 -20 90 56.2734 90 190 c 6
 90 400 l 6
 90 533.727 190.114 620 330 620 c 4
EndSplineSet
Layer: 2
SplineSet
335 620 m 4
 491 620 610 528 610 400 c 5
 450 400 l 5
 450 464 401 500 335 500 c 4
 269 500 210 462 210 380 c 6
 210 200 l 6
 210 127 269 100 335 100 c 4
 401 100 450 131 450 200 c 5
 610 200 l 5
 610 62 489 -20 335 -20 c 4
 181 -20 50 52 50 200 c 6
 50 380 l 6
 50 528 179 620 335 620 c 4
EndSplineSet
Layer: 3
SplineSet
180 390 m 6
 180 190 l 6
 180 106 245 70 335 70 c 4
 425 70 480 96 480 190 c 5
 580 190 l 5
 580 52 479 -20 335 -20 c 4
 191 -20 80 42 80 190 c 6
 80 390 l 6
 80 538 191 620 335 620 c 4
 479 620 580 538 580 410 c 5
 480 410 l 5
 480 494 425 535 335 535 c 4
 245 535 180 494 180 390 c 6
EndSplineSet
Layer: 4
SplineSet
330 620 m 4
 469.886 620 570 533.727 570 400 c 5
 500 400 l 5
 500 499.509 436.439 560 330 560 c 4
 223.561 560 160 499.509 160 400 c 6
 160 190 l 6
 160 90.4912 223.561 40 330 40 c 4
 436.439 40 500 90.4912 500 190 c 5
 570 190 l 5
 570 56.2734 469.886 -20 330 -20 c 4
 190.114 -20 90 56.2734 90 190 c 6
 90 400 l 6
 90 533.727 190.114 620 330 620 c 4
EndSplineSet
Layer: 5
SplineSet
190 390 m 2
 190 190 l 2
 190 116 255 80 335 80 c 0
 415 80 470 106 470 190 c 1
 590 190 l 1
 590 52 489 -20 335 -20 c 0
 180 -20 70 42 70 190 c 2
 70 390 l 2
 70 538 181 620 335 620 c 0
 489 620 590 538 590 410 c 1
 470 410 l 1
 470 484 420 525 335 525 c 0
 250 525 190 484 190 390 c 2
EndSplineSet
EndChar

StartChar: d
Encoding: 100 100 135
Width: 670
VWidth: 0
Flags: W
HStem: -20 90<227.422 414.852> 0 21G<490 590> 535 85<234.457 418.229> 880 20G<490 590>
VStem: 60 100<138.315 455.417> 490 100<0 74 125.81 468.432 542 900>
AnchorPoint: "diac_top" 285 700 basechar 0
AnchorPoint: "diac_bottom" 310 0 basechar 0
LayerCount: 3
Fore
SplineSet
490 161 m 1xbc
 490 428 l 1
 461 490 402 535 330 535 c 0
 245 535 160 489 160 340 c 2
 160 240 l 2
 160 111 238 70 330 70 c 0
 410 70 468 116 490 161 c 1xbc
490 74 m 1
 453 20 392 -20 310 -20 c 0xbc
 154 -20 60 81 60 240 c 2
 60 340 l 2
 60 528 166 620 310 620 c 0
 382 620 444 588 490 542 c 1
 490 900 l 1
 590 900 l 1
 590 0 l 1
 490 0 l 1x7c
 490 74 l 1
EndSplineSet
Layer: 2
SplineSet
305 638 m 0xba
 398 638 464 567 480 520 c 1
 480 960 l 1
 620 960 l 1
 620 0 l 1
 480 0 l 1x7a
 480 120 l 1
 465 83 413 -18 305 -18 c 0
 142 -18 40 89 40 262 c 2
 40 358 l 2
 40 531 142 638 305 638 c 0xba
330 528 m 0
 243 528 200 471 200 358 c 2
 200 262 l 2
 200 149 243 92 330 92 c 0
 407 92 460 169 460 272 c 2
 460 348 l 2xbc
 460 451 407 528 330 528 c 0
EndSplineSet
EndChar

StartChar: e
Encoding: 101 101 144
Width: 660
VWidth: 0
Flags: W
HStem: -20 85<232.512 427.488> 280 85<170 490> 535 85<236.751 423.249>
VStem: 70 100<123.059 280 365 468.586> 490 100<123.059 200 365 468.586>
LayerCount: 5
Fore
SplineSet
590 380 m 2
 590 280 l 1
 170 280 l 1
 170 200 l 2
 170 116 240 65 330 65 c 0
 420 65 490 116 490 200 c 1
 590 200 l 1
 590 72 474 -20 330 -20 c 0
 186 -20 70 72 70 200 c 2
 70 380 l 2
 70 514 177 620 330 620 c 0
 483 620 590 514 590 380 c 2
490 380 m 2
 490 477 420 535 330 535 c 0
 240 535 170 477 170 380 c 2
 170 365 l 1
 490 365 l 1
 490 380 l 2
EndSplineSet
Layer: 2
SplineSet
320 638 m 4
 493 638 580 498 580 340 c 6
 580 280 l 5
 150 280 l 5
 150 262 l 6
 150 149 213 72 320 72 c 4
 403 72 442 121 470 190 c 5
 580 190 l 5
 550 71 467 -18 320 -18 c 4
 147 -18 50 99 50 262 c 6
 50 358 l 6
 50 506 147 638 320 638 c 4
320 548 m 4
 203 548 159 463 150 370 c 5
 485 370 l 5
 475 458 438 548 320 548 c 4
EndSplineSet
Layer: 3
SplineSet
320 638 m 0
 493 638 600 498 600 340 c 2
 600 270 l 1
 190 270 l 1
 190 262 l 2
 190 149 243 92 320 92 c 0
 383 92 412 131 440 200 c 1
 600 200 l 1
 570 81 467 -18 320 -18 c 0
 147 -18 30 99 30 262 c 2
 30 358 l 2
 30 506 147 638 320 638 c 0
320 528 m 0
 233 528 199 463 190 380 c 1
 455 380 l 1
 445 458 407 528 320 528 c 0
EndSplineSet
EndChar

StartChar: f
Encoding: 102 102 154
Width: 420
VWidth: 0
Flags: HW
HStem: 0 21<170 240> 540 60<50 370> 840 60<278.503 370>
VStem: 50 320<540 600> 170 70<0 801.811>
AnchorPoint: "diac_bottom" 190 -50 basechar 0
AnchorPoint: "diac_top" 290 950 basechar 0
LayerCount: 6
Fore
SplineSet
50 540 m 5
 50 600 l 5
 170 600 l 5
 170 710 l 6
 170 827 223 900 370 900 c 5
 370 840 l 5
 277 840 240 797 240 710 c 6
 240 600 l 5
 370 600 l 5
 370 540 l 5
 240 540 l 5
 240 0 l 5
 170 0 l 5
 170 540 l 5
 50 540 l 5
EndSplineSet
Layer: 2
SplineSet
10 480 m 5
 10 600 l 5
 110 600 l 5
 110 690 l 6
 110 822 195 900 400 900 c 5
 400 780 l 5
 311 780 270 751 270 690 c 6
 270 600 l 5
 400 600 l 5
 400 480 l 5
 270 480 l 5
 270 0 l 5
 110 0 l 5
 110 480 l 5
 10 480 l 5
EndSplineSet
Layer: 3
SplineSet
40 520 m 5
 40 600 l 5
 150 600 l 5
 150 710 l 6
 150 827 233 900 380 900 c 5
 380 810 l 5
 319 810 250 788 250 710 c 6
 250 600 l 5
 380 600 l 5
 380 520 l 5
 250 520 l 5
 250 0 l 5
 150 0 l 5
 150 520 l 5
 40 520 l 5
EndSplineSet
Layer: 4
SplineSet
50 540 m 5
 50 600 l 5
 170 600 l 5
 170 710 l 6
 170 827 223 900 370 900 c 5
 370 840 l 5
 277 840 240 797 240 710 c 6
 240 600 l 5
 370 600 l 5
 370 540 l 5
 240 540 l 5
 240 0 l 5
 170 0 l 5
 170 540 l 5
 50 540 l 5
EndSplineSet
Layer: 5
SplineSet
30 500 m 1
 30 600 l 1
 130 600 l 1
 130 710 l 2
 130 827 213 900 380 900 c 1
 380 800 l 1
 309 800 250 768 250 700 c 2
 250 600 l 1
 380 600 l 1
 380 500 l 1
 250 500 l 1
 250 0 l 1
 130 0 l 1
 130 500 l 1
 30 500 l 1
EndSplineSet
EndChar

StartChar: g
Encoding: 103 103 137
Width: 670
VWidth: 0
Flags: W
HStem: -290 90<223.891 436.109> -20 90<227.422 423.364> 535 85<234.457 418.229> 580 20G<490 590>
VStem: 60 100<138.315 455.417> 70 100<-151.617 -80> 490 100<-151.617 54 119.667 468.432 542 600>
AnchorPoint: "diac_top" 340 700 basechar 0
LayerCount: 3
Fore
SplineSet
490 600 m 1xda
 590 600 l 1
 590 -80 l 2
 590 -207 500 -290 330 -290 c 0
 160 -290 70 -207 70 -80 c 1
 170 -80 l 1xd6
 170 -168 253 -200 330 -200 c 0
 407 -200 490 -168 490 -80 c 2
 490 54 l 1
 447 10 384 -20 310 -20 c 0
 154 -20 60 81 60 240 c 2
 60 340 l 2
 60 528 166 620 310 620 c 0xea
 382 620 444 588 490 542 c 1
 490 600 l 1xda
490 152 m 1
 490 428 l 1
 461 490 402 535 330 535 c 0
 245 535 160 489 160 340 c 2
 160 240 l 2xea
 160 111 238 70 330 70 c 0
 410 70 468 110 490 152 c 1
EndSplineSet
Validated: 1
Layer: 2
SplineSet
305 638 m 0xea
 433 638 465 547 480 510 c 1
 480 620 l 1
 620 620 l 1xd9
 620 -90 l 2
 620 -243 513 -340 340 -340 c 0
 167 -340 60 -243 60 -90 c 1
 220 -90 l 1xd6
 220 -173 251 -230 340 -230 c 0
 428 -230 460 -173 460 -90 c 2
 460 90 l 1
 443 43 408 -18 305 -18 c 0
 142 -18 40 99 40 262 c 2
 40 358 l 2
 40 521 142 638 305 638 c 0xea
330 528 m 0xea
 253 528 200 471 200 358 c 2
 200 262 l 2
 200 149 253 92 330 92 c 0
 407 92 460 159 460 262 c 2
 460 358 l 2
 460 461 409 528 330 528 c 0xea
EndSplineSet
EndChar

StartChar: h
Encoding: 104 104 143
Width: 680
VWidth: 0
Flags: W
HStem: 0 21<110 180 520 590> 560 60<285.434 471.579> 580 20<110 180> 600 21G<110 180> 880 20G<110 180>
VStem: 110 70<0 461.676 490 600 600 900> 520 70<0 510.676>
AnchorPoint: "diac_top" 726.324 650 basechar 0
AnchorPoint: "cedilla" 557.004 40 basechar 0
LayerCount: 5
Fore
SplineSet
110 900 m 1xae
 180 900 l 5
 180 600 l 5
 110 600 l 1
 110 900 l 1xae
EndSplineSet
Refer: 139 110 N 1 0 0 1 10 0 2
Layer: 2
SplineSet
70 600 m 5xae
 70 900 l 5
 230 900 l 5
 230 600 l 5
 70 600 l 5xae
EndSplineSet
Refer: 139 110 N 1 0 0 1 10 0 2
Layer: 3
SplineSet
100 900 m 5xae
 200 900 l 5
 200 600 l 5
 100 600 l 5
 100 900 l 5xae
EndSplineSet
Refer: 139 110 N 1 0 0 1 10 0 2
Layer: 4
SplineSet
110 900 m 1xae
 180 900 l 5
 180 600 l 5
 110 600 l 1
 110 900 l 1xae
EndSplineSet
Refer: 139 110 N 1 0 0 1 10 0 2
EndChar

StartChar: i
Encoding: 105 105 105
Width: 300
VWidth: 0
Flags: W
HStem: 0 21<100 200> 580 20<100 200> 700 140<95.8748 204.125>
VStem: 80 140<715.875 824.125> 100 100<0 600>
AnchorPoint: "diac_bottom" 150 0 basechar 0
LayerCount: 3
Fore
Refer: 262 775 N 1 0 0 1 460 -160 2
Refer: 260 305 N 1 0 0 1 0 0 3
Layer: 2
SplineSet
240 820 m 0xf0
 240 764 196 720 140 720 c 0
 84 720 40 764 40 820 c 0
 40 876 84 920 140 920 c 0
 196 920 240 876 240 820 c 0xf0
60 620 m 1xe8
 220 620 l 1
 220 0 l 1
 60 0 l 1
 60 620 l 1xe8
EndSplineSet
EndChar

StartChar: j
Encoding: 106 106 114
Width: 340
VWidth: 0
Flags: W
HStem: -290 90<10 102.568> 580 20<140 240> 700 140<135.875 244.125>
VStem: 120 140<715.875 824.125> 140 100<-165.608 600>
AnchorPoint: "diac_bottom" 340 0 basechar 0
LayerCount: 3
Fore
Refer: 262 775 N 1 0 0 1 500 -160 2
Refer: 261 567 N 1 0 0 1 0 0 3
Layer: 2
SplineSet
240 820 m 0xf0
 240 764 196 720 140 720 c 0
 84 720 40 764 40 820 c 0
 40 876 84 920 140 920 c 0
 196 920 240 876 240 820 c 0xf0
60 620 m 1xe8
 220 620 l 1
 220 620 220 167 220 -60 c 0
 220 -257 83 -340 -80 -340 c 1
 -80 -220 l 1
 17 -220 60 -163 60 -60 c 0
 60 620 l 1xe8
EndSplineSet
EndChar

StartChar: k
Encoding: 107 107 156
Width: 590
VWidth: 0
Flags: W
HStem: 0 21G<80 180 436.286 570> 280 90<180 255> 580 20G<405.652 530> 880 20G<80 180>
VStem: 80 100<0 280 370 900>
AnchorPoint: "diac_bottom" 300 0 basechar 0
AnchorPoint: "diac_top" 400 700 basechar 0
LayerCount: 3
Fore
SplineSet
420 600 m 1
 530 600 l 1
 335 335 l 1
 570 0 l 1
 450 0 l 1
 258 280 l 1
 180 280 l 1
 180 0 l 1
 80 0 l 1
 80 900 l 1
 180 900 l 1
 180 370 l 1
 255 370 l 1
 420 600 l 1
EndSplineSet
Validated: 1
Layer: 2
SplineSet
50 960 m 1
 210 960 l 1
 210 360 l 1
 390 620 l 1
 570 620 l 1
 373 365 l 1
 590 0 l 1
 420 0 l 1
 291 270 l 1
 210 150 l 1
 210 0 l 1
 50 0 l 1
 50 960 l 1
EndSplineSet
EndChar

StartChar: l
Encoding: 108 108 138
Width: 350
VWidth: 0
Flags: W
HStem: -10 90<215.698 260> 880 20G<110 210>
VStem: 110 100<86.5698 900>
AnchorPoint: "diac_top" 545.355 930 basechar 0
AnchorPoint: "diac_bottom" 148.744 -50 basechar 0
LayerCount: 6
Fore
SplineSet
260 -10 m 5
 168 -10 110 26 110 100 c 6
 110 900 l 5
 210 900 l 5
 210 150 l 6
 210 96 223 80 260 80 c 5
 260 -10 l 5
EndSplineSet
Layer: 2
SplineSet
290 -10 m 5
 144 -10 80 26 80 130 c 6
 80 900 l 5
 240 900 l 5
 240 180 l 6
 240 126 253 110 290 110 c 5
 290 -10 l 5
EndSplineSet
Layer: 3
SplineSet
260 -10 m 5
 168 -10 110 26 110 100 c 6
 110 900 l 5
 210 900 l 5
 210 150 l 6
 210 96 223 80 260 80 c 5
 260 -10 l 5
EndSplineSet
Layer: 4
SplineSet
287.874 -10 m 1
 141.874 -10 85.5264 26 107.633 130 c 2
 271.301 900 l 1
 431.301 900 l 1
 278.26 180 l 2
 266.782 126 276.381 110 313.381 110 c 1
 287.874 -10 l 1
EndSplineSet
Layer: 5
SplineSet
257.874 -10 m 1
 165.874 -10 115.526 26 131.256 100 c 2
 301.301 900 l 1
 401.301 900 l 1
 241.884 150 l 2
 230.405 96 240.005 80 277.005 80 c 1
 257.874 -10 l 1
EndSplineSet
EndChar

StartChar: m
Encoding: 109 109 140
Width: 930
VWidth: 0
Flags: W
HStem: 0 21G<70 170 420 520 770 870> 530 90<240.212 393.555 580.216 743.383> 580 20G<70 170>
VStem: 70 100<0 469.229 528 600> 420 100<0 444.625> 770 100<0 502.719>
CounterMasks: 1 1c
AnchorPoint: "diac_top" 480 700 basechar 0
AnchorPoint: "diac_bottom" 471 0 basechar 0
LayerCount: 3
Fore
SplineSet
70 600 m 1xbc
 170 600 l 1xbc
 170 528 l 1
 202 574 256 620 335 620 c 0
 409 620 466 585 496 526 c 1
 524 562 584 620 680 620 c 0
 802 620 870 542 870 420 c 2
 870 0 l 1
 770 0 l 1
 770 420 l 2
 770 495 738 530 670 530 c 0
 600 530 550 491 519 445 c 1
 520 437 520 429 520 420 c 2
 520 0 l 1
 420 0 l 1
 420 420 l 2
 420 495 388 530 320 530 c 0xdc
 251 530 201 486 170 435 c 1
 170 0 l 1
 70 0 l 1
 70 600 l 1xbc
EndSplineSet
Layer: 2
SplineSet
335 632 m 0xce
 426 632 469 562 490 490 c 1
 505 545 561 632 665 632 c 0
 774 632 870 571 870 410 c 2
 870 0 l 1
 710 0 l 1
 710 360 l 2
 710 496 681 522 630 522 c 0
 558 522 540 440 540 340 c 1
 540 0 l 1
 380 0 l 1
 380 360 l 2
 380 483 341 522 290 522 c 0
 209 522 200 423 200 340 c 2
 200 0 l 1
 40 0 l 1xd6
 40 620 l 1
 170 620 l 1xae
 170 480 l 1
 176 510 215 632 335 632 c 0xce
EndSplineSet
EndChar

StartChar: n
Encoding: 110 110 139
Width: 630
VWidth: 0
Flags: W
HStem: 0 21G<70 170 470 570> 530 90<267.482 433.61> 580 20G<70 170>
VStem: 70 100<0 445.194 498 600> 470 100<0 493.39>
AnchorPoint: "diac_top" 330 700 basechar 0
AnchorPoint: "diac_bottom" 316 0 basechar 0
LayerCount: 3
Fore
SplineSet
70 600 m 1xb8
 170 600 l 1xb8
 170 498 l 1
 194 538 256 620 370 620 c 0
 492 620 570 542 570 420 c 2
 570 0 l 1
 470 0 l 1
 470 420 l 2
 470 495 418 530 350 530 c 0xd8
 250 530 192 458 170 394 c 1
 170 0 l 1
 70 0 l 1
 70 600 l 1xb8
EndSplineSet
Layer: 2
SplineSet
370 620 m 4xd8
 536 620 600 506 600 340 c 6
 600 0 l 5
 440 0 l 5
 440 340 l 6
 440 439 397 500 320 500 c 4xd8
 243 500 200 439 200 340 c 6
 200 0 l 5
 40 0 l 5
 40 600 l 5
 200 600 l 5xb8
 200 545 l 5
 244 591 302 620 370 620 c 4xd8
EndSplineSet
EndChar

StartChar: o
Encoding: 111 111 106
Width: 640
VWidth: 0
Flags: W
HStem: -20 90<222.06 417.94> 535 85<225.106 414.894>
VStem: 60 100<131.241 465.395> 480 100<131.241 465.395>
AnchorPoint: "diac_bottom" 320 0 basechar 0
AnchorPoint: "diac_top" 320 700 basechar 0
LayerCount: 3
Fore
SplineSet
320 620 m 4
 464 620 580 528 580 360 c 6
 580 220 l 6
 580 57 464 -20 320 -20 c 4
 176 -20 60 57 60 220 c 6
 60 360 l 6
 60 528 176 620 320 620 c 4
320 535 m 4
 235 535 160 489 160 360 c 6
 160 220 l 6
 160 111 235 70 320 70 c 4
 405 70 480 111 480 220 c 6
 480 360 l 6
 480 489 405 535 320 535 c 4
EndSplineSet
Layer: 2
SplineSet
200 330 m 2
 200 270 l 2
 200 171 253 100 330 100 c 4
 407 100 460 171 460 270 c 2
 460 330 l 2
 460 429 407 500 330 500 c 0
 253 500 200 429 200 330 c 2
620 330 m 2
 620 270 l 2
 620 104 496 -20 330 -20 c 0
 164 -20 40 104 40 270 c 2
 40 330 l 2
 40 496 164 620 330 620 c 0
 496 620 620 496 620 330 c 2
EndSplineSet
EndChar

StartChar: p
Encoding: 112 112 112
Width: 710
VWidth: 0
Flags: W
HStem: -20 85<269.538 455.543> 530 90<275.148 462.578> 580 20G<100 200>
VStem: 100 100<-270 58 125.917 474.19 526 600> 530 100<144.583 461.685>
LayerCount: 6
Fore
SplineSet
200 -270 m 1xd8
 100 -270 l 1
 100 600 l 1
 200 600 l 1xb8
 200 526 l 1
 237 580 298 620 380 620 c 0
 536 620 630 519 630 360 c 2
 630 260 l 2
 630 72 524 -20 380 -20 c 0
 305 -20 244 12 200 58 c 1
 200 -270 l 1xd8
200 439 m 1
 200 164 l 1
 229 105 288 65 360 65 c 0
 445 65 530 111 530 260 c 2
 530 360 l 2
 530 489 452 530 360 530 c 0xd8
 280 530 222 484 200 439 c 1
EndSplineSet
Layer: 2
SplineSet
230 -270 m 5xd8
 70 -270 l 5
 70 600 l 5
 230 600 l 5xb8
 230 536 l 5
 273 584 333 620 410 620 c 4
 549 620 660 512 660 360 c 6
 660 260 l 6
 660 72 546 -20 390 -20 c 4
 322 -20 269 11 230 55 c 5
 230 -270 l 5xd8
230 411 m 5
 230 176 l 5
 250 131 288 100 360 100 c 4
 462 100 500 165 500 260 c 6
 500 360 l 6
 500 443 462 500 360 500 c 4xd8
 291 500 248 463 230 411 c 5
EndSplineSet
Layer: 3
SplineSet
200 -270 m 1xd8
 100 -270 l 1
 100 600 l 1
 200 600 l 1xb8
 200 526 l 1
 237 580 298 620 380 620 c 0
 536 620 630 519 630 360 c 2
 630 260 l 2
 630 72 524 -20 380 -20 c 0
 305 -20 244 12 200 58 c 1
 200 -270 l 1xd8
200 439 m 1
 200 164 l 1
 229 105 288 65 360 65 c 0
 445 65 530 111 530 260 c 2
 530 360 l 2
 530 489 452 530 360 530 c 0xd8
 280 530 222 484 200 439 c 1
EndSplineSet
Layer: 4
SplineSet
317.36 411 m 1
 267.41 176 l 1
 277.845 131 309.256 100 381.256 100 c 0
 483.256 100 535.072 165 555.265 260 c 2
 576.521 360 l 2
 594.162 443 568.278 500 466.278 500 c 0
 397.278 500 346.414 463 317.36 411 c 1
172.609 -270 m 1
 12.6094 -270 l 1
 197.534 600 l 1
 357.534 600 l 1
 343.931 536 l 1
 397.133 584 464.785 620 541.785 620 c 0
 680.785 620 768.829 512 736.521 360 c 2
 715.265 260 l 2
 675.304 72 541.749 -20 385.749 -20 c 0
 317.749 -20 271.338 11 241.69 55 c 1
 172.609 -270 l 1
EndSplineSet
Layer: 5
SplineSet
293.312 439 m 1
 234.859 164 l 1
 251.318 105 301.816 65 373.816 65 c 0
 458.816 65 553.594 111 585.265 260 c 2
 606.521 360 l 2
 633.94 489 564.655 530 472.655 530 c 0
 392.655 530 324.877 484 293.312 439 c 1
142.609 -270 m 1
 42.6094 -270 l 1
 227.534 600 l 1
 327.534 600 l 1
 311.805 526 l 1
 360.283 580 429.785 620 511.785 620 c 0
 667.785 620 740.316 519 706.521 360 c 2
 685.265 260 l 2
 645.304 72 519.749 -20 375.749 -20 c 0
 300.749 -20 246.551 12 212.328 58 c 1
 142.609 -270 l 1
EndSplineSet
EndChar

StartChar: q
Encoding: 113 113 141
Width: 710
VWidth: 0
Flags: W
HStem: -20 85<254.457 440.462> 530 90<247.422 434.852> 580 20<510 610>
VStem: 80 100<144.583 461.685> 510 100<-270 58 125.917 474.19 526 600>
AnchorPoint: "ring_above" 639.076 680 basechar 0
AnchorPoint: "diac_top" 626.324 650 basechar 0
AnchorPoint: "diac_bottom" 238.744 -50 basechar 0
LayerCount: 6
Fore
Refer: 112 112 S -1 0 0 1 710 0 2
Layer: 2
Refer: 112 112 S -1 0 0 1 710 0 2
Layer: 3
Refer: 112 112 S -1 0 0 1 710 0 2
Layer: 4
SplineSet
567.36 411 m 1
 517.41 176 l 1
 487.845 131 443.256 100 371.256 100 c 0
 269.256 100 245.072 165 265.265 260 c 2
 286.521 360 l 2
 304.162 443 354.278 500 456.278 500 c 0
 525.278 500 560.414 463 567.36 411 c 1
422.609 -270 m 1
 582.609 -270 l 1
 767.534 600 l 1
 607.534 600 l 1
 593.931 536 l 1
 561.133 584 508.785 620 431.785 620 c 0
 292.785 620 158.829 512 126.521 360 c 2
 105.265 260 l 2
 65.3037 72 159.749 -20 315.749 -20 c 0
 383.749 -20 443.338 11 491.69 55 c 1
 422.609 -270 l 1
EndSplineSet
Layer: 5
SplineSet
603.312 439 m 1
 544.859 164 l 1
 503.318 105 435.816 65 363.816 65 c 0
 278.816 65 203.594 111 235.265 260 c 2
 256.521 360 l 2
 283.94 489 370.655 530 462.655 530 c 0
 542.655 530 590.877 484 603.312 439 c 1
452.609 -270 m 1
 552.609 -270 l 1
 737.534 600 l 1
 637.534 600 l 1
 621.805 526 l 1
 596.283 580 543.785 620 461.785 620 c 0
 305.785 620 190.316 519 156.521 360 c 2
 135.265 260 l 2
 95.3037 72 181.749 -20 325.749 -20 c 0
 400.749 -20 468.551 12 522.328 58 c 1
 452.609 -270 l 1
EndSplineSet
EndChar

StartChar: r
Encoding: 114 114 150
Width: 400
VWidth: 0
Flags: W
HStem: 0 21G<80 180> 510 100<276.115 380> 580 20G<80 180>
VStem: 80 100<0 433.471 502 600>
AnchorPoint: "diac_top" 210 700 basechar 0
AnchorPoint: "diac_bottom" 120 0 basechar 0
LayerCount: 3
Fore
SplineSet
80 600 m 1xb0
 180 600 l 1xb0
 180 502 l 1
 211 544 277 610 380 610 c 1
 380 510 l 1xd0
 286 510 213 460 180 397 c 1
 180 0 l 1
 80 0 l 1
 80 600 l 1xb0
EndSplineSet
Layer: 2
SplineSet
40 0 m 5
 40 600 l 5
 200 600 l 5
 200 535 l 5
 247 588 309 620 380 620 c 5
 380 500 l 5
 278 500 200 439 200 340 c 6
 200 0 l 5
 40 0 l 5
EndSplineSet
EndChar

StartChar: s
Encoding: 115 115 153
Width: 610
VWidth: 0
Flags: W
HStem: -20 90<208.341 413.714> 535 85<217.077 399.533>
VStem: 50 100<125.417 200> 70 100<384.484 491.828> 450 100<400 484.38> 460 110<112.037 224.569>
AnchorPoint: "diac_top" 310 700 basechar 0
AnchorPoint: "diac_bottom" 310 0 basechar 0
LayerCount: 3
Fore
SplineSet
460 170 m 0xe4
 460 235 403 251 310 260 c 0
 201 271 70 304 70 435 c 0
 70 527 156 620 310 620 c 0
 446 620 550 532 550 400 c 1
 450 400 l 1
 450 477 401 535 310 535 c 0
 219 535 170 482 170 435 c 0xd8
 170 386 214 361 310 350 c 0
 416 338 570 329 570 170 c 0
 570 63 473 -20 310 -20 c 0
 154 -20 50 63 50 200 c 1
 150 200 l 1
 150 118 219 70 310 70 c 0
 401 70 460 113 460 170 c 0xe4
EndSplineSet
Layer: 2
SplineSet
290 638 m 0xe8
 443 638 550 540 550 420 c 1
 390 420 l 1xf0
 390 488 366 533 290 533 c 0
 222 533 200 483 200 445 c 0
 200 403 207 380 300 370 c 0
 403 359 570 318 570 180 c 0
 570 43 442 -18 300 -18 c 0
 158 -18 30 56 30 200 c 1
 200 200 l 1
 200 136 238 92 300 92 c 0
 362 92 400 124 400 180 c 0
 400 238 354 264 280 275 c 0
 192 288 40 314 40 445 c 0
 40 539 137 638 290 638 c 0xe8
EndSplineSet
EndChar

StartChar: t
Encoding: 116 116 155
Width: 420
VWidth: 0
Flags: W
HStem: 0 21G<160 260> 520 80<30 160 260 390>
VStem: 160 100<0 520 600 780>
AnchorPoint: "cedilla" 217.004 40 basechar 0
AnchorPoint: "diac_top" 579.848 870 basechar 0
AnchorPoint: "diac_bottom" 190.744 -50 basechar 0
LayerCount: 6
Fore
SplineSet
230 840 m 5
 260 840 l 5
 260 600 l 5
 390 600 l 5
 390 520 l 5
 260 520 l 5
 260 0 l 5
 160 0 l 5
 160 520 l 5
 30 520 l 5
 30 600 l 5
 160 600 l 5
 160 780 l 5
 230 840 l 5
EndSplineSet
Layer: 2
SplineSet
250 840 m 5
 290 840 l 5
 290 600 l 5
 410 600 l 5
 410 480 l 5
 290 480 l 5
 290 0 l 5
 130 0 l 5
 130 480 l 5
 10 480 l 5
 10 600 l 5
 130 600 l 5
 130 780 l 5
 250 840 l 5
EndSplineSet
Layer: 3
SplineSet
230 840 m 5
 260 840 l 5
 260 600 l 5
 390 600 l 5
 390 520 l 5
 260 520 l 5
 260 0 l 5
 160 0 l 5
 160 520 l 5
 30 520 l 5
 30 600 l 5
 160 600 l 5
 160 780 l 5
 230 840 l 5
EndSplineSet
Layer: 4
SplineSet
428.548 840 m 1
 468.548 840 l 1
 417.534 600 l 1
 537.534 600 l 1
 512.027 480 l 1
 392.027 480 l 1
 290 0 l 1
 130 0 l 1
 232.027 480 l 1
 112.027 480 l 1
 137.534 600 l 1
 257.534 600 l 1
 295.794 780 l 1
 428.548 840 l 1
EndSplineSet
Layer: 5
SplineSet
408.548 840 m 1
 438.548 840 l 1
 387.534 600 l 1
 517.534 600 l 1
 500.529 520 l 1
 370.529 520 l 1
 260 0 l 1
 160 0 l 1
 270.529 520 l 1
 140.529 520 l 1
 157.534 600 l 1
 287.534 600 l 1
 325.794 780 l 1
 408.548 840 l 1
EndSplineSet
EndChar

StartChar: u
Encoding: 117 117 133
Width: 660
VWidth: 0
Flags: W
HStem: -20 60<233.216 426.784> 580 20G<100 170 490 560>
VStem: 100 70<105.719 600> 490 70<105.719 600>
AnchorPoint: "hook_above" 629.076 680 basechar 0
AnchorPoint: "ring_above" 619.076 680 basechar 0
AnchorPoint: "ogonek" 347.004 40 basechar 0
AnchorPoint: "cedilla" 347.004 40 basechar 0
AnchorPoint: "diac_bottom" 308.744 -50 basechar 0
AnchorPoint: "diac_top" 606.324 650 basechar 0
LayerCount: 5
Fore
SplineSet
170 200 m 6
 170 103 224 40 330 40 c 4
 436 40 490 103 490 200 c 6
 490 600 l 5
 560 600 l 5
 560 200 l 6
 560 58 461 -20 330 -20 c 4
 199 -20 100 58 100 200 c 6
 100 600 l 5
 170 600 l 5
 170 200 l 6
EndSplineSet
Layer: 2
SplineSet
220 200 m 2
 220 133 274 100 330 100 c 0
 386 100 440 133 440 200 c 2
 440 600 l 1
 600 600 l 1
 600 200 l 2
 600 78 491 -20 330 -20 c 0
 169 -20 60 78 60 200 c 2
 60 600 l 1
 220 600 l 1
 220 200 l 2
EndSplineSet
Layer: 3
SplineSet
190 200 m 2
 190 113 254 70 330 70 c 0
 406 70 470 113 470 200 c 2
 470 600 l 1
 570 600 l 1
 570 200 l 2
 570 58 471 -20 330 -20 c 0
 189 -20 90 58 90 200 c 2
 90 600 l 1
 190 600 l 1
 190 200 l 2
EndSplineSet
Layer: 4
SplineSet
170 200 m 6
 170 103 224 40 330 40 c 4
 436 40 490 103 490 200 c 6
 490 600 l 5
 560 600 l 5
 560 200 l 6
 560 58 461 -20 330 -20 c 4
 199 -20 100 58 100 200 c 6
 100 600 l 5
 170 600 l 5
 170 200 l 6
EndSplineSet
EndChar

StartChar: v
Encoding: 118 118 147
Width: 660
VWidth: 0
Flags: HW
HStem: 0 21G<272 388> 580 20G<40 157.5 502.5 620>
AnchorPoint: "diac_bottom" 330 -50 basechar 0
AnchorPoint: "diac_top" 330 650 basechar 0
LayerCount: 6
Fore
SplineSet
530 600 m 1
 610 600 l 1
 365 0 l 1
 295 0 l 1
 50 600 l 1
 130 600 l 1
 330 89 l 1
 530 600 l 1
EndSplineSet
Layer: 2
SplineSet
480 600 m 1
 650 600 l 1
 410 0 l 1
 390 0 l 1
 270 0 l 1
 250 0 l 1
 10 600 l 1
 180 600 l 1
 330 171 l 1
 480 600 l 1
EndSplineSet
Layer: 3
SplineSet
510 600 m 1
 620 600 l 1
 380 0 l 1
 375 0 l 1
 285 0 l 1
 280 0 l 1
 40 600 l 1
 150 600 l 1
 330 120 l 1
 510 600 l 1
EndSplineSet
Layer: 4
SplineSet
530 600 m 1
 610 600 l 1
 365 0 l 1
 295 0 l 1
 50 600 l 1
 130 600 l 1
 330 89 l 1
 530 600 l 1
EndSplineSet
Layer: 5
SplineSet
500 600 m 1
 630 600 l 1
 390 0 l 1
 385 0 l 1
 275 0 l 1
 270 0 l 1
 30 600 l 1
 160 600 l 1
 330 147 l 1
 500 600 l 1
EndSplineSet
EndChar

StartChar: w
Encoding: 119 119 146
Width: 850
VWidth: 0
Flags: W
HStem: 0 21G<214.333 305.165 544.835 635.667> 580 20G<50 130.331 389.825 460.175 719.669 800>
AnchorPoint: "diac_bottom" 403.744 -50 basechar 0
AnchorPoint: "diac_top" 701.324 650 basechar 0
AnchorPoint: "ring_above" 714.076 680 basechar 0
LayerCount: 5
Fore
SplineSet
725 600 m 1
 800 600 l 1
 630 0 l 1
 610 0 l 1
 565 0 l 1
 550 0 l 1
 425 484 l 1
 300 0 l 1
 285 0 l 1
 240 0 l 1
 220 0 l 1
 50 600 l 1
 125 600 l 1
 262 86 l 1
 395 600 l 1
 455 600 l 1
 588 86 l 1
 725 600 l 1
EndSplineSet
Layer: 2
SplineSet
680 600 m 1
 840 600 l 1
 670 0 l 1
 630 0 l 1
 540 0 l 1
 520 0 l 1
 425 380 l 1
 330 0 l 1
 310 0 l 1
 220 0 l 1
 180 0 l 1
 10 600 l 1
 170 600 l 1
 267 186 l 1
 370 600 l 1
 480 600 l 1
 583 186 l 1
 680 600 l 1
EndSplineSet
Layer: 3
SplineSet
705 600 m 1
 810 600 l 1
 640 0 l 1
 620 0 l 1
 555 0 l 1
 540 0 l 1
 425 445 l 1
 310 0 l 1
 295 0 l 1
 230 0 l 1
 210 0 l 1
 40 600 l 1
 145 600 l 1
 263 128 l 1
 385 600 l 1
 465 600 l 1
 587 128 l 1
 705 600 l 1
EndSplineSet
Layer: 4
SplineSet
725 600 m 1
 800 600 l 1
 630 0 l 1
 610 0 l 1
 565 0 l 1
 550 0 l 1
 425 484 l 1
 300 0 l 1
 285 0 l 1
 240 0 l 1
 220 0 l 1
 50 600 l 1
 125 600 l 1
 262 86 l 1
 395 600 l 1
 455 600 l 1
 588 86 l 1
 725 600 l 1
EndSplineSet
EndChar

StartChar: x
Encoding: 120 120 104
Width: 650
VWidth: 0
Flags: HW
HStem: 0 21G<20 155.353 494.647 630> 580 20G<50 185.347 464.653 600>
AnchorPoint: "diac_top" 325 650 basechar 0
AnchorPoint: "cedilla" 100 40 basechar 0
AnchorPoint: "diac_bottom" 325 -50 basechar 0
LayerCount: 6
Fore
SplineSet
60 600 m 1
 140 600 l 1
 325 369 l 1
 510 600 l 1
 590 600 l 1
 365 319 l 1
 620 0 l 1
 540 0 l 1
 325 269 l 1
 110 0 l 1
 30 0 l 1
 285 319 l 1
 60 600 l 1
EndSplineSet
Layer: 2
SplineSet
30 600 m 1
 210 600 l 1
 325 410 l 1
 440 600 l 1
 620 600 l 1
 410 310 l 1
 650 0 l 1
 470 0 l 1
 325 210 l 1
 180 0 l 1
 0 0 l 1
 240 310 l 1
 30 600 l 1
EndSplineSet
Layer: 3
SplineSet
50 600 m 1
 170 600 l 1
 325 398 l 1
 480 600 l 1
 600 600 l 1
 385 320 l 1
 630 0 l 1
 510 0 l 1
 325 241 l 1
 140 0 l 1
 20 0 l 1
 265 320 l 1
 50 600 l 1
EndSplineSet
Layer: 4
SplineSet
60 600 m 1
 140 600 l 1
 325 369 l 1
 510 600 l 1
 590 600 l 1
 365 319 l 1
 620 0 l 1
 540 0 l 1
 325 269 l 1
 110 0 l 1
 30 0 l 1
 285 319 l 1
 60 600 l 1
EndSplineSet
Layer: 5
SplineSet
45 600 m 1
 185 600 l 1
 325 413 l 1
 465 600 l 1
 605 600 l 1
 395 320 l 1
 635 0 l 1
 495 0 l 1
 325 227 l 1
 155 0 l 1
 15 0 l 1
 255 320 l 1
 45 600 l 1
EndSplineSet
EndChar

StartChar: y
Encoding: 121 121 149
Width: 620
VWidth: 0
Flags: W
HStem: -290 90<80 182.938> 580 20G<20 137.66 482.34 600>
AnchorPoint: "diac_top" 300 700 basechar 0
AnchorPoint: "diac_bottom" 450 0 basechar 0
LayerCount: 3
Fore
SplineSet
290 -180 m 1
 256 -264 218 -290 80 -290 c 1
 80 -200 l 1
 161 -200 177 -188 200 -150 c 1
 260 0 l 1
 20 600 l 1
 130 600 l 1
 310 130 l 1
 490 600 l 1
 600 600 l 1
 360 0 l 1
 290 -180 l 1
EndSplineSet
Layer: 2
SplineSet
0 620 m 1
 170 620 l 1
 315 170 l 1
 460 620 l 1
 630 620 l 1
 280 -340 l 1
 100 -340 l 1
 250 0 l 1
 0 620 l 1
EndSplineSet
EndChar

StartChar: z
Encoding: 122 122 148
Width: 580
VWidth: 0
Flags: W
HStem: 0 100<170 540> 510 90<60 410>
AnchorPoint: "diac_top" 290 700 basechar 0
AnchorPoint: "diac_bottom" 277 0 basechar 0
LayerCount: 3
Fore
SplineSet
60 600 m 1
 530 600 l 1
 530 510 l 1
 170 100 l 1
 540 100 l 1
 540 0 l 1
 40 0 l 1
 40 100 l 1
 410 510 l 1
 60 510 l 1
 60 600 l 1
EndSplineSet
Layer: 2
SplineSet
30 620 m 1
 510 620 l 1
 510 500 l 1
 170 120 l 1
 530 120 l 1
 530 0 l 1
 10 0 l 1
 10 120 l 1
 350 500 l 1
 30 500 l 1
 30 620 l 1
EndSplineSet
EndChar

StartChar: braceleft
Encoding: 123 123 192
Width: 400
VWidth: 0
Flags: W
HStem: -180 70<231.837 350> 830 70<231.837 350>
VStem: 150 80<-107.57 282.449 437.551 827.57>
LayerCount: 6
Fore
SplineSet
40 360 m 1
 40 365 l 1
 79 385 150 432 150 520 c 2
 150 810 l 2
 150 866 193 900 250 900 c 2
 350 900 l 1
 350 830 l 1
 270 830 l 6
 242 830 230 819 230 790 c 6
 230 520 l 6
 230 393 150 360 150 360 c 5
 150 360 230 327 230 200 c 6
 230 -70 l 6
 230 -99 242 -110 270 -110 c 6
 350 -110 l 1
 350 -180 l 1
 250 -180 l 2
 193 -180 150 -146 150 -90 c 2
 150 200 l 2
 150 288 79 335 40 355 c 1
 40 360 l 1
EndSplineSet
Layer: 2
SplineSet
20 360 m 5
 20 365 l 5
 59 385 130 432 130 520 c 6
 130 810 l 6
 130 866 173 900 230 900 c 6
 380 900 l 5
 380 810 l 5
 290 810 l 6
 262 810 250 799 250 770 c 6
 250 520 l 6
 250 393 170 360 170 360 c 5
 170 360 250 327 250 200 c 6
 250 -50 l 6
 250 -79 262 -90 290 -90 c 6
 380 -90 l 5
 380 -180 l 5
 230 -180 l 6
 173 -180 130 -146 130 -90 c 6
 130 200 l 6
 130 288 59 335 20 355 c 5
 20 360 l 5
EndSplineSet
Layer: 3
SplineSet
40 360 m 1
 40 365 l 1
 79 385 150 432 150 520 c 2
 150 810 l 2
 150 866 193 900 250 900 c 2
 350 900 l 1
 350 830 l 1
 270 830 l 6
 242 830 230 819 230 790 c 6
 230 520 l 6
 230 393 150 360 150 360 c 5
 150 360 230 327 230 200 c 6
 230 -70 l 6
 230 -99 242 -110 270 -110 c 6
 350 -110 l 1
 350 -180 l 1
 250 -180 l 2
 193 -180 150 -146 150 -90 c 2
 150 200 l 2
 150 288 79 335 40 355 c 1
 40 360 l 1
EndSplineSet
Layer: 4
SplineSet
96.5205 360 m 1
 97.583 365 l 1
 140.834 385 221.824 432 240.529 520 c 2
 302.171 810 l 2
 314.074 866 364.301 900 421.301 900 c 2
 571.301 900 l 1
 552.171 810 l 1
 462.171 810 l 2
 434.171 810 419.833 799 413.669 770 c 2
 360.529 520 l 2
 333.535 393 246.521 360 246.521 360 c 1
 246.521 360 319.506 327 292.512 200 c 2
 239.372 -50 l 2
 233.208 -79 242.87 -90 270.87 -90 c 2
 360.87 -90 l 1
 341.74 -180 l 1
 191.74 -180 l 2
 134.74 -180 98.9668 -146 110.87 -90 c 2
 172.512 200 l 2
 191.216 288 130.206 335 95.458 355 c 1
 96.5205 360 l 1
EndSplineSet
Layer: 5
SplineSet
116.521 360 m 1
 117.583 365 l 1
 160.834 385 241.824 432 260.529 520 c 2
 322.171 810 l 2
 334.074 866 384.301 900 441.301 900 c 2
 541.301 900 l 1
 526.422 830 l 1
 446.422 830 l 2
 418.422 830 404.084 819 397.92 790 c 2
 340.529 520 l 2
 313.535 393 226.521 360 226.521 360 c 1
 226.521 360 299.506 327 272.512 200 c 2
 215.121 -70 l 2
 208.957 -99 218.619 -110 246.619 -110 c 2
 326.619 -110 l 1
 311.74 -180 l 1
 211.74 -180 l 2
 154.74 -180 118.967 -146 130.87 -90 c 2
 192.512 200 l 2
 211.216 288 150.206 335 115.458 355 c 1
 116.521 360 l 1
EndSplineSet
EndChar

StartChar: bar
Encoding: 124 124 158
Width: 320
VWidth: 0
Flags: W
HStem: 880 20G<120 200>
VStem: 120 80<-180 900>
LayerCount: 3
Fore
SplineSet
120 900 m 1
 200 900 l 1
 200 -180 l 5
 120 -180 l 5
 120 900 l 1
EndSplineSet
Layer: 2
SplineSet
50 960 m 1
 210 960 l 1
 210 -340 l 1
 50 -340 l 1
 50 960 l 1
EndSplineSet
EndChar

StartChar: braceright
Encoding: 125 125 193
Width: 390
VWidth: 0
Flags: W
HStem: -180 70<40 145.638> 830 70<40 145.638>
VStem: 150 80<-105.156 281.848 438.152 825.156>
LayerCount: 3
Fore
Refer: 192 123 S -1 0 0 1 390 0 2
Layer: 2
SplineSet
180 1050 m 2
 278 1050 360 986 360 900 c 2
 360 500 l 2
 360 433 441 385 480 365 c 1
 480 345 l 1
 441 325 360 277 360 210 c 2
 360 -190 l 2
 360 -276 278 -340 180 -340 c 2
 20 -340 l 1
 20 -240 l 1
 140 -240 l 2
 176 -240 200 -202 200 -170 c 2
 200 210 l 2
 200 327 320 355 320 355 c 1
 320 355 200 383 200 500 c 2
 200 880 l 2
 200 912 176 950 140 950 c 2
 20 950 l 1
 20 1050 l 1
 180 1050 l 2
EndSplineSet
EndChar

StartChar: asciitilde
Encoding: 126 126 194
Width: 640
VWidth: 0
Flags: W
HStem: 250 55<351.527 480.752> 335 55<159.248 288.503>
VStem: 90 40<271.85 297.742> 510 40<342.258 368.15>
LayerCount: 5
Fore
SplineSet
220 390 m 0
 261 390 285 379 325 350 c 0
 360 325 379 305 420 305 c 0
 464 305 499 339 510 380 c 1
 550 365 l 1
 540 303 480 250 420 250 c 0
 379 250 354 262 315 290 c 0
 278 316 261 335 220 335 c 4
 176 335 141 301 130 260 c 1
 90 275 l 1
 100 337 160 390 220 390 c 0
EndSplineSet
Layer: 2
SplineSet
215 420 m 4x40
 261 420 290.141 408.071 330 380 c 4
 361.133 358.074 379 340 425 340 c 4
 469 340 511 374 525 410 c 5
 590 385 l 5
 580 308 510 220 425 220 c 4x80
 379 220 348 233 310 260 c 4
 277.21 283.298 261 300 215 300 c 4
 171 300 129 266 115 230 c 5
 50 255 l 5
 60 332 130 420 215 420 c 4x40
EndSplineSet
Layer: 3
SplineSet
215 400 m 4
 261 400 290.779 384.081 330 355 c 4
 366.195 328.163 379 310 425 310 c 4
 469 310 496 354 510 390 c 5
 560 370 l 5
 550 308 490 240 425 240 c 4
 379 240 347.315 257.061 310 285 c 4
 272.139 313.349 261 330 215 330 c 4
 171 330 144 286 130 250 c 5
 80 270 l 5
 90 332 150 400 215 400 c 4
EndSplineSet
Layer: 4
SplineSet
220 390 m 0
 261 390 285 379 325 350 c 0
 360 325 379 305 420 305 c 0
 464 305 499 339 510 380 c 1
 550 365 l 1
 540 303 480 250 420 250 c 0
 379 250 354 262 315 290 c 0
 278 316 261 335 220 335 c 4
 176 335 141 301 130 260 c 1
 90 275 l 1
 100 337 160 390 220 390 c 0
EndSplineSet
EndChar

StartChar: exclamdown
Encoding: 161 161 209
Width: 310
VWidth: 0
Flags: W
HStem: -270 20<110 210> 490 140<105.875 214.125>
VStem: 90 140<505.875 614.125> 110 100<-270 320.4> 130 60<339.6 390>
LayerCount: 6
Fore
Refer: 163 33 N 1 0 0 -1 0 630 2
Layer: 2
Refer: 163 33 N 1 0 0 -1 0 630 2
Layer: 3
Refer: 163 33 N 1 0 0 -1 0 630 2
Layer: 4
SplineSet
22.6094 -270 m 1
 182.609 -270 l 1
 297.391 270 l 1
 278.646 370 l 1
 198.646 370 l 1
 137.391 270 l 1
 22.6094 -270 l 1
372.655 530 m 0
 384.771 587 350.91 630 293.91 630 c 0
 236.91 630 184.771 587 172.655 530 c 0
 160.539 473 194.399 430 251.399 430 c 0
 308.399 430 360.539 473 372.655 530 c 0
EndSplineSet
Layer: 5
SplineSet
52.6094 -270 m 1
 152.609 -270 l 1
 267.391 270 l 1
 272.897 390 l 1
 212.897 390 l 1
 167.391 270 l 1
 52.6094 -270 l 1
349.031 560 m 0
 357.321 599 332.91 630 293.91 630 c 0
 254.91 630 217.321 599 209.031 560 c 0
 200.742 521 225.152 490 264.152 490 c 0
 303.152 490 340.742 521 349.031 560 c 0
EndSplineSet
EndChar

StartChar: cent
Encoding: 162 162 203
Width: 640
VWidth: 0
Flags: HW
HStem: 80 90<228.867 440.406> 635 85<234.493 433.978>
VStem: 80 100<215.662 581.582> 300 70<-150 950> 480 100<208.975 290 510 587.02>
LayerCount: 6
Fore
SplineSet
310 950 m 1
 360 950 l 5
 360 -150 l 5
 310 -150 l 1
 310 950 l 1
EndSplineSet
Refer: 145 99 N 1 0 0 1 0 100 2
Layer: 2
SplineSet
395 130 m 1
 395 -150 l 1
 275 -150 l 1
 275 130 l 1
 395 130 l 1
275 660 m 1
 275 950 l 1
 395 950 l 1
 395 660 l 1
 275 660 l 1
EndSplineSet
Refer: 145 99 S 1 0 0 1 0 100 2
Layer: 3
SplineSet
300 950 m 1
 370 950 l 1
 370 -150 l 1
 300 -150 l 1
 300 950 l 1
EndSplineSet
Refer: 145 99 N 1 0 0 1 0 100 2
Layer: 4
SplineSet
310 950 m 1
 360 950 l 5
 360 -150 l 5
 310 -150 l 1
 310 950 l 1
EndSplineSet
Refer: 145 99 N 1 0 0 1 0 100 2
Layer: 5
SplineSet
295 950 m 1
 375 950 l 5
 375 -150 l 5
 295 -150 l 1
 295 950 l 1
EndSplineSet
Refer: 145 99 N 1 0 0 1 0 100 2
EndChar

StartChar: sterling
Encoding: 163 163 202
Width: 700
Flags: W
HStem: 0 60<170 630> 370 50<90 194 264 470> 600 21G<490 560> 760 60<308.134 451.866>
VStem: 194 67<201.715 370> 197 67<420 709.88> 490 70<600 719.628>
LayerCount: 5
Fore
SplineSet
380 820 m 0xf6
 495 820 560 734 560 600 c 1
 490 600 l 1
 490 672 478 760 380 760 c 0
 282 760 270 672 270 600 c 0
 270 540 268 479 264 420 c 1xf6
 470 420 l 1
 470 370 l 1
 261 370 l 1
 247 211 218 81 170 60 c 1
 630 60 l 1
 630 0 l 1
 90 0 l 1
 90 60 l 1
 157 112 183 227 194 370 c 1xfa
 90 370 l 1
 90 420 l 1
 197 420 l 1
 199 477 200 538 200 600 c 0
 200 734 265 820 380 820 c 0xf6
EndSplineSet
Layer: 2
SplineSet
380 820 m 0xec
 518 820 610 724 610 590 c 1
 450 590 l 1
 450 662 429 700 380 700 c 0
 331 700 310 662 310 590 c 0
 310 539 309 490 306 445 c 1xec
 520 445 l 1
 520 355 l 1
 299 355 l 1
 285 229 259 143 220 120 c 1
 670 120 l 1
 670 0 l 1
 50 0 l 1
 50 120 l 1
 105 172 131 247 142 355 c 1xf4
 50 355 l 1
 50 445 l 1
 148 445 l 1
 149 489 150 537 150 590 c 0
 150 724 242 820 380 820 c 0xec
EndSplineSet
Layer: 3
SplineSet
380 820 m 0xf6
 498 820 570 734 570 600 c 1
 470 600 l 1
 470 672 452 735 380 735 c 0
 308 735 290 672 290 600 c 0
 290 542 288 484 284 430 c 1xf6
 490 430 l 5
 490 370 l 5
 278 370 l 1
 262 225 231 113 190 90 c 1
 640 90 l 1
 640 0 l 1
 80 0 l 1
 80 90 l 1
 138 145 167 241 180 370 c 1xfa
 80 370 l 1
 80 430 l 1
 185 430 l 1
 189 482 190 539 190 600 c 0
 190 734 262 820 380 820 c 0xf6
EndSplineSet
Layer: 4
SplineSet
380 820 m 0xf6
 495 820 560 734 560 600 c 1
 490 600 l 1
 490 672 478 760 380 760 c 0
 282 760 270 672 270 600 c 0
 270 540 268 479 264 420 c 1xf6
 470 420 l 1
 470 370 l 1
 261 370 l 1
 247 211 218 81 170 60 c 1
 630 60 l 1
 630 0 l 1
 90 0 l 1
 90 60 l 1
 157 112 183 227 194 370 c 1xfa
 90 370 l 1
 90 420 l 1
 197 420 l 1
 199 477 200 538 200 600 c 0
 200 734 265 820 380 820 c 0xf6
EndSplineSet
EndChar

StartChar: currency
Encoding: 164 164 249
Width: 1040
VWidth: 0
Flags: W
HStem: -20 100<396.32 646.016> 720 100<396.32 643.933>
VStem: 100 100<276.067 523.68> 840 100<273.984 523.68>
LayerCount: 6
Fore
SplineSet
167 824 m 1
 261 730 l 1
 332 786 422 820 520 820 c 0
 618 820 708 786 780 730 c 1
 874 824 l 1
 944 753 l 1
 850 659 l 1
 907 588 940 498 940 400 c 0
 940 302 907 212 850 140 c 1
 944 46 l 1
 874 -25 l 1
 780 70 l 1
 708 13 618 -20 520 -20 c 0
 422 -20 332 13 261 70 c 1
 167 -25 l 1
 96 46 l 1
 190 140 l 1
 134 212 100 302 100 400 c 0
 100 498 134 588 190 659 c 1
 96 753 l 1
 167 824 l 1
520 720 m 0
 344 720 200 576 200 400 c 0
 200 223 344 80 520 80 c 0
 697 80 840 223 840 400 c 0
 840 576 697 720 520 720 c 0
EndSplineSet
Layer: 2
SplineSet
152 881 m 1
 285 748 l 1
 352 794 433 820 520 820 c 0
 607 820 688 794 755 748 c 1
 888 881 l 1
 1001 768 l 1
 868 635 l 1
 913 568 940 487 940 400 c 0
 940 313 913 232 868 165 c 1
 1001 32 l 1
 888 -81 l 1
 755 52 l 1
 688 7 607 -20 520 -20 c 4
 433 -20 352 7 285 52 c 1
 152 -81 l 1
 39 32 l 1
 172 165 l 1
 126 232 100 313 100 400 c 0
 100 487 126 568 172 635 c 1
 39 768 l 1
 152 881 l 1
520 670 m 0
 371 670 250 549 250 400 c 0
 250 251 371 130 520 130 c 0
 669 130 790 251 790 400 c 0
 790 549 669 670 520 670 c 0
EndSplineSet
Layer: 3
SplineSet
167 824 m 1
 261 730 l 1
 332 786 422 820 520 820 c 0
 618 820 708 786 780 730 c 1
 874 824 l 1
 944 753 l 1
 850 659 l 1
 907 588 940 498 940 400 c 0
 940 302 907 212 850 140 c 1
 944 46 l 1
 874 -25 l 1
 780 70 l 1
 708 13 618 -20 520 -20 c 0
 422 -20 332 13 261 70 c 1
 167 -25 l 1
 96 46 l 1
 190 140 l 1
 134 212 100 302 100 400 c 0
 100 498 134 588 190 659 c 1
 96 753 l 1
 167 824 l 1
520 720 m 0
 344 720 200 576 200 400 c 0
 200 223 344 80 520 80 c 0
 697 80 840 223 840 400 c 0
 840 576 697 720 520 720 c 0
EndSplineSet
Layer: 4
SplineSet
662.413 670 m 0
 513.413 670 366.693 549 335.022 400 c 0
 303.352 251 398.633 130 547.633 130 c 0
 696.633 130 843.352 251 875.022 400 c 0
 906.693 549 811.413 670 662.413 670 c 0
339.263 881 m 1
 443.992 748 l 1
 520.77 794 607.297 820 694.297 820 c 0
 781.297 820 856.77 794 913.992 748 c 1
 1075.26 881 l 1
 1164.24 768 l 1
 1002.97 635 l 1
 1033.73 568 1043.51 487 1025.02 400 c 0
 1006.53 313 962.313 232 903.072 165 c 1
 1007.8 32 l 1
 870.783 -81 l 1
 766.053 52 l 1
 689.488 7 602.749 -20 515.749 -20 c 0
 428.749 -20 353.488 7 296.053 52 c 1
 134.783 -81 l 1
 45.8018 32 l 1
 207.072 165 l 1
 175.313 232 166.53 313 185.022 400 c 0
 203.515 487 246.732 568 306.974 635 c 1
 202.243 768 l 1
 339.263 881 l 1
EndSplineSet
Layer: 5
SplineSet
673.041 720 m 0
 497.041 720 322.41 576 285 400 c 0
 247.378 223 361.005 80 537.005 80 c 0
 714.005 80 887.4 223 925.022 400 c 0
 962.433 576 850.041 720 673.041 720 c 0
342.146 824 m 1
 416.166 730 l 1
 499.069 786 596.297 820 694.297 820 c 0
 792.297 820 875.069 786 935.166 730 c 1
 1049.15 824 l 1
 1104.05 753 l 1
 990.075 659 l 1
 1031.98 588 1045.85 498 1025.02 400 c 0
 1004.19 302 952.062 212 879.758 140 c 1
 953.777 46 l 1
 868.687 -25 l 1
 794.879 70 l 1
 710.764 13 613.749 -20 515.749 -20 c 0
 417.749 -20 334.764 13 275.879 70 c 1
 161.687 -25 l 1
 105.777 46 l 1
 219.758 140 l 1
 179.062 212 164.192 302 185.022 400 c 0
 205.854 498 258.983 588 330.075 659 c 1
 256.055 753 l 1
 342.146 824 l 1
EndSplineSet
EndChar

StartChar: yen
Encoding: 165 165 201
Width: 700
VWidth: 0
Flags: W
HStem: 0 21<300 400> 180 60<60 640> 380 60<60 640> 780 20<30 160.526 539.474 670>
VStem: 300 100<0 320>
LayerCount: 6
Fore
SplineSet
60 440 m 1
 640 440 l 1
 640 380 l 1
 60 380 l 1
 60 440 l 1
60 240 m 1
 640 240 l 1
 640 180 l 1
 60 180 l 1
 60 240 l 1
EndSplineSet
Refer: 127 89 N 1 0 0 1 0 0 2
Layer: 2
SplineSet
30 460 m 1
 670 460 l 5
 670 370 l 5
 30 370 l 1
 30 460 l 1
30 240 m 1
 670 240 l 5
 670 150 l 5
 30 150 l 1
 30 240 l 1
EndSplineSet
Refer: 127 89 N 1 0 0 1 0 0 2
Layer: 3
SplineSet
60 440 m 1
 640 440 l 1
 640 380 l 1
 60 380 l 1
 60 440 l 1
60 240 m 1
 640 240 l 1
 640 180 l 1
 60 180 l 1
 60 240 l 1
EndSplineSet
Refer: 127 89 N 1 0 0 1 0 0 2
Layer: 4
SplineSet
170.045 800 m 1
 350.045 800 l 1
 438.332 460 l 1
 457.221 460 l 1
 690.045 800 l 1
 870.045 800 l 1
 617.776 460 l 1
 767.776 460 l 1
 748.646 370 l 1
 550.999 370 l 1
 491.642 290 l 1
 481.014 240 l 1
 721.014 240 l 1
 701.884 150 l 1
 461.884 150 l 1
 430 0 l 1
 270 0 l 1
 301.884 150 l 1
 61.8838 150 l 1
 81.0137 240 l 1
 321.014 240 l 1
 331.642 290 l 1
 306.293 370 l 1
 108.646 370 l 1
 127.776 460 l 1
 277.776 460 l 1
 170.045 800 l 1
EndSplineSet
Layer: 5
SplineSet
200.045 800 m 1
 320.045 800 l 1
 432.999 440 l 1
 454.051 440 l 1
 720.045 800 l 1
 840.045 800 l 1
 561.025 440 l 1
 733.525 440 l 1
 720.771 380 l 1
 514.521 380 l 1
 468.019 320 l 1
 451.014 240 l 1
 691.014 240 l 1
 678.26 180 l 1
 438.26 180 l 1
 400 0 l 1
 300 0 l 1
 338.26 180 l 1
 98.2598 180 l 1
 111.014 240 l 1
 351.014 240 l 1
 368.019 320 l 1
 347.021 380 l 1
 140.771 380 l 1
 153.524 440 l 1
 326.025 440 l 1
 200.045 800 l 1
EndSplineSet
EndChar

StartChar: brokenbar
Encoding: 166 166 210
Width: 320
Flags: W
HStem: 880 20G<120 200>
VStem: 120 80<-180 270 450 900>
LayerCount: 3
Fore
SplineSet
200 -180 m 5
 120 -180 l 5
 120 270 l 1
 200 270 l 1
 200 -180 l 5
200 450 m 1
 120 450 l 1
 120 900 l 1
 200 900 l 1
 200 450 l 1
EndSplineSet
Layer: 2
SplineSet
50 -340 m 1
 50 230 l 1
 210 230 l 1
 210 -340 l 1
 50 -340 l 1
210 390 m 1
 50 390 l 1
 50 960 l 1
 210 960 l 1
 210 390 l 1
EndSplineSet
EndChar

StartChar: section
Encoding: 167 167 211
Width: 680
Flags: W
HStem: -20 90<226.121 453.879> 730 90<241.551 438.449>
VStem: 80 100<111.992 170> 100 100<387.596 491.936 586.562 691.015> 480 100<640 690.994> 500 100<111.481 226.979 322.401 425.338>
LayerCount: 6
Fore
SplineSet
141 541 m 1xd4
 116 565 100 597 100 640 c 0
 100 722 181 820 340 820 c 0
 499 820 580 722 580 640 c 1
 480 640 l 1
 480 679 433 730 340 730 c 0
 247 730 200 679 200 640 c 0xd8
 200 578 266 559 340 550 c 0
 463 535 600 513 600 370 c 0
 600 334 589 299 567 270 c 1
 587 245 600 213 600 170 c 0
 600 70 514 -20 340 -20 c 0
 166 -20 80 70 80 170 c 1
 180 170 l 1xe4
 180 110 243 70 340 70 c 0
 437 70 500 110 500 170 c 0
 500 242 418 261 340 270 c 0
 232 282 100 317 100 440 c 0
 100 474 114 510 141 541 c 1xd4
484 322 m 1
 494 336 500 352 500 370 c 0xd4
 500 442 418 461 340 470 c 0
 303 474 263 481 227 493 c 1
 209 477 200 457 200 440 c 0
 200 378 266 359 340 350 c 0
 389 344 440 337 484 322 c 1
EndSplineSet
Layer: 2
SplineSet
586 294 m 1xe4
 613 271 630 237 630 185 c 0
 630 80 534 -20 340 -20 c 0
 146 -20 50 80 50 185 c 1
 210 185 l 1
 210 130 263 100 340 100 c 0
 417 100 470 130 470 185 c 0
 470 227 418 241 340 250 c 0
 232 262 70 282 70 425 c 0xd8
 70 462 95 493 126 517 c 1
 92 538 70 572 70 625 c 0
 70 717 161 820 340 820 c 0
 519 820 610 717 610 625 c 1
 450 625 l 1
 450 659 418 700 340 700 c 0
 262 700 230 659 230 625 c 0
 230 593 266 579 340 570 c 0
 463 555 630 548 630 385 c 0
 630 347 612 317 586 294 c 1xe4
241 481 m 1
 223 468 210 449 210 425 c 0
 210 374 266 359 340 350 c 0
 380 345 425 343 467 337 c 1
 481 349 490 365 490 385 c 0xd4
 490 453 418 461 340 470 c 0
 310 473 275 476 241 481 c 1
EndSplineSet
Layer: 3
SplineSet
141 541 m 1xd4
 116 565 100 597 100 640 c 0
 100 722 181 820 340 820 c 0
 499 820 580 722 580 640 c 1
 480 640 l 1
 480 679 433 730 340 730 c 0
 247 730 200 679 200 640 c 0xd8
 200 578 266 559 340 550 c 0
 463 535 600 513 600 370 c 0
 600 334 589 299 567 270 c 1
 587 245 600 213 600 170 c 0
 600 70 514 -20 340 -20 c 0
 166 -20 80 70 80 170 c 1
 180 170 l 1xe4
 180 110 243 70 340 70 c 0
 437 70 500 110 500 170 c 0
 500 242 418 261 340 270 c 0
 232 282 100 317 100 440 c 0
 100 474 114 510 141 541 c 1xd4
484 322 m 1
 494 336 500 352 500 370 c 0xd4
 500 442 418 461 340 470 c 0
 303 474 263 481 227 493 c 1
 209 477 200 457 200 440 c 0
 200 378 266 359 340 350 c 0
 389 344 440 337 484 322 c 1
EndSplineSet
Layer: 4
SplineSet
343.239 481 m 1
 322.477 468 305.438 449 300.337 425 c 0
 289.496 374 342.308 359 414.395 350 c 0
 453.332 345 497.907 343 538.632 337 c 1
 555.183 349 567.583 365 571.834 385 c 0
 586.288 453 515.988 461 439.901 470 c 0
 410.539 473 376.177 476 343.239 481 c 1
648.491 294 m 1
 670.603 271 680.376 237 669.323 185 c 0
 647.005 80 529.749 -20 335.749 -20 c 0
 141.749 -20 67.0049 80 89.3232 185 c 1
 249.323 185 l 1
 237.633 130 284.256 100 361.256 100 c 0
 438.256 100 497.633 130 509.323 185 c 0
 518.25 227 469.227 241 393.139 250 c 0
 287.689 262 129.941 282 160.337 425 c 0
 168.201 462 199.79 493 235.892 517 c 1
 206.355 538 191.582 572 202.848 625 c 0
 222.403 717 335.297 820 514.297 820 c 0
 693.297 820 762.403 717 742.848 625 c 1
 582.848 625 l 1
 590.075 659 566.79 700 488.79 700 c 0
 410.79 700 370.075 659 362.848 625 c 0
 356.046 593 389.07 579 461.157 570 c 0
 580.969 555 746.481 548 711.834 385 c 0
 703.757 347 679.381 317 648.491 294 c 1
EndSplineSet
Layer: 5
SplineSet
552.443 322 m 1
 565.419 336 574.82 352 578.646 370 c 0
 593.95 442 515.988 461 439.901 470 c 0
 403.752 474 365.239 481 331.79 493 c 1
 310.39 477 297.139 457 293.525 440 c 0
 280.347 378 342.308 359 414.395 350 c 0
 462.119 344 511.632 337 552.443 322 c 1
255.993 541 m 1
 236.095 565 226.896 597 236.036 640 c 0
 253.466 722 355.297 820 514.297 820 c 0
 673.297 820 733.466 722 716.036 640 c 1
 616.036 640 l 1
 624.326 679 588.166 730 495.166 730 c 0
 402.166 730 344.326 679 336.036 640 c 0
 322.857 578 384.819 559 456.906 550 c 0
 576.718 535 709.041 513 678.646 370 c 0
 670.994 334 652.555 299 624.391 270 c 1
 639.076 245 645.274 213 636.135 170 c 0
 614.879 70 509.749 -20 335.749 -20 c 0
 161.749 -20 94.8789 70 116.135 170 c 1
 216.135 170 l 1
 203.381 110 257.879 70 354.879 70 c 0
 451.879 70 523.381 110 536.135 170 c 0
 551.438 242 473.478 261 397.391 270 c 0
 291.941 282 167.381 317 193.524 440 c 0
 200.752 474 222.404 510 255.993 541 c 1
EndSplineSet
EndChar

StartChar: dieresis
Encoding: 168 168 262
Width: 680
VWidth: 0
Flags: W
HStem: 650 140<155.875 264.125 415.875 524.125>
VStem: 140 140<665.875 774.125> 400 140<665.875 774.125>
LayerCount: 6
Fore
SplineSet
280 720 m 4
 280 681 249 650 210 650 c 4
 171 650 140 681 140 720 c 4
 140 759 171 790 210 790 c 4
 249 790 280 759 280 720 c 4
540 720 m 4
 540 681 509 650 470 650 c 4
 431 650 400 681 400 720 c 4
 400 759 431 790 470 790 c 4
 509 790 540 759 540 720 c 4
EndSplineSet
Layer: 2
SplineSet
280 720 m 0
 280 670 240 630 190 630 c 0
 140 630 100 670 100 720 c 0
 100 770 140 810 190 810 c 0
 240 810 280 770 280 720 c 0
580 720 m 0
 580 670 540 630 490 630 c 0
 440 630 400 670 400 720 c 0
 400 770 440 810 490 810 c 0
 540 810 580 770 580 720 c 0
EndSplineSet
Layer: 3
SplineSet
280 720 m 4
 280 681 249 650 210 650 c 4
 171 650 140 681 140 720 c 4
 140 759 171 790 210 790 c 4
 249 790 280 759 280 720 c 4
540 720 m 4
 540 681 509 650 470 650 c 4
 431 650 400 681 400 720 c 4
 400 759 431 790 470 790 c 4
 509 790 540 759 540 720 c 4
EndSplineSet
Layer: 4
SplineSet
733.041 720 m 0
 722.413 670 673.91 630 623.91 630 c 0
 573.91 630 542.413 670 553.041 720 c 0
 563.669 770 612.171 810 662.171 810 c 0
 712.171 810 743.669 770 733.041 720 c 0
433.041 720 m 0
 422.413 670 373.91 630 323.91 630 c 0
 273.91 630 242.413 670 253.041 720 c 0
 263.669 770 312.171 810 362.171 810 c 0
 412.171 810 443.669 770 433.041 720 c 0
EndSplineSet
Layer: 5
SplineSet
693.041 720 m 0
 684.751 681 647.162 650 608.162 650 c 0
 569.162 650 544.751 681 553.041 720 c 0
 561.33 759 598.92 790 637.92 790 c 0
 676.92 790 701.33 759 693.041 720 c 0
433.041 720 m 0
 424.751 681 387.162 650 348.162 650 c 0
 309.162 650 284.751 681 293.041 720 c 0
 301.33 759 338.92 790 377.92 790 c 0
 416.92 790 441.33 759 433.041 720 c 0
EndSplineSet
EndChar

StartChar: copyright
Encoding: 169 169 204
Width: 940
Flags: W
HStem: -20 70<343.439 596.561> 190 70<403.09 546.911> 540 70<403.09 546.911> 750 70<343.439 596.561>
VStem: 50 70<273.439 526.561> 300 80<283.697 516.303> 570 80<283.697 340 460 516.303> 820 70<273.439 526.561>
LayerCount: 6
Fore
SplineSet
470 750 m 0
 277 750 120 593 120 400 c 0
 120 207 277 50 470 50 c 0
 663 50 820 207 820 400 c 0
 820 593 663 750 470 750 c 0
470 820 m 0
 702 820 890 632 890 400 c 0
 890 168 702 -20 470 -20 c 0
 238 -20 50 168 50 400 c 0
 50 632 238 820 470 820 c 0
475 610 m 0
 578 610 650 546 650 460 c 1
 570 460 l 1
 570 508 531 540 475 540 c 0
 419 540 380 508 380 460 c 2
 380 340 l 2
 380 292 419 260 475 260 c 0
 531 260 570 292 570 340 c 1
 650 340 l 1
 650 254 578 190 475 190 c 0
 372 190 300 254 300 340 c 2
 300 460 l 2
 300 546 372 610 475 610 c 0
EndSplineSet
Layer: 2
SplineSet
470 735 m 0
 276 735 150 582 150 400 c 0
 150 218 276 65 470 65 c 0
 664 65 790 218 790 400 c 0
 790 582 664 735 470 735 c 0
470 820 m 0
 718 820 890 632 890 400 c 0
 890 168 718 -20 470 -20 c 0
 222 -20 50 168 50 400 c 0
 50 632 222 820 470 820 c 0
475 610 m 0
 587 610 665 546 665 460 c 1
 555 460 l 1
 555 503 527 525 475 525 c 0
 423 525 395 503 395 460 c 2
 395 340 l 2
 395 297 423 275 475 275 c 0
 527 275 555 297 555 340 c 1
 665 340 l 1
 665 254 587 190 475 190 c 0
 363 190 285 254 285 340 c 2
 285 460 l 2
 285 546 363 610 475 610 c 0
EndSplineSet
Layer: 3
SplineSet
470 750 m 0
 277 750 120 593 120 400 c 0
 120 207 277 50 470 50 c 0
 663 50 820 207 820 400 c 0
 820 593 663 750 470 750 c 0
470 820 m 0
 702 820 890 632 890 400 c 0
 890 168 702 -20 470 -20 c 0
 238 -20 50 168 50 400 c 0
 50 632 238 820 470 820 c 0
475 610 m 0
 578 610 650 546 650 460 c 1
 570 460 l 1
 570 508 531 540 475 540 c 0
 419 540 380 508 380 460 c 2
 380 340 l 2
 380 292 419 260 475 260 c 0
 531 260 570 292 570 340 c 1
 650 340 l 1
 650 254 578 190 475 190 c 0
 372 190 300 254 300 340 c 2
 300 460 l 2
 300 546 372 610 475 610 c 0
EndSplineSet
Layer: 4
SplineSet
604.659 610 m 0
 716.659 610 781.056 546 762.776 460 c 1
 652.776 460 l 1
 661.916 503 638.592 525 586.592 525 c 0
 534.592 525 501.916 503 492.776 460 c 2
 467.27 340 l 2
 458.129 297 481.453 275 533.453 275 c 0
 585.453 275 618.129 297 627.27 340 c 1
 737.27 340 l 1
 718.989 254 627.386 190 515.386 190 c 0
 403.386 190 338.989 254 357.27 340 c 2
 382.776 460 l 2
 401.056 546 492.659 610 604.659 610 c 0
644.297 820 m 0
 892.297 820 1024.34 632 975.022 400 c 0
 925.709 168 713.749 -20 465.749 -20 c 0
 217.749 -20 85.71 168 135.022 400 c 0
 184.336 632 396.297 820 644.297 820 c 0
626.229 735 m 0
 432.229 735 273.708 582 235.022 400 c 0
 196.337 218 289.816 65 483.816 65 c 0
 677.816 65 836.337 218 875.022 400 c 0
 913.708 582 820.229 735 626.229 735 c 0
EndSplineSet
Layer: 5
SplineSet
604.659 610 m 0
 707.659 610 766.056 546 747.776 460 c 1
 667.776 460 l 1
 677.979 508 645.78 540 589.78 540 c 0
 533.78 540 487.979 508 477.776 460 c 2
 452.27 340 l 2
 442.066 292 474.265 260 530.265 260 c 0
 586.265 260 632.066 292 642.27 340 c 1
 722.27 340 l 1
 703.989 254 618.386 190 515.386 190 c 0
 412.386 190 353.989 254 372.27 340 c 2
 397.776 460 l 2
 416.056 546 501.659 610 604.659 610 c 0
644.297 820 m 0
 876.297 820 1024.34 632 975.022 400 c 0
 925.709 168 697.749 -20 465.749 -20 c 0
 233.749 -20 85.71 168 135.022 400 c 0
 184.336 632 412.297 820 644.297 820 c 0
629.417 750 m 0
 436.417 750 246.046 593 205.022 400 c 0
 163.999 207 287.628 50 480.628 50 c 0
 673.628 50 863.999 207 905.022 400 c 0
 946.046 593 822.417 750 629.417 750 c 0
EndSplineSet
EndChar

StartChar: ordfeminine
Encoding: 170 170 220
Width: 360
VWidth: 0
Flags: W
HStem: 550 45<122.345 212.413> 555 45<303.695 324.5> 705 35<120.25 249.5> 827.5 42.5<133.464 225.536>
VStem: 49.5 50<617.082 684.499> 59.5 50<770 804.306> 249.5 50<624.603 705 740 804.306>
LayerCount: 6
Fore
Refer: 142 97 S 0.5 0 0 0.5 9.5 560 2
Layer: 2
Refer: 142 97 S 0.5 0 0 0.5 9.5 560 2
Layer: 3
Refer: 142 97 S 0.5 0 0 0.5 9.5 560 2
Layer: 4
SplineSet
382.227 695 m 1
 312.227 695 l 2
 279.227 695 258.72 678.5 253.193 652.5 c 0
 248.942 632.5 259.659 610 299.159 610 c 0
 327.159 610 353.604 621.5 371.067 642.5 c 1
 382.227 695 l 1
287.105 765 m 1
 207.105 765 l 1
 220.604 828.5 284.924 870 364.424 870 c 0
 443.924 870 490.604 828.5 477.105 765 c 2
 452.662 650 l 2
 446.923 623 451.723 615 470.223 615 c 1
 457.469 555 l 1
 409.469 555 380.669 563 369.921 583 c 1
 343.669 563 310.406 550 271.406 550 c 0
 196.406 550 161.503 597.5 173.193 652.5 c 0
 187.115 718 251.792 740 316.792 740 c 2
 391.792 740 l 1
 397.105 765 l 2
 404.758 801 376.171 810 351.671 810 c 0
 327.171 810 294.758 801 287.105 765 c 1
EndSplineSet
Layer: 5
SplineSet
399.353 705 m 1
 319.353 705 l 2
 281.353 705 245.845 688.5 237.662 650 c 0
 230.223 615 257.971 595 295.971 595 c 0
 336.971 595 369.328 615.5 387.131 647.5 c 1
 399.353 705 l 1
273.169 770 m 1
 223.169 770 l 1
 236.135 831 293.924 870 364.424 870 c 0
 434.924 870 476.135 831 463.169 770 c 2
 434.474 635 l 2
 428.734 608 433.534 600 452.034 600 c 1
 442.469 555 l 1
 402.969 555 379.232 568 377.971 595 c 1
 350.839 568.5 315.406 550 276.406 550 c 0
 209.906 550 175.971 595 187.662 650 c 0
 200.84 712 259.292 740 321.792 740 c 2
 406.792 740 l 1
 413.169 770 l 2
 420.289 803.5 398.391 827.5 355.391 827.5 c 0
 312.391 827.5 280.289 803.5 273.169 770 c 1
EndSplineSet
EndChar

StartChar: guillemotleft
Encoding: 171 171 206
Width: 600
Flags: W
VStem: 80 240 290 240
LayerCount: 6
Fore
Refer: 214 8249 N 1 0 0 1 210 0 2
Refer: 214 8249 N 1 0 0 1 0 0 2
Layer: 2
Refer: 214 8249 N 1 0 0 1 210 0 2
Refer: 214 8249 N 1 0 0 1 0 0 2
Layer: 3
Refer: 214 8249 N 1 0 0 1 210 0 2
Refer: 214 8249 N 1 0 0 1 0 0 2
Layer: 4
SplineSet
478.019 320 m 1
 579.13 90 l 1
 459.13 90 l 1
 338.019 320 l 1
 556.906 550 l 1
 676.906 550 l 1
 478.019 320 l 1
268.019 320 m 1
 369.13 90 l 1
 249.13 90 l 1
 128.019 320 l 1
 346.906 550 l 1
 466.906 550 l 1
 268.019 320 l 1
EndSplineSet
Layer: 5
SplineSet
448.019 320 m 1
 549.13 90 l 1
 479.13 90 l 1
 358.019 320 l 1
 576.906 550 l 1
 646.906 550 l 1
 448.019 320 l 1
238.019 320 m 1
 339.13 90 l 1
 269.13 90 l 1
 148.019 320 l 1
 366.906 550 l 1
 436.906 550 l 1
 238.019 320 l 1
EndSplineSet
EndChar

StartChar: logicalnot
Encoding: 172 172 996
Width: 570
VWidth: 0
Flags: W
HStem: 600 70<30 420>
VStem: 420 90<480 600>
LayerCount: 3
Fore
SplineSet
30 670 m 1
 510 670 l 1
 510 480 l 1
 420 480 l 5
 420 600 l 5
 30 600 l 1
 30 670 l 1
EndSplineSet
EndChar

StartChar: registered
Encoding: 174 174 205
Width: 940
Flags: W
HStem: -20 70<343.439 596.561> 350 60<400 495> 540 60<400 551.308> 750 70<343.439 596.561>
VStem: 50 70<273.439 526.561> 320 80<200 350 410 540> 565 75<422.815 526.522> 820 70<273.439 526.561>
LayerCount: 6
Fore
SplineSet
470 750 m 0
 277 750 120 593 120 400 c 0
 120 207 277 50 470 50 c 0
 663 50 820 207 820 400 c 0
 820 593 663 750 470 750 c 0
470 820 m 0
 702 820 890 632 890 400 c 0
 890 168 702 -20 470 -20 c 0
 238 -20 50 168 50 400 c 0
 50 632 238 820 470 820 c 0
505 600 m 2
 606 600 640 529 640 475 c 0
 640 436 622 388 575 365 c 1
 670 200 l 1
 580 200 l 1
 495 350 l 1
 400 350 l 1
 400 200 l 1
 320 200 l 1
 320 600 l 1
 505 600 l 2
485 540 m 2
 400 540 l 1
 400 410 l 1
 485 410 l 2
 546 410 565 440 565 475 c 0
 565 510 546 540 485 540 c 2
EndSplineSet
Layer: 2
SplineSet
485 525 m 2
 415 525 l 1
 415 405 l 1
 485 405 l 2
 534 405 555 430 555 465 c 0
 555 500 531 525 485 525 c 2
515 600 m 2
 606 600 655 536 655 465 c 0
 655 397 616 365 580 345 c 1
 685 200 l 1
 560 200 l 1
 475 330 l 1
 415 330 l 1
 415 200 l 1
 305 200 l 1
 305 600 l 1
 515 600 l 2
470 820 m 0
 718 820 890 632 890 400 c 0
 890 168 718 -20 470 -20 c 0
 222 -20 50 168 50 400 c 0
 50 632 222 820 470 820 c 0
470 735 m 0
 276 735 150 582 150 400 c 0
 150 218 276 65 470 65 c 0
 664 65 790 218 790 400 c 0
 790 582 664 735 470 735 c 0
EndSplineSet
Layer: 3
SplineSet
470 750 m 0
 277 750 120 593 120 400 c 0
 120 207 277 50 470 50 c 0
 663 50 820 207 820 400 c 0
 820 593 663 750 470 750 c 0
470 820 m 0
 702 820 890 632 890 400 c 0
 890 168 702 -20 470 -20 c 0
 238 -20 50 168 50 400 c 0
 50 632 238 820 470 820 c 0
505 600 m 2
 606 600 640 529 640 475 c 0
 640 436 622 388 575 365 c 1
 670 200 l 1
 580 200 l 1
 495 350 l 1
 400 350 l 1
 400 200 l 1
 320 200 l 1
 320 600 l 1
 505 600 l 2
485 540 m 2
 400 540 l 1
 400 410 l 1
 485 410 l 2
 546 410 565 440 565 475 c 0
 565 510 546 540 485 540 c 2
EndSplineSet
Layer: 4
SplineSet
626.229 735 m 0
 432.229 735 273.708 582 235.022 400 c 0
 196.337 218 289.816 65 483.816 65 c 0
 677.816 65 836.337 218 875.022 400 c 0
 913.708 582 820.229 735 626.229 735 c 0
644.297 820 m 0
 892.297 820 1024.34 632 975.022 400 c 0
 925.709 168 713.749 -20 465.749 -20 c 0
 217.749 -20 85.71 168 135.022 400 c 0
 184.336 632 396.297 820 644.297 820 c 0
642.534 600 m 2
 733.534 600 768.931 536 753.839 465 c 0
 739.385 397 693.583 365 653.332 345 c 1
 727.512 200 l 1
 602.512 200 l 1
 545.144 330 l 1
 485.144 330 l 1
 457.512 200 l 1
 347.512 200 l 1
 432.534 600 l 1
 642.534 600 l 2
596.592 525 m 2
 526.592 525 l 1
 501.085 405 l 1
 571.085 405 l 2
 620.085 405 646.399 430 653.839 465 c 0
 661.278 500 642.592 525 596.592 525 c 2
EndSplineSet
Layer: 5
SplineSet
599.78 540 m 2
 514.78 540 l 1
 487.148 410 l 1
 572.148 410 l 2
 633.148 410 658.525 440 665.965 475 c 0
 673.404 510 660.78 540 599.78 540 c 2
632.534 600 m 2
 733.534 600 752.442 529 740.965 475 c 0
 732.675 436 704.472 388 652.583 365 c 1
 712.512 200 l 1
 622.512 200 l 1
 569.395 350 l 1
 474.395 350 l 1
 442.512 200 l 1
 362.512 200 l 1
 447.534 600 l 1
 632.534 600 l 2
644.297 820 m 0
 876.297 820 1024.34 632 975.022 400 c 0
 925.709 168 697.749 -20 465.749 -20 c 0
 233.749 -20 85.71 168 135.022 400 c 0
 184.336 632 412.297 820 644.297 820 c 0
629.417 750 m 0
 436.417 750 246.046 593 205.022 400 c 0
 163.999 207 287.628 50 480.628 50 c 0
 673.628 50 863.999 207 905.022 400 c 0
 946.046 593 822.417 750 629.417 750 c 0
EndSplineSet
EndChar

StartChar: macron
Encoding: 175 175 252
Width: 560
VWidth: 0
Flags: HW
HStem: 740 60<80 480>
LayerCount: 6
Fore
SplineSet
90 800 m 1
 470 800 l 5
 470 750 l 5
 90 750 l 1
 90 800 l 1
EndSplineSet
Layer: 2
SplineSet
50 800 m 5
 510 800 l 5
 510 700 l 5
 50 700 l 5
 50 800 l 5
EndSplineSet
Layer: 3
SplineSet
80 800 m 1
 480 800 l 1
 480 740 l 5
 80 740 l 5
 80 800 l 1
EndSplineSet
Layer: 4
SplineSet
90 800 m 1
 470 800 l 5
 470 750 l 5
 90 750 l 1
 90 800 l 1
EndSplineSet
Layer: 5
SplineSet
70 800 m 1
 490 800 l 1
 490 730 l 5
 70 730 l 5
 70 800 l 1
EndSplineSet
EndChar

StartChar: degree
Encoding: 176 176 222
Width: 380
VWidth: 0
Flags: HW
HStem: 670 60<123.582 256.418> 930 60<123.582 256.418>
VStem: 30 60<763.582 896.418> 290 60<763.582 896.418>
LayerCount: 6
Fore
SplineSet
190 990 m 0
 278 990 350 918 350 830 c 0
 350 742 278 670 190 670 c 0
 102 670 30 742 30 830 c 0
 30 918 102 990 190 990 c 0
190 940 m 0
 129 940 80 891 80 830 c 0
 80 769 129 720 190 720 c 0
 251 720 300 769 300 830 c 0
 300 891 251 940 190 940 c 0
EndSplineSet
Layer: 2
SplineSet
190 990 m 4
 278 990 350 918 350 830 c 4
 350 742 278 670 190 670 c 4
 102 670 30 742 30 830 c 4
 30 918 102 990 190 990 c 4
190 910 m 4
 146 910 110 874 110 830 c 4
 110 786 146 750 190 750 c 4
 234 750 270 786 270 830 c 4
 270 874 234 910 190 910 c 4
EndSplineSet
Layer: 3
SplineSet
190 990 m 0
 278 990 350 918 350 830 c 0
 350 742 278 670 190 670 c 0
 102 670 30 742 30 830 c 0
 30 918 102 990 190 990 c 0
190 930 m 0
 135 930 90 885 90 830 c 0
 90 775 135 730 190 730 c 0
 245 730 290 775 290 830 c 0
 290 885 245 930 190 930 c 0
EndSplineSet
Layer: 4
SplineSet
190 990 m 0
 278 990 350 918 350 830 c 0
 350 742 278 670 190 670 c 0
 102 670 30 742 30 830 c 0
 30 918 102 990 190 990 c 0
190 940 m 0
 129 940 80 891 80 830 c 0
 80 769 129 720 190 720 c 0
 251 720 300 769 300 830 c 0
 300 891 251 940 190 940 c 0
EndSplineSet
Layer: 5
SplineSet
190 990 m 0
 278 990 350 918 350 830 c 0
 350 742 278 670 190 670 c 0
 102 670 30 742 30 830 c 0
 30 918 102 990 190 990 c 0
190 925 m 0
 138 925 95 882 95 830 c 0
 95 778 138 735 190 735 c 0
 242 735 285 778 285 830 c 0
 285 882 242 925 190 925 c 0
EndSplineSet
EndChar

StartChar: plusminus
Encoding: 177 177 223
Width: 560
VWidth: 0
Flags: HW
HStem: 80 70<80 480> 370 70<80 240 320 480>
VStem: 240 80<230 370 440 580>
LayerCount: 6
Fore
SplineSet
310 230 m 5xd0
 250 230 l 1
 250 380 l 1xd0
 90 380 l 1
 90 430 l 1xe0
 250 430 l 1
 250 580 l 1
 310 580 l 5
 310 430 l 5xd0
 470 430 l 1
 470 380 l 1xe0
 310 380 l 5
 310 230 l 5xd0
EndSplineSet
Refer: 157 45 N 1 0 0 1 0 -210 2
Layer: 2
SplineSet
50 140 m 5
 510 140 l 5
 510 40 l 5
 50 40 l 5
 50 140 l 5
340 200 m 5
 220 200 l 5
 220 350 l 5
 50 350 l 5
 50 450 l 5
 220 450 l 5
 220 600 l 5
 340 600 l 5
 340 450 l 5
 510 450 l 5
 510 350 l 5
 340 350 l 5
 340 200 l 5
EndSplineSet
Layer: 3
SplineSet
80 150 m 1
 480 150 l 1
 480 80 l 1
 80 80 l 1
 80 150 l 1
320 230 m 1
 240 230 l 1
 240 370 l 1
 80 370 l 1
 80 440 l 1
 240 440 l 1
 240 580 l 1
 320 580 l 1
 320 440 l 1
 480 440 l 1
 480 370 l 1
 320 370 l 1
 320 230 l 1
EndSplineSet
Layer: 4
SplineSet
310 230 m 5xd0
 250 230 l 1
 250 380 l 1xd0
 90 380 l 1
 90 430 l 1xe0
 250 430 l 1
 250 580 l 1
 310 580 l 5
 310 430 l 5xd0
 470 430 l 1
 470 380 l 1xe0
 310 380 l 5
 310 230 l 5xd0
EndSplineSet
Refer: 157 45 N 1 0 0 1 0 -210 2
Layer: 5
SplineSet
80 150 m 1
 480 150 l 1
 480 80 l 1
 80 80 l 1
 80 150 l 1
320 220 m 1
 240 220 l 1
 240 365 l 5
 70 365 l 5
 70 445 l 1
 240 445 l 1
 240 590 l 1
 320 590 l 1
 320 445 l 1
 490 445 l 1
 490 365 l 5
 320 365 l 5
 320 220 l 1
EndSplineSet
EndChar

StartChar: acute
Encoding: 180 180 208
Width: 300
VWidth: 0
Flags: W
HStem: 560 240
VStem: 40 220
LayerCount: 3
Fore
Refer: 191 96 S -1 0 0 1 300 0 2
Validated: 25
Layer: 2
SplineSet
240 960 m 1
 100 780 l 1
 -20 780 l 1
 100 960 l 1
 240 960 l 1
EndSplineSet
EndChar

StartChar: uni00B5
Encoding: 181 181 250
Width: 680
VWidth: 0
Flags: W
HStem: -20 20G<100 200> -20 90<297.482 463.61> 0 20<100 200> 579 21<100 200 500 600>
VStem: 100 100<-270 0 0 102 154.806 600> 500 100<106.61 600>
LayerCount: 6
Fore
SplineSet
100 0 m 1x9c
 200 0 l 5
 200 -270 l 5
 100 -270 l 1
 100 0 l 1x9c
EndSplineSet
Refer: 139 110 N 1 0 0 -1 10 600 2
Layer: 2
SplineSet
230 -270 m 1x9c
 70 -270 l 1
 70 0 l 1
 230 0 l 1
 230 -270 l 1x9c
EndSplineSet
Refer: 139 110 S 1 0 0 -1 10 600 2
Layer: 3
SplineSet
100 0 m 1x9c
 200 0 l 5
 200 -270 l 5
 100 -270 l 1
 100 0 l 1x9c
EndSplineSet
Refer: 139 110 N 1 0 0 -1 10 600 2
Layer: 4
SplineSet
172.609 -270 m 1
 12.6094 -270 l 1
 70 0 l 1
 230 0 l 1
 172.609 -270 l 1
70 0 m 1
 230 0 l 1
 247.217 81 l 1
 276.439 35 328.749 -20 415.749 -20 c 0
 539.749 -20 642.541 59 670.386 190 c 2
 757.534 600 l 1
 597.534 600 l 1
 510.386 190 l 2
 497.207 128 443.256 100 381.256 100 c 0
 319.256 100 284.058 132 266.984 174 c 1
 357.534 600 l 1
 197.534 600 l 1
 70 0 l 1
EndSplineSet
Layer: 5
SplineSet
200 0 m 1
 142.609 -270 l 1
 42.6094 -270 l 1
 100 0 l 1
 200 0 l 1
200 0 m 1
 221.681 102 l 1
 237.179 62 281.749 -20 395.749 -20 c 0
 517.749 -20 612.328 58 638.26 180 c 2
 727.534 600 l 1
 627.534 600 l 1
 538.26 180 l 2
 522.318 105 462.879 70 394.879 70 c 0
 294.879 70 252.183 142 243.787 206 c 1
 327.534 600 l 1
 227.534 600 l 1
 100 0 l 1
 200 0 l 1
EndSplineSet
EndChar

StartChar: paragraph
Encoding: 182 182 251
Width: 740
VWidth: 0
Flags: W
HStem: 0 21G<320 390 560 630> 320 60<225.26 320> 740 60<224.397 320 390 560>
VStem: 70 70<461.664 658.928> 320 70<0 320 380 740> 560 70<0 740>
LayerCount: 5
Fore
SplineSet
390 740 m 1
 390 0 l 1
 320 0 l 1
 320 320 l 1
 127 324 70 453 70 560 c 0
 70 668 129 800 330 800 c 2
 630 800 l 1
 630 0 l 1
 560 0 l 1
 560 740 l 1
 390 740 l 1
320 380 m 1
 320 740 l 1
 203 736 140 659 140 560 c 0
 140 461 203 384 320 380 c 1
EndSplineSet
Layer: 2
SplineSet
430 680 m 1
 430 0 l 1
 270 0 l 1
 270 301 l 1
 92 315 30 447 30 550 c 0
 30 658 99 800 300 800 c 2
 670 800 l 1
 670 0 l 1
 510 0 l 1
 510 680 l 1
 430 680 l 1
270 431 m 1
 270 669 l 1
 210 648 190 602 190 550 c 0
 190 498 210 452 270 431 c 1
EndSplineSet
Layer: 3
SplineSet
420 715 m 1
 420 0 l 1
 320 0 l 1
 320 320 l 1
 119 320 60 452 60 560 c 0
 60 668 119 800 320 800 c 2
 640 800 l 1
 640 0 l 1
 540 0 l 1
 540 715 l 1
 420 715 l 1
320 405 m 1
 320 715 l 1
 197 715 160 631 160 560 c 0
 160 489 197 405 320 405 c 1
EndSplineSet
Layer: 4
SplineSet
390 740 m 1
 390 0 l 1
 320 0 l 1
 320 320 l 1
 127 324 70 453 70 560 c 0
 70 668 129 800 330 800 c 2
 630 800 l 1
 630 0 l 1
 560 0 l 1
 560 740 l 1
 390 740 l 1
320 380 m 1
 320 740 l 1
 203 736 140 659 140 560 c 0
 140 461 203 384 320 380 c 1
EndSplineSet
EndChar

StartChar: uni00B9
Encoding: 185 185 227
Width: 270
Flags: W
HStem: 812.5 47.5<20 78.5775> 940 10<150 200>
VStem: 150 50<550 865 916.109 950>
LayerCount: 3
Fore
Refer: 173 49 N 0.5 0 0 0.5 -30 549 2
Layer: 2
SplineSet
140 1020 m 1
 234 1020 l 1
 234 590 l 1
 147 590 l 1
 147 922 l 1
 118 881 84 875 30 875 c 1
 30 930 l 1
 88 930 140 973 140 1020 c 1
EndSplineSet
EndChar

StartChar: onequarter
Encoding: 188 188 254
Width: 780
VWidth: 0
Flags: W
HStem: 0 10.5<635 685> 0 21<70 154.25> 75 45<515 635 685 725> 390 10<628.929 685> 399 10.5<185 235> 661.5 47.5<55 113.578> 780 20<625.75 710> 789 10<185 235>
VStem: 185 50<399 714 765.109 799> 635 50<0 75 120 315>
LayerCount: 6
Fore
Refer: 261 824 S 1 0 0 1 800 0 2
Refer: 176 52 N 0.5 0 0 0.5 430 0 2
Refer: 173 49 N 0.5 0 0 0.5 0 399 2
Layer: 2
Refer: 261 824 S 1 0 0 1 800 0 2
Refer: 176 52 N 0.5 0 0 0.5 430 0 2
Refer: 173 49 N 0.5 0 0 0.5 0 399 2
Layer: 3
Refer: 261 824 S 1 0 0 1 800 0 2
Refer: 176 52 N 0.5 0 0 0.5 430 0 2
Refer: 173 49 N 0.5 0 0 0.5 0 399 2
Layer: 4
SplineSet
810.045 800 m 1
 910.045 800 l 1
 140 0 l 1
 40 0 l 1
 810.045 800 l 1
477.101 127.5 m 1
 705.022 400 l 1
 785.022 400 l 1
 727.101 127.5 l 1
 767.101 127.5 l 1
 754.348 67.5 l 1
 714.348 67.5 l 1
 700 0 l 1
 620 0 l 1
 634.348 67.5 l 1
 464.348 67.5 l 1
 477.101 127.5 l 1
552.101 127.5 m 1
 647.101 127.5 l 1
 681.642 290 l 1
 552.101 127.5 l 1
318.577 699 m 1
 291.382 667.5 226.918 646.5 177.418 646.5 c 1
 190.702 709 l 1
 248.702 709 329.843 752 339.833 799 c 1
 419.833 799 l 1
 334.811 399 l 1
 254.811 399 l 1
 318.577 699 l 1
EndSplineSet
Layer: 5
SplineSet
810.045 800 m 1
 880.045 800 l 1
 140 0 l 1
 70 0 l 1
 810.045 800 l 1
490.507 120 m 1
 720.022 400 l 1
 770.022 400 l 1
 710.507 120 l 1
 750.507 120 l 1
 740.941 75 l 1
 700.941 75 l 1
 685 0 l 1
 635 0 l 1
 650.941 75 l 1
 480.941 75 l 1
 490.507 120 l 1
540.507 120 m 1
 660.507 120 l 1
 701.955 315 l 1
 540.507 120 l 1
336.766 714 m 1
 309.57 682.5 245.106 661.5 195.606 661.5 c 1
 205.702 709 l 1
 263.702 709 344.843 752 354.833 799 c 1
 404.833 799 l 1
 319.811 399 l 1
 269.811 399 l 1
 336.766 714 l 1
EndSplineSet
EndChar

StartChar: Acircumflex
Encoding: 194 194 276
Width: 800
VWidth: 0
HStem: 0 21<30 147.758 652.242 770> 165 90<239 561> 780 20<342 458> 890 160
AnchorPoint: "hook_above" 823.615 1020 basechar 0
AnchorPoint: "diac_top" 859.123 1080 basechar 0
LayerCount: 6
Fore
Refer: 313 770 N 1 0 0 1 800 0 2
Refer: 128 65 N 1 0 0 1 0 0 3
Layer: 2
Refer: 313 770 N 1 0 0 1 800 0 2
Refer: 128 65 N 1 0 0 1 0 0 3
Layer: 3
Refer: 313 770 N 1 0 0 1 800 0 2
Refer: 128 65 N 1 0 0 1 0 0 3
Layer: 4
SplineSet
497.05 880 m 1
 347.05 880 l 1
 565.31 1060 l 1
 585.31 1060 l 1
 665.31 1060 l 1
 685.31 1060 l 1
 827.05 880 l 1
 677.05 880 l 1
 613.619 1005 l 1
 497.05 880 l 1
581.391 270 m 1
 527.534 600 l 1
 333.391 270 l 1
 581.391 270 l 1
800 0 m 1
 625 0 l 1
 600.884 150 l 1
 262.884 150 l 1
 175 0 l 1
 0 0 l 1
 490.045 800 l 1
 495.045 800 l 1
 645.045 800 l 1
 650.045 800 l 1
 800 0 l 1
EndSplineSet
Layer: 5
SplineSet
489.176 890 m 1
 379.176 890 l 1
 588.185 1050 l 1
 658.185 1050 l 1
 799.176 890 l 1
 689.176 890 l 1
 614.47 1009 l 1
 489.176 890 l 1
615.202 255 m 1
 542.625 671 l 1
 293.202 255 l 1
 615.202 255 l 1
770 0 m 1
 660 0 l 1
 631.072 165 l 1
 239.072 165 l 1
 140 0 l 1
 30 0 l 1
 520.045 800 l 1
 620.045 800 l 1
 770 0 l 1
EndSplineSet
EndChar

StartChar: Edieresis
Encoding: 203 203 265
Width: 670
VWidth: 0
HStem: 0 90<200 600> 355 90<200 560> 710 90<200 590> 920 140<165.875 274.125 425.875 534.125>
VStem: 100 100<90 355 445 710> 150 140<935.875 1044.13> 410 140<935.875 1044.13>
AnchorPoint: "diac_top" 809.123 1080 basechar 0
AnchorPoint: "diac_bottom" 328.744 -50 basechar 0
LayerCount: 6
Fore
Refer: 319 776 N 1 0 0 1 750 0 2
Refer: 116 69 N 1 0 0 1 0 0 3
Layer: 2
Refer: 319 776 N 1 0 0 1 750 0 2
Refer: 116 69 N 1 0 0 1 0 0 3
Layer: 3
Refer: 319 776 N 1 0 0 1 750 0 2
Refer: 116 69 N 1 0 0 1 0 0 3
Layer: 4
SplineSet
796.18 970 m 0
 785.552 920 737.05 880 687.05 880 c 0
 637.05 880 605.552 920 616.18 970 c 0
 626.808 1020 675.31 1060 725.31 1060 c 0
 775.31 1060 806.808 1020 796.18 970 c 0
496.18 970 m 0
 485.552 920 437.05 880 387.05 880 c 0
 337.05 880 305.552 920 316.18 970 c 0
 326.808 1020 375.31 1060 425.31 1060 c 0
 475.31 1060 506.808 1020 496.18 970 c 0
255.507 120 m 1
 655.507 120 l 1
 630 0 l 1
 230 0 l 1
 70 0 l 1
 95.5068 120 l 1
 142.27 340 l 1
 167.776 460 l 1
 214.538 680 l 1
 240.045 800 l 1
 400.045 800 l 1
 790.045 800 l 1
 764.538 680 l 1
 374.538 680 l 1
 327.776 460 l 1
 687.776 460 l 1
 662.27 340 l 1
 302.27 340 l 1
 255.507 120 l 1
EndSplineSet
Layer: 5
SplineSet
760.431 990 m 0
 752.142 951 714.552 920 675.552 920 c 0
 636.552 920 612.142 951 620.431 990 c 0
 628.721 1029 666.31 1060 705.31 1060 c 0
 744.31 1060 768.721 1029 760.431 990 c 0
500.431 990 m 0
 492.142 951 454.552 920 415.552 920 c 0
 376.552 920 352.142 951 360.431 990 c 0
 368.721 1029 406.31 1060 445.31 1060 c 0
 484.31 1060 508.721 1029 500.431 990 c 0
219.13 90 m 1
 619.13 90 l 1
 600 0 l 1
 200 0 l 1
 100 0 l 1
 119.13 90 l 1
 175.458 355 l 1
 194.588 445 l 1
 250.915 710 l 1
 270.045 800 l 1
 370.045 800 l 1
 760.045 800 l 1
 740.915 710 l 1
 350.915 710 l 1
 294.588 445 l 1
 654.588 445 l 1
 635.458 355 l 1
 275.458 355 l 1
 219.13 90 l 1
EndSplineSet
EndChar

StartChar: Ntilde
Encoding: 209 209 282
Width: 800
VWidth: 0
HStem: 0 21<100 200 587.302 700> 780 20<100 212.698 600 700> 890 60<440.498 542.407> 970 60<277.593 379.502>
VStem: 100 100<0 630> 210 45<907.2 941.34> 565 45<978.66 1012.8> 600 100<170 800>
AnchorPoint: "diac_top" 859.123 1080 basechar 0
LayerCount: 6
Fore
Refer: 314 771 N 1 0 0 1 810 0 2
Refer: 121 78 N 1 0 0 1 0 0 3
Layer: 2
Refer: 314 771 N 1 0 0 1 810 0 2
Refer: 121 78 N 1 0 0 1 0 0 3
Layer: 3
Refer: 314 771 N 1 0 0 1 810 0 2
Refer: 121 78 N 1 0 0 1 0 0 3
Layer: 4
SplineSet
548.185 1050 m 0
 589.185 1050 622.847 1039 648.619 1005 c 0
 672.03 974 680.055 960 714.055 960 c 0
 754.055 960 784.194 1003 793.934 1030 c 1
 856.808 1020 l 1
 830.44 943 765.924 870 679.924 870 c 0
 638.924 870 605.263 881 579.489 915 c 0
 556.078 946 548.055 960 514.055 960 c 0
 474.055 960 443.914 917 434.176 890 c 1
 371.301 900 l 1
 397.668 977 462.185 1050 548.185 1050 c 0
230 0 m 1
 70 0 l 1
 240.045 800 l 1
 400.045 800 l 1
 621.014 240 l 1
 740.045 800 l 1
 900.045 800 l 1
 730 0 l 1
 570 0 l 1
 349.031 560 l 1
 230 0 l 1
EndSplineSet
Layer: 5
SplineSet
548.934 1030 m 0
 587.934 1030 609.17 1017 631.494 995 c 0
 649.668 977 659.929 950 691.929 950 c 0
 733.929 950 763.155 984 782.87 1025 c 1
 824.682 1010 l 1
 801.504 948 750.176 890 679.176 890 c 0
 640.176 890 618.938 903 596.615 925 c 0
 578.44 943 568.18 970 536.18 970 c 0
 494.18 970 464.953 936 445.238 895 c 1
 403.427 910 l 1
 426.605 972 477.934 1030 548.934 1030 c 0
200 0 m 1
 100 0 l 1
 270.045 800 l 1
 370.045 800 l 1
 636.135 170 l 1
 770.045 800 l 1
 870.045 800 l 1
 700 0 l 1
 600 0 l 1
 333.91 630 l 1
 200 0 l 1
EndSplineSet
EndChar

StartChar: multiply
Encoding: 215 215 240
Width: 560
VWidth: 0
Flags: W
HStem: 133 375
VStem: 92 375
LayerCount: 6
Fore
SplineSet
467 183 m 1
 417 133 l 1
 279 271 l 1
 141 133 l 1
 92 183 l 1
 230 321 l 1
 92 459 l 1
 141 508 l 1
 279 370 l 1
 417 508 l 1
 467 459 l 1
 329 321 l 1
 467 183 l 1
EndSplineSet
Layer: 2
SplineSet
46 475 m 1
 124 553 l 1
 279 397 l 1
 435 553 l 1
 513 475 l 1
 357 320 l 1
 513 164 l 1
 435 86 l 1
 279 242 l 1
 124 86 l 1
 46 164 l 1
 202 320 l 1
 46 475 l 1
EndSplineSet
Layer: 3
SplineSet
467 183 m 1
 417 133 l 1
 279 271 l 1
 141 133 l 1
 92 183 l 1
 230 321 l 1
 92 459 l 1
 141 508 l 1
 279 370 l 1
 417 508 l 1
 467 459 l 1
 329 321 l 1
 467 183 l 1
EndSplineSet
Layer: 4
SplineSet
146.965 475 m 1
 241.544 553 l 1
 363.385 397 l 1
 552.544 553 l 1
 613.965 475 l 1
 425.019 320 l 1
 547.859 164 l 1
 453.28 86 l 1
 330.438 242 l 1
 142.28 86 l 1
 80.8594 164 l 1
 270.019 320 l 1
 146.965 475 l 1
EndSplineSet
Layer: 5
SplineSet
505.897 183 m 1
 445.27 133 l 1
 336.603 271 l 1
 169.27 133 l 1
 130.897 183 l 1
 298.23 321 l 1
 189.563 459 l 1
 248.979 508 l 1
 357.646 370 l 1
 524.979 508 l 1
 564.563 459 l 1
 397.23 321 l 1
 505.897 183 l 1
EndSplineSet
EndChar

StartChar: Thorn
Encoding: 222 222 469
Width: 680
VWidth: 0
Flags: W
HStem: 0 21G<70 170> 180 85<170 488.348> 575 85<170 488.348> 780 20G<70 170>
VStem: 70 100<0 180 265 575 660 800> 550 100<327.06 512.94>
LayerCount: 3
Fore
SplineSet
390 575 m 2
 170 575 l 1
 170 265 l 1
 390 265 l 2
 513 265 550 349 550 420 c 0
 550 491 513 575 390 575 c 2
390 660 m 2
 591 660 650 528 650 420 c 0
 650 312 591 180 390 180 c 2
 170 180 l 1
 170 0 l 1
 70 0 l 1
 70 800 l 1
 170 800 l 1
 170 660 l 5
 390 660 l 2
EndSplineSet
EndChar

StartChar: germandbls
Encoding: 223 223 243
Width: 810
VWidth: 0
Flags: W
HStem: -270 60<270 535.484> 0 21<110 180> 540 60<170.5 270.5 270 600> 840 60<218.503 310>
VStem: 110 70<0 801.811> 170.5 100<540 600> 660 70<-86.7034 138.27>
LayerCount: 5
Fore
SplineSet
170.5 600 m 1xf6
 270.5 600 l 1
 270.5 540 l 1
 170.5 540 l 1
 170.5 600 l 1xf6
EndSplineSet
Refer: 358 658 N 1 0 0 1 200 0 2
Refer: 345 383 N 1 0 0 1 -10 0 2
Layer: 2
SplineSet
70 690 m 2
 70 822 155 900 360 900 c 1
 360 780 l 1
 271 780 230 751 230 690 c 2
 230 600 l 1
 710 600 l 1
 710 480 l 1
 547 334 l 1
 682 296 770 188 770 40 c 0
 770 -148 629 -270 430 -270 c 2
 230 -270 l 1
 230 -150 l 1
 430 -150 l 2
 540 -150 610 -70 610 40 c 0
 610 150 540 230 430 230 c 2
 330 230 l 1
 330 280 l 1
 570 480 l 1
 230 480 l 1
 230 0 l 1
 70 0 l 1
 70 690 l 2
EndSplineSet
Layer: 3
SplineSet
330 900 m 1
 330 810 l 1
 269 810 200 788 200 710 c 2
 200 600 l 1
 680 600 l 1
 680 520 l 1
 509 342 l 1
 643 314 740 212 740 40 c 0
 740 -164 603 -270 430 -270 c 2
 260 -270 l 1
 260 -180 l 1
 430 -180 l 2
 526 -180 640 -128 640 40 c 0
 640 208 526 260 430 260 c 2
 370 260 l 1
 370 310 l 1
 580 520 l 1
 200 520 l 1
 200 0 l 1
 100 0 l 1
 100 710 l 2
 100 827 183 900 330 900 c 1
EndSplineSet
Layer: 4
SplineSet
170.5 600 m 1xf6
 270.5 600 l 1
 270.5 540 l 1
 170.5 540 l 1
 170.5 600 l 1xf6
EndSplineSet
Refer: 358 658 N 1 0 0 1 200 0 2
Refer: 345 383 N 1 0 0 1 -10 0 2
EndChar

StartChar: acircumflex
Encoding: 226 226 293
Width: 700
VWidth: 0
HStem: -20 90<225.691 405.827> -10 90<588.39 630> 290 70<221.5 480> 535 85<247.928 432.072> 690 160
VStem: 80 100<114.164 248.997> 100 100<420 488.613> 480 100<129.206 290 360 488.613>
AnchorPoint: "diac_bottom" 328.744 -50 basechar 0
AnchorPoint: "diac_top" 724.1 880 basechar 0
LayerCount: 6
Fore
Refer: 313 770 N 1 0 0 1 740 -200 2
Refer: 142 97 N 1 0 0 1 0 0 3
Layer: 2
Refer: 313 770 N 1 0 0 1 740 -200 2
Refer: 142 97 N 1 0 0 1 0 0 3
Layer: 3
Refer: 313 770 N 1 0 0 1 740 -200 2
Refer: 142 97 N 1 0 0 1 0 0 3
Layer: 4
SplineSet
394.538 680 m 1
 244.538 680 l 1
 462.799 860 l 1
 482.799 860 l 1
 562.799 860 l 1
 582.799 860 l 1
 724.538 680 l 1
 574.538 680 l 1
 511.108 805 l 1
 394.538 680 l 1
507.391 270 m 1
 367.391 270 l 2
 301.391 270 260.376 237 249.323 185 c 0
 240.82 145 262.256 100 341.256 100 c 0
 397.256 100 450.145 123 485.072 165 c 1
 507.391 270 l 1
317.148 410 m 1
 157.148 410 l 1
 184.143 537 312.785 620 471.785 620 c 0
 630.785 620 724.143 537 697.148 410 c 2
 648.26 180 l 2
 636.782 126 646.381 110 683.381 110 c 1
 657.874 -10 l 1
 561.874 -10 504.275 6 482.777 46 c 1
 430.275 6 363.749 -20 285.749 -20 c 0
 135.749 -20 65.9414 75 89.3232 185 c 0
 117.168 316 246.521 360 376.521 360 c 2
 526.521 360 l 1
 537.148 410 l 2
 552.452 482 495.278 500 446.278 500 c 0
 397.278 500 332.452 482 317.148 410 c 1
EndSplineSet
Layer: 5
SplineSet
386.664 690 m 1
 276.664 690 l 1
 485.673 850 l 1
 555.673 850 l 1
 696.664 690 l 1
 586.664 690 l 1
 511.958 809 l 1
 386.664 690 l 1
541.642 290 m 1
 381.642 290 l 2
 305.642 290 234.627 257 218.26 180 c 0
 203.381 110 258.879 70 334.879 70 c 0
 416.879 70 481.594 111 517.197 175 c 1
 541.642 290 l 1
289.273 420 m 1
 189.273 420 l 1
 215.206 542 330.785 620 471.785 620 c 0
 612.785 620 695.206 542 669.273 420 c 2
 611.884 150 l 2
 600.405 96 610.005 80 647.005 80 c 1
 627.874 -10 l 1
 548.874 -10 501.401 16 498.879 70 c 1
 444.613 17 373.749 -20 295.749 -20 c 0
 162.749 -20 94.8789 70 118.26 180 c 0
 144.617 304 261.521 360 386.521 360 c 2
 556.521 360 l 1
 569.273 420 l 2
 583.515 487 539.718 535 453.718 535 c 0
 367.718 535 303.515 487 289.273 420 c 1
EndSplineSet
EndChar

StartChar: ae
Encoding: 230 230 237
Width: 1060
VWidth: 0
Flags: W
HStem: -20 60<216.104 413.05 625.101 832.757> 290 50<205.74 490 560 900> 560 60<235.048 436.458 633.454 825.724>
VStem: 90 70<92.3745 248.184> 110 70<420 507.268> 490 70<117.412 290 340 479.971> 900 70<106.35 200 340 477.488>
AnchorPoint: "diac_bottom" 498.744 -50 basechar 0
AnchorPoint: "diac_top" 796.324 650 basechar 0
LayerCount: 5
Fore
SplineSet
490 420 m 2xf6
 490 487 460 560 335 560 c 0
 210 560 180 487 180 420 c 1
 110 420 l 1xee
 110 542 196 620 335 620 c 0
 429 620 499 584 534 524 c 1
 576 587 646 620 730 620 c 0
 869 620 970 528 970 360 c 2
 970 290 l 1
 560 290 l 1
 560 200 l 2
 560 101 617 40 730 40 c 0
 843 40 900 101 900 200 c 1
 970 200 l 1
 970 47 858 -20 730 -20 c 0
 641 -20 559 13 518 84 c 1
 480 23 411 -20 305 -20 c 0
 164 -20 90 60 90 170 c 0
 90 282 170 340 295 340 c 2
 490 340 l 1
 490 360 l 1
 490 420 l 2xf6
900 360 m 2
 900 489 840 560 730 560 c 0
 620 560 560 489 560 360 c 2
 560 340 l 1
 900 340 l 1
 900 360 l 2
160 170 m 0xf6
 160 95 213 40 315 40 c 0
 421 40 490 108 490 220 c 2
 490 290 l 1
 305 290 l 2
 208 290 160 247 160 170 c 0xf6
EndSplineSet
Layer: 2
SplineSet
340 620 m 0
 423 620 493 597 541 557 c 1
 587 595 649 620 730 620 c 0
 920 620 1010 482 1010 360 c 2
 1010 270 l 1
 610 270 l 1
 610 200 l 2
 610 149 652 100 730 100 c 0
 808 100 850 149 850 200 c 1
 1010 200 l 1
 1010 89 909 -20 730 -20 c 0
 635 -20 562 11 514 56 c 1
 466 11 393 -20 290 -20 c 0
 140 -20 50 75 50 185 c 0
 50 316 170 360 300 360 c 2
 450 360 l 1
 450 410 l 2
 450 482 389 500 340 500 c 0
 291 500 230 482 230 410 c 1
 70 410 l 1
 70 537 181 620 340 620 c 0
730 500 m 0
 641 500 610 443 610 360 c 1
 850 360 l 1
 850 443 819 500 730 500 c 0
310 270 m 2
 244 270 210 237 210 185 c 0
 210 145 241 100 320 100 c 0
 376 100 424 123 450 164 c 1
 450 200 l 1
 450 270 l 1
 310 270 l 2
EndSplineSet
Layer: 3
SplineSet
730 620 m 0xee
 874 620 980 528 980 360 c 2
 980 290 l 1
 580 290 l 1
 580 200 l 2
 580 101 658 70 730 70 c 0
 802 70 880 101 880 200 c 1
 980 200 l 1
 980 47 858 -20 730 -20 c 0
 646 -20 564 9 518 73 c 1
 477 20 409 -20 300 -20 c 0
 167 -20 80 70 80 180 c 0xf6
 80 304 185 360 310 360 c 2
 480 360 l 1
 480 420 l 2
 480 487 426 535 340 535 c 0
 254 535 200 487 200 420 c 1
 100 420 l 1
 100 542 199 620 340 620 c 0
 426 620 497 591 539 540 c 1
 584 592 651 620 730 620 c 0xee
480 200 m 1
 480 290 l 1
 320 290 l 2
 244 290 180 257 180 180 c 0
 180 110 244 70 320 70 c 0
 402 70 458 111 480 175 c 1
 480 200 l 1
580 360 m 1
 880 360 l 1
 880 489 815 535 730 535 c 0
 645 535 580 489 580 360 c 1
EndSplineSet
Layer: 4
SplineSet
490 420 m 2xf6
 490 487 460 560 335 560 c 0
 210 560 180 487 180 420 c 1
 110 420 l 1xee
 110 542 196 620 335 620 c 0
 429 620 499 584 534 524 c 1
 576 587 646 620 730 620 c 0
 869 620 970 528 970 360 c 2
 970 290 l 1
 560 290 l 1
 560 200 l 2
 560 101 617 40 730 40 c 0
 843 40 900 101 900 200 c 1
 970 200 l 1
 970 47 858 -20 730 -20 c 0
 641 -20 559 13 518 84 c 1
 480 23 411 -20 305 -20 c 0
 164 -20 90 60 90 170 c 0
 90 282 170 340 295 340 c 2
 490 340 l 1
 490 360 l 1
 490 420 l 2xf6
900 360 m 2
 900 489 840 560 730 560 c 0
 620 560 560 489 560 360 c 2
 560 340 l 1
 900 340 l 1
 900 360 l 2
160 170 m 0xf6
 160 95 213 40 315 40 c 0
 421 40 490 108 490 220 c 2
 490 290 l 1
 305 290 l 2
 208 290 160 247 160 170 c 0xf6
EndSplineSet
EndChar

StartChar: egrave
Encoding: 232 232 295
Width: 680
VWidth: 0
HStem: -20 90<237.817 442.183> 290 70<180 500> 535 85<245.106 434.894> 690 160
VStem: 80 100<123.204 290 360 465.395> 140 300 500 100<123.204 200 360 465.395>
LayerCount: 6
Fore
Refer: 312 768 N 1 0 0 1 730 -200 2
Refer: 144 101 N 1 0 0 1 0 0 3
Layer: 2
Refer: 312 768 N 1 0 0 1 730 -200 2
Refer: 144 101 N 1 0 0 1 0 0 3
Layer: 3
Refer: 312 768 N 1 0 0 1 730 -200 2
Refer: 144 101 N 1 0 0 1 0 0 3
Layer: 4
SplineSet
292.799 860 m 1
 482.799 860 l 1
 614.538 680 l 1
 504.538 680 l 1
 292.799 860 l 1
706.521 360 m 2
 687.391 270 l 1
 267.391 270 l 1
 252.512 200 l 2
 241.671 149 283.256 100 361.256 100 c 0
 439.256 100 501.671 149 512.512 200 c 1
 672.512 200 l 1
 648.918 89 514.749 -20 335.749 -20 c 0
 156.749 -20 68.918 89 92.5117 200 c 2
 126.521 360 l 2
 152.452 482 281.785 620 471.785 620 c 0
 661.785 620 732.452 482 706.521 360 c 2
546.521 360 m 1
 564.162 443 535.278 500 446.278 500 c 0
 357.278 500 304.162 443 286.521 360 c 1
 546.521 360 l 1
EndSplineSet
Layer: 5
SplineSet
320.673 850 m 1
 450.673 850 l 1
 586.664 690 l 1
 521.664 690 l 1
 320.673 850 l 1
676.521 360 m 2
 661.642 290 l 1
 241.642 290 l 1
 222.512 200 l 2
 201.468 101 282.879 70 354.879 70 c 0
 426.879 70 521.468 101 542.512 200 c 1
 642.512 200 l 1
 609.99 47 463.749 -20 335.749 -20 c 0
 207.749 -20 89.9902 47 122.512 200 c 2
 156.521 360 l 2
 192.229 528 327.785 620 471.785 620 c 0
 615.785 620 712.229 528 676.521 360 c 2
576.521 360 m 1
 603.94 489 538.718 535 453.718 535 c 0
 368.718 535 283.94 489 256.521 360 c 1
 576.521 360 l 1
EndSplineSet
EndChar

StartChar: edieresis
Encoding: 235 235 269
Width: 680
VWidth: 0
HStem: -20 90<237.817 442.183> 290 70<180 500> 535 85<245.106 434.894> 720 140<155.875 264.125 415.875 524.125>
VStem: 80 100<123.204 290 360 465.395> 140 140<735.875 844.125> 400 140<735.875 844.125> 500 100<123.204 200 360 465.395>
LayerCount: 6
Fore
Refer: 319 776 N 1 0 0 1 740 -200 2
Refer: 144 101 N 1 0 0 1 0 0 3
Layer: 2
Refer: 319 776 N 1 0 0 1 740 -200 2
Refer: 144 101 N 1 0 0 1 0 0 3
Layer: 3
Refer: 319 776 N 1 0 0 1 740 -200 2
Refer: 144 101 N 1 0 0 1 0 0 3
Layer: 4
SplineSet
743.669 770 m 0
 733.041 720 684.538 680 634.538 680 c 0
 584.538 680 553.041 720 563.669 770 c 0
 574.297 820 622.799 860 672.799 860 c 0
 722.799 860 754.297 820 743.669 770 c 0
443.669 770 m 0
 433.041 720 384.538 680 334.538 680 c 0
 284.538 680 253.041 720 263.669 770 c 0
 274.297 820 322.799 860 372.799 860 c 0
 422.799 860 454.297 820 443.669 770 c 0
706.521 360 m 2
 687.391 270 l 1
 267.391 270 l 1
 252.512 200 l 2
 241.671 149 283.256 100 361.256 100 c 0
 439.256 100 501.671 149 512.512 200 c 1
 672.512 200 l 1
 648.918 89 514.749 -20 335.749 -20 c 0
 156.749 -20 68.918 89 92.5117 200 c 2
 126.521 360 l 2
 152.452 482 281.785 620 471.785 620 c 0
 661.785 620 732.452 482 706.521 360 c 2
546.521 360 m 1
 564.162 443 535.278 500 446.278 500 c 0
 357.278 500 304.162 443 286.521 360 c 1
 546.521 360 l 1
EndSplineSet
Layer: 5
SplineSet
707.92 790 m 0
 699.63 751 662.041 720 623.041 720 c 0
 584.041 720 559.63 751 567.92 790 c 0
 576.209 829 613.799 860 652.799 860 c 0
 691.799 860 716.209 829 707.92 790 c 0
447.92 790 m 0
 439.63 751 402.041 720 363.041 720 c 0
 324.041 720 299.63 751 307.92 790 c 0
 316.209 829 353.799 860 392.799 860 c 0
 431.799 860 456.209 829 447.92 790 c 0
676.521 360 m 2
 661.642 290 l 1
 241.642 290 l 1
 222.512 200 l 2
 201.468 101 282.879 70 354.879 70 c 0
 426.879 70 521.468 101 542.512 200 c 1
 642.512 200 l 1
 609.99 47 463.749 -20 335.749 -20 c 0
 207.749 -20 89.9902 47 122.512 200 c 2
 156.521 360 l 2
 192.229 528 327.785 620 471.785 620 c 0
 615.785 620 712.229 528 676.521 360 c 2
576.521 360 m 1
 603.94 489 538.718 535 453.718 535 c 0
 368.718 535 283.94 489 256.521 360 c 1
 576.521 360 l 1
EndSplineSet
EndChar

StartChar: igrave
Encoding: 236 236 273
Width: 320
VWidth: 0
HStem: 0 21<110 210> 580 20<110 210> 690 160
VStem: -40 300 110 100<0 600>
LayerCount: 6
Fore
Refer: 312 768 N 1 0 0 1 550 -200 2
Refer: 235 305 N 1 0 0 1 0 0 3
Layer: 2
Refer: 312 768 N 1 0 0 1 550 -200 2
Refer: 235 305 N 1 0 0 1 0 0 3
Layer: 3
Refer: 312 768 N 1 0 0 1 550 -200 2
Refer: 235 305 N 1 0 0 1 0 0 3
Layer: 4
SplineSet
112.799 860 m 1
 302.799 860 l 1
 434.538 680 l 1
 324.538 680 l 1
 112.799 860 l 1
207.534 600 m 1
 367.534 600 l 1
 240 0 l 1
 80 0 l 1
 207.534 600 l 1
EndSplineSet
Layer: 5
SplineSet
140.673 850 m 1
 270.673 850 l 1
 406.664 690 l 1
 341.664 690 l 1
 140.673 850 l 1
237.534 600 m 1
 337.534 600 l 1
 210 0 l 1
 110 0 l 1
 237.534 600 l 1
EndSplineSet
EndChar

StartChar: eth
Encoding: 240 240 504
Width: 640
VWidth: 0
Flags: W
HStem: -21 90<222.06 417.94> 534 85<225.106 415.502>
VStem: 60 100<130.241 464.395> 480 100<130.241 466.261>
LayerCount: 3
Fore
SplineSet
320 534 m 0
 235 534 160 488 160 359 c 2
 160 219 l 2
 160 110 235 69 320 69 c 0
 405 69 480 110 480 219 c 2
 480 359 l 1
 478 359 l 1
 478 395 l 1
 465 497 397 534 320 534 c 0
274 861 m 1
 344 931 l 1
 418 857 l 1
 496 935 l 1
 546 886 l 1
 468 808 l 1
 465 805 l 1
 554 709 578 628 578 509 c 2
 578 397 l 1
 579 385 580 372 580 359 c 2
 580 219 l 2
 580 56 464 -21 320 -21 c 0
 176 -21 60 56 60 219 c 2
 60 359 l 2
 60 527 176 619 320 619 c 0
 379 619 433 604 476 575 c 1
 471 631 454 675 397 737 c 1
 319 659 l 1
 270 709 l 1
 348 787 l 1
 274 861 l 1
EndSplineSet
EndChar

StartChar: divide
Encoding: 247 247 453
Width: 560
VWidth: 0
Flags: W
HStem: 80 120<230.02 329.98> 285 70<80 480> 440 120<230.02 329.98>
VStem: 220 120<90.0195 189.98 450.02 549.98>
CounterMasks: 1 e0
LayerCount: 3
Fore
SplineSet
80 355 m 1
 480 355 l 1
 480 285 l 1
 80 285 l 1
 80 355 l 1
340 140 m 4
 340 106 314 80 280 80 c 4
 246 80 220 106 220 140 c 4
 220 174 246 200 280 200 c 4
 314 200 340 174 340 140 c 4
340 500 m 0
 340 466 314 440 280 440 c 0
 246 440 220 466 220 500 c 0
 220 534 246 560 280 560 c 0
 314 560 340 534 340 500 c 0
EndSplineSet
Validated: 1
EndChar

StartChar: yacute
Encoding: 253 253 307
Width: 660
VWidth: 0
HStem: -290 90<100 202.938> 580 20<40 157.5 502.5 620> 690 160
VStem: 210 300
LayerCount: 6
Fore
Refer: 311 769 N 1 0 0 1 690 -200 2
Refer: 149 121 N 1 0 0 1 0 0 3
Layer: 2
Refer: 311 769 N 1 0 0 1 690 -200 2
Refer: 149 121 N 1 0 0 1 0 0 3
Layer: 3
Refer: 311 769 N 1 0 0 1 690 -200 2
Refer: 149 121 N 1 0 0 1 0 0 3
Layer: 4
SplineSet
722.799 860 m 1
 532.799 860 l 1
 324.538 680 l 1
 434.538 680 l 1
 722.799 860 l 1
607.534 600 m 1
 777.534 600 l 1
 410 0 l 1
 301.74 -180 l 1
 253.436 -252 194.358 -290 8.3584 -290 c 1
 33.8652 -170 l 1
 115.865 -170 137.141 -164 174.493 -120 c 1
 250 0 l 1
 137.534 600 l 1
 307.534 600 l 1
 366.348 171 l 1
 607.534 600 l 1
EndSplineSet
Layer: 5
SplineSet
690.673 850 m 1
 560.673 850 l 1
 356.664 690 l 1
 421.664 690 l 1
 690.673 850 l 1
637.534 600 m 1
 747.534 600 l 1
 380 0 l 1
 271.74 -180 l 1
 219.885 -264 176.358 -290 38.3584 -290 c 1
 57.4883 -200 l 1
 138.488 -200 157.039 -188 188.116 -150 c 1
 280 0 l 1
 167.534 600 l 1
 277.534 600 l 1
 355.507 120 l 1
 637.534 600 l 1
EndSplineSet
EndChar

StartChar: thorn
Encoding: 254 254 454
Width: 680
VWidth: 0
Flags: W
HStem: -20 90<246.636 442.578> 535 85<251.771 435.543> 879 20G<80 180>
VStem: 80 100<-270 54 119.667 468.432 542 899> 510 100<138.315 455.417>
LayerCount: 3
Fore
SplineSet
180 152 m 1
 202 110 260 70 340 70 c 0
 432 70 510 111 510 240 c 2
 510 340 l 2
 510 489 425 535 340 535 c 0
 268 535 209 490 180 428 c 1
 180 152 l 1
180 54 m 1
 180 -270 l 1
 80 -270 l 1
 80 899 l 5
 180 899 l 5
 180 542 l 1
 226 588 288 620 360 620 c 0
 504 620 610 528 610 340 c 2
 610 240 l 2
 610 81 516 -20 360 -20 c 0
 286 -20 223 10 180 54 c 1
EndSplineSet
EndChar

StartChar: Cacute
Encoding: 262 262 379
Width: 810
VWidth: 0
HStem: -20 90<287.159 532.841> 735 85<289.846 530.154> 890 160
VStem: 90 100<161.213 640.616> 290 300 630 100<161.213 250 540 640.616>
LayerCount: 6
Fore
Refer: 311 769 N 1 0 0 1 770 0 2
Refer: 134 67 N 1 0 0 1 0 0 3
Layer: 2
Refer: 311 769 N 1 0 0 1 770 0 2
Refer: 134 67 N 1 0 0 1 0 0 3
Layer: 3
Refer: 311 769 N 1 0 0 1 770 0 2
Refer: 134 67 N 1 0 0 1 0 0 3
Layer: 4
SplineSet
845.31 1060 m 1
 655.31 1060 l 1
 447.05 880 l 1
 557.05 880 l 1
 845.31 1060 l 1
584.297 820 m 0
 791.297 820 909.215 702 872.655 530 c 1
 712.655 530 l 1
 739.225 655 660.79 700 558.79 700 c 0
 456.79 700 359.225 655 332.655 530 c 2
 275.265 260 l 2
 250.82 145 334.256 100 431.256 100 c 0
 528.256 100 630.82 145 655.265 260 c 1
 815.265 260 l 1
 778.705 88 612.749 -20 405.749 -20 c 0
 198.749 -20 78.7051 88 115.265 260 c 2
 172.655 530 l 2
 209.215 702 377.297 820 584.297 820 c 0
EndSplineSet
Layer: 5
SplineSet
813.185 1050 m 1
 683.185 1050 l 1
 479.176 890 l 1
 544.176 890 l 1
 813.185 1050 l 1
584.297 820 m 0
 771.297 820 881.34 712 844.78 540 c 1
 744.78 540 l 1
 771.35 665 698.229 735 566.229 735 c 0
 434.229 735 331.35 665 304.78 540 c 2
 243.139 250 l 2
 218.695 135 297.879 70 424.879 70 c 0
 551.879 70 658.695 135 683.139 250 c 1
 783.139 250 l 1
 746.579 78 582.749 -20 405.749 -20 c 0
 228.749 -20 106.579 78 143.139 250 c 2
 204.78 540 l 2
 241.34 712 397.297 820 584.297 820 c 0
EndSplineSet
EndChar

StartChar: Ccircumflex
Encoding: 264 264 400
Width: 810
VWidth: 0
HStem: -20 90<287.159 532.841> 735 85<289.846 530.154> 890 160
VStem: 90 100<161.213 640.616> 630 100<161.213 250 540 640.616>
LayerCount: 6
Fore
Refer: 313 770 N 1 0 0 1 810 0 2
Refer: 134 67 N 1 0 0 1 0 0 3
Layer: 2
Refer: 313 770 N 1 0 0 1 810 0 2
Refer: 134 67 N 1 0 0 1 0 0 3
Layer: 3
Refer: 313 770 N 1 0 0 1 810 0 2
Refer: 134 67 N 1 0 0 1 0 0 3
Layer: 4
SplineSet
507.05 880 m 1
 357.05 880 l 1
 575.31 1060 l 1
 595.31 1060 l 1
 675.31 1060 l 1
 695.31 1060 l 1
 837.05 880 l 1
 687.05 880 l 1
 623.619 1005 l 1
 507.05 880 l 1
584.297 820 m 0
 791.297 820 909.215 702 872.655 530 c 1
 712.655 530 l 1
 739.225 655 660.79 700 558.79 700 c 0
 456.79 700 359.225 655 332.655 530 c 2
 275.265 260 l 2
 250.82 145 334.256 100 431.256 100 c 0
 528.256 100 630.82 145 655.265 260 c 1
 815.265 260 l 1
 778.705 88 612.749 -20 405.749 -20 c 0
 198.749 -20 78.7051 88 115.265 260 c 2
 172.655 530 l 2
 209.215 702 377.297 820 584.297 820 c 0
EndSplineSet
Layer: 5
SplineSet
499.176 890 m 1
 389.176 890 l 1
 598.185 1050 l 1
 668.185 1050 l 1
 809.176 890 l 1
 699.176 890 l 1
 624.47 1009 l 1
 499.176 890 l 1
584.297 820 m 0
 771.297 820 881.34 712 844.78 540 c 1
 744.78 540 l 1
 771.35 665 698.229 735 566.229 735 c 0
 434.229 735 331.35 665 304.78 540 c 2
 243.139 250 l 2
 218.695 135 297.879 70 424.879 70 c 0
 551.879 70 658.695 135 683.139 250 c 1
 783.139 250 l 1
 746.579 78 582.749 -20 405.749 -20 c 0
 228.749 -20 106.579 78 143.139 250 c 2
 204.78 540 l 2
 241.34 712 397.297 820 584.297 820 c 0
EndSplineSet
EndChar

StartChar: Cdotaccent
Encoding: 266 266 402
Width: 810
VWidth: 0
HStem: -20 90<287.159 532.841> 735 85<289.846 530.154> 920 140<355.875 464.125>
VStem: 90 100<161.213 640.616> 340 140<935.875 1044.13> 630 100<161.213 250 540 640.616>
CounterMasks: 1 1c
LayerCount: 6
Fore
Refer: 318 775 N 1 0 0 1 820 0 2
Refer: 134 67 N 1 0 0 1 0 0 3
Layer: 2
Refer: 318 775 N 1 0 0 1 820 0 2
Refer: 134 67 N 1 0 0 1 0 0 3
Layer: 3
Refer: 318 775 N 1 0 0 1 820 0 2
Refer: 134 67 N 1 0 0 1 0 0 3
Layer: 4
SplineSet
706.18 970 m 0
 695.552 920 647.05 880 597.05 880 c 0
 547.05 880 515.552 920 526.18 970 c 0
 536.808 1020 585.31 1060 635.31 1060 c 0
 685.31 1060 716.808 1020 706.18 970 c 0
584.297 820 m 0
 791.297 820 909.215 702 872.655 530 c 1
 712.655 530 l 1
 739.225 655 660.79 700 558.79 700 c 0
 456.79 700 359.225 655 332.655 530 c 2
 275.265 260 l 2
 250.82 145 334.256 100 431.256 100 c 0
 528.256 100 630.82 145 655.265 260 c 1
 815.265 260 l 1
 778.705 88 612.749 -20 405.749 -20 c 0
 198.749 -20 78.7051 88 115.265 260 c 2
 172.655 530 l 2
 209.215 702 377.297 820 584.297 820 c 0
EndSplineSet
Layer: 5
SplineSet
690.431 990 m 0
 682.142 951 644.552 920 605.552 920 c 0
 566.552 920 542.142 951 550.431 990 c 0
 558.721 1029 596.31 1060 635.31 1060 c 0
 674.31 1060 698.721 1029 690.431 990 c 0
584.297 820 m 0
 771.297 820 881.34 712 844.78 540 c 1
 744.78 540 l 1
 771.35 665 698.229 735 566.229 735 c 0
 434.229 735 331.35 665 304.78 540 c 2
 243.139 250 l 2
 218.695 135 297.879 70 424.879 70 c 0
 551.879 70 658.695 135 683.139 250 c 1
 783.139 250 l 1
 746.579 78 582.749 -20 405.749 -20 c 0
 228.749 -20 106.579 78 143.139 250 c 2
 204.78 540 l 2
 241.34 712 397.297 820 584.297 820 c 0
EndSplineSet
EndChar

StartChar: cdotaccent
Encoding: 267 267 403
Width: 640
VWidth: 0
HStem: -20 90<228.867 440.406> 535 85<234.493 433.978> 720 140<280.875 389.125>
VStem: 80 100<115.662 481.582> 265 140<735.875 844.125> 480 100<108.975 190 410 487.02>
LayerCount: 6
Fore
Refer: 318 775 N 1 0 0 1 745 -200 2
Refer: 145 99 N 1 0 0 1 0 0 3
Layer: 2
Refer: 318 775 N 1 0 0 1 745 -200 2
Refer: 145 99 N 1 0 0 1 0 0 3
Layer: 3
Refer: 318 775 N 1 0 0 1 745 -200 2
Refer: 145 99 N 1 0 0 1 0 0 3
Layer: 4
SplineSet
588.669 770 m 0
 578.041 720 529.538 680 479.538 680 c 0
 429.538 680 398.041 720 408.669 770 c 0
 419.297 820 467.799 860 517.799 860 c 0
 567.799 860 599.297 820 588.669 770 c 0
466.785 620 m 0
 622.785 620 722.229 528 695.022 400 c 1
 535.022 400 l 1
 548.626 464 507.278 500 441.278 500 c 0
 375.278 500 308.201 462 290.771 380 c 2
 252.512 200 l 2
 236.995 127 290.256 100 356.256 100 c 0
 422.256 100 477.845 131 492.512 200 c 1
 652.512 200 l 1
 623.179 62 484.749 -20 330.749 -20 c 0
 176.749 -20 61.0527 52 92.5117 200 c 2
 130.771 380 l 2
 162.229 528 310.785 620 466.785 620 c 0
EndSplineSet
Layer: 5
SplineSet
572.92 790 m 0
 564.63 751 527.041 720 488.041 720 c 0
 449.041 720 424.63 751 432.92 790 c 0
 441.209 829 478.799 860 517.799 860 c 0
 556.799 860 581.209 829 572.92 790 c 0
262.897 390 m 2
 220.386 190 l 2
 202.531 106 259.879 70 349.879 70 c 0
 439.879 70 500.405 96 520.386 190 c 1
 620.386 190 l 1
 591.053 52 474.749 -20 330.749 -20 c 0
 186.749 -20 88.9277 42 120.386 190 c 2
 162.897 390 l 2
 194.355 538 322.785 620 466.785 620 c 0
 610.785 620 694.355 538 667.148 410 c 1
 567.148 410 l 1
 585.003 494 538.718 535 448.718 535 c 0
 358.718 535 285.003 494 262.897 390 c 2
EndSplineSet
EndChar

StartChar: dcroat
Encoding: 273 273 659
Width: 720
VWidth: 0
Flags: HW
HStem: -20 90<247.422 434.852> 0 21<510 610> 535 85<254.457 440.462> 740 60<320 690> 880 20<510 610>
VStem: 80 100<138.315 455.417> 510 100<0 74 125.81 474.083 542 900>
LayerCount: 6
Fore
SplineSet
340 800 m 5x3e
 680 800 l 1
 680 750 l 1
 340 750 l 5
 340 800 l 5x3e
EndSplineSet
Refer: 135 100 N 1 0 0 1 0 0 2
Layer: 2
SplineSet
260 800 m 5x3e
 720 800 l 5
 720 710 l 5
 260 710 l 5
 260 800 l 5x3e
EndSplineSet
Refer: 135 100 N 1 0 0 1 0 0 2
Layer: 3
SplineSet
320 800 m 1x3e
 690 800 l 5
 690 740 l 5
 320 740 l 1
 320 800 l 1x3e
EndSplineSet
Refer: 135 100 N 1 0 0 1 0 0 2
Layer: 4
SplineSet
340 800 m 5x3e
 680 800 l 1
 680 750 l 1
 340 750 l 5
 340 800 l 5x3e
EndSplineSet
Refer: 135 100 N 1 0 0 1 0 0 2
Layer: 5
SplineSet
320 800 m 1x3e
 690 800 l 5
 690 740 l 5
 320 740 l 1
 320 800 l 1x3e
EndSplineSet
Refer: 135 100 N 1 0 0 1 0 0 2
EndChar

StartChar: Ebreve
Encoding: 276 276 396
Width: 670
VWidth: 0
HStem: 0 90<200 600> 355 90<200 560> 710 90<200 590> 870 60<265.389 434.611>
VStem: 100 100<90 355 445 710> 150 80<965.687 1030> 470 80<965.687 1030>
LayerCount: 6
Fore
Refer: 317 774 N 1 0 0 1 750 0 2
Refer: 116 69 N 1 0 0 1 0 0 3
Layer: 2
Refer: 317 774 N 1 0 0 1 750 0 2
Refer: 116 69 N 1 0 0 1 0 0 3
Layer: 3
Refer: 317 774 N 1 0 0 1 750 0 2
Refer: 116 69 N 1 0 0 1 0 0 3
Layer: 4
SplineSet
341.059 1040 m 1
 451.059 1040 l 1
 438.306 980 482.803 940 549.803 940 c 0
 616.803 940 678.306 980 691.059 1040 c 1
 801.059 1040 l 1
 782.991 955 681.799 860 532.799 860 c 0
 383.799 860 322.991 955 341.059 1040 c 1
255.507 120 m 1
 655.507 120 l 1
 630 0 l 1
 230 0 l 1
 70 0 l 1
 95.5068 120 l 1
 142.27 340 l 1
 167.776 460 l 1
 214.538 680 l 1
 240.045 800 l 1
 400.045 800 l 1
 790.045 800 l 1
 764.538 680 l 1
 374.538 680 l 1
 327.776 460 l 1
 687.776 460 l 1
 662.27 340 l 1
 302.27 340 l 1
 255.507 120 l 1
EndSplineSet
Layer: 5
SplineSet
368.934 1030 m 1
 448.934 1030 l 1
 439.581 986 457.678 930 547.678 930 c 0
 637.678 930 679.581 986 688.934 1030 c 1
 768.934 1030 l 1
 754.267 961 673.924 870 534.924 870 c 0
 395.924 870 354.267 961 368.934 1030 c 1
219.13 90 m 1
 619.13 90 l 1
 600 0 l 1
 200 0 l 1
 100 0 l 1
 119.13 90 l 1
 175.458 355 l 1
 194.588 445 l 1
 250.915 710 l 1
 270.045 800 l 1
 370.045 800 l 1
 760.045 800 l 1
 740.915 710 l 1
 350.915 710 l 1
 294.588 445 l 1
 654.588 445 l 1
 635.458 355 l 1
 275.458 355 l 1
 219.13 90 l 1
EndSplineSet
EndChar

StartChar: ebreve
Encoding: 277 277 397
Width: 680
VWidth: 0
HStem: -20 90<237.817 442.183> 290 70<180 500> 535 85<245.106 434.894> 670 60<255.389 424.611>
VStem: 80 100<123.204 290 360 465.395> 140 80<765.687 830> 460 80<765.687 830> 500 100<123.204 200 360 465.395>
LayerCount: 6
Fore
Refer: 317 774 N 1 0 0 1 740 -200 2
Refer: 144 101 N 1 0 0 1 0 0 3
Layer: 2
Refer: 317 774 N 1 0 0 1 740 -200 2
Refer: 144 101 N 1 0 0 1 0 0 3
Layer: 3
Refer: 317 774 N 1 0 0 1 740 -200 2
Refer: 144 101 N 1 0 0 1 0 0 3
Layer: 4
SplineSet
288.548 840 m 1
 398.548 840 l 1
 385.794 780 430.292 740 497.292 740 c 0
 564.292 740 625.794 780 638.548 840 c 1
 748.548 840 l 1
 730.48 755 629.287 660 480.287 660 c 0
 331.287 660 270.48 755 288.548 840 c 1
706.521 360 m 2
 687.391 270 l 1
 267.391 270 l 1
 252.512 200 l 2
 241.671 149 283.256 100 361.256 100 c 0
 439.256 100 501.671 149 512.512 200 c 1
 672.512 200 l 1
 648.918 89 514.749 -20 335.749 -20 c 0
 156.749 -20 68.918 89 92.5117 200 c 2
 126.521 360 l 2
 152.452 482 281.785 620 471.785 620 c 0
 661.785 620 732.452 482 706.521 360 c 2
546.521 360 m 1
 564.162 443 535.278 500 446.278 500 c 0
 357.278 500 304.162 443 286.521 360 c 1
 546.521 360 l 1
EndSplineSet
Layer: 5
SplineSet
316.422 830 m 1
 396.422 830 l 1
 387.069 786 405.166 730 495.166 730 c 0
 585.166 730 627.069 786 636.422 830 c 1
 716.422 830 l 1
 701.756 761 621.413 670 482.413 670 c 0
 343.413 670 301.756 761 316.422 830 c 1
676.521 360 m 2
 661.642 290 l 1
 241.642 290 l 1
 222.512 200 l 2
 201.468 101 282.879 70 354.879 70 c 0
 426.879 70 521.468 101 542.512 200 c 1
 642.512 200 l 1
 609.99 47 463.749 -20 335.749 -20 c 0
 207.749 -20 89.9902 47 122.512 200 c 2
 156.521 360 l 2
 192.229 528 327.785 620 471.785 620 c 0
 615.785 620 712.229 528 676.521 360 c 2
576.521 360 m 1
 603.94 489 538.718 535 453.718 535 c 0
 368.718 535 283.94 489 256.521 360 c 1
 576.521 360 l 1
EndSplineSet
EndChar

StartChar: Ecaron
Encoding: 282 282 394
Width: 670
VWidth: 0
HStem: 0 90<200 600> 355 90<200 560> 710 90<200 590> 890 160
VStem: 100 100<90 355 445 710>
LayerCount: 6
Fore
Refer: 323 780 N 1 0 0 1 750 0 2
Refer: 116 69 N 1 0 0 1 0 0 3
Layer: 2
Refer: 323 780 N 1 0 0 1 750 0 2
Refer: 116 69 N 1 0 0 1 0 0 3
Layer: 3
Refer: 323 780 N 1 0 0 1 750 0 2
Refer: 116 69 N 1 0 0 1 0 0 3
Layer: 4
SplineSet
485.31 1060 m 1
 335.31 1060 l 1
 477.05 880 l 1
 497.05 880 l 1
 577.05 880 l 1
 597.05 880 l 1
 815.31 1060 l 1
 665.31 1060 l 1
 548.74 935 l 1
 485.31 1060 l 1
255.507 120 m 1
 655.507 120 l 1
 630 0 l 1
 230 0 l 1
 70 0 l 1
 95.5068 120 l 1
 142.27 340 l 1
 167.776 460 l 1
 214.538 680 l 1
 240.045 800 l 1
 400.045 800 l 1
 790.045 800 l 1
 764.538 680 l 1
 374.538 680 l 1
 327.776 460 l 1
 687.776 460 l 1
 662.27 340 l 1
 302.27 340 l 1
 255.507 120 l 1
EndSplineSet
Layer: 5
SplineSet
473.185 1050 m 1
 363.185 1050 l 1
 504.176 890 l 1
 574.176 890 l 1
 783.185 1050 l 1
 673.185 1050 l 1
 547.891 931 l 1
 473.185 1050 l 1
219.13 90 m 1
 619.13 90 l 1
 600 0 l 1
 200 0 l 1
 100 0 l 1
 119.13 90 l 1
 175.458 355 l 1
 194.588 445 l 1
 250.915 710 l 1
 270.045 800 l 1
 370.045 800 l 1
 760.045 800 l 1
 740.915 710 l 1
 350.915 710 l 1
 294.588 445 l 1
 654.588 445 l 1
 635.458 355 l 1
 275.458 355 l 1
 219.13 90 l 1
EndSplineSet
EndChar

StartChar: Hbar
Encoding: 294 294 660
Width: 800
VWidth: 0
Flags: HW
HStem: 0 21<100 200 600 700> 355 90<200 600> 590 60<30 770> 780 20<100 200 600 700>
VStem: 100 100<0 355 445 800> 600 100<0 355 445 800>
LayerCount: 6
Fore
SplineSet
40 650 m 1
 760 650 l 1
 760 600 l 5
 40 600 l 5
 40 650 l 1
EndSplineSet
Refer: 110 72 N 1 0 0 1 0 0 2
Layer: 2
SplineSet
0 650 m 5
 800 650 l 5
 800 570 l 5
 0 570 l 5
 0 650 l 5
EndSplineSet
Refer: 110 72 N 1 0 0 1 0 0 2
Layer: 3
SplineSet
30 650 m 1
 770 650 l 5
 770 590 l 5
 30 590 l 1
 30 650 l 1
EndSplineSet
Refer: 110 72 N 1 0 0 1 0 0 2
Layer: 4
SplineSet
40 650 m 1
 760 650 l 1
 760 600 l 5
 40 600 l 5
 40 650 l 1
EndSplineSet
Refer: 110 72 N 1 0 0 1 0 0 2
Layer: 5
SplineSet
30 650 m 1
 770 650 l 5
 770 590 l 5
 30 590 l 1
 30 650 l 1
EndSplineSet
Refer: 110 72 N 1 0 0 1 0 0 2
EndChar

StartChar: hbar
Encoding: 295 295 661
Width: 710
VWidth: 0
Flags: W
HStem: 0 21<140 210 550 620> 560 60<315.434 501.579> 580 20<140 210> 600 21<140 210> 750 50<40 400> 880 20<140 210>
VStem: 140 70<0 461.676 490 600 600 900> 550 70<0 510.676>
LayerCount: 5
Fore
SplineSet
40 800 m 1x8f
 400 800 l 1
 400 750 l 5
 40 750 l 5
 40 800 l 1x8f
EndSplineSet
Refer: 143 104 N 1 0 0 1 30 0 2
Layer: 2
SplineSet
0 800 m 5x8f
 460 800 l 5
 460 710 l 5
 0 710 l 5
 0 800 l 5x8f
EndSplineSet
Refer: 143 104 S 1 0 0 1 30 0 2
Layer: 3
SplineSet
30 800 m 5x8f
 410 800 l 5
 410 740 l 5
 30 740 l 5
 30 800 l 5x8f
EndSplineSet
Refer: 143 104 N 1 0 0 1 30 0 2
Layer: 4
SplineSet
40 800 m 1x8f
 400 800 l 1
 400 750 l 5
 40 750 l 5
 40 800 l 1x8f
EndSplineSet
Refer: 143 104 N 1 0 0 1 30 0 2
EndChar

StartChar: Itilde
Encoding: 296 296 418
Width: 320
VWidth: 0
HStem: 0 21<110 210> 780 20<110 210> 890 60<190.498 292.407> 970 60<27.5934 129.502>
VStem: -40 45<907.2 941.34> 110 100<0 800> 315 45<978.66 1012.8>
CounterMasks: 1 0e
LayerCount: 6
Fore
Refer: 314 771 N 1 0 0 1 560 0 2
Refer: 108 73 N 1 0 0 1 0 0 3
Layer: 2
Refer: 314 771 N 1 0 0 1 560 0 2
Refer: 108 73 N 1 0 0 1 0 0 3
Layer: 3
Refer: 314 771 N 1 0 0 1 560 0 2
Refer: 108 73 N 1 0 0 1 0 0 3
Layer: 4
SplineSet
298.185 1050 m 0
 339.185 1050 372.847 1039 398.619 1005 c 0
 422.03 974 430.055 960 464.055 960 c 0
 504.055 960 534.194 1003 543.934 1030 c 1
 606.808 1020 l 1
 580.44 943 515.924 870 429.924 870 c 0
 388.924 870 355.263 881 329.489 915 c 0
 306.078 946 298.055 960 264.055 960 c 0
 224.055 960 193.914 917 184.176 890 c 1
 121.301 900 l 1
 147.668 977 212.185 1050 298.185 1050 c 0
250.045 800 m 1
 410.045 800 l 1
 240 0 l 1
 80 0 l 1
 250.045 800 l 1
EndSplineSet
Layer: 5
SplineSet
298.934 1030 m 0
 337.934 1030 359.17 1017 381.494 995 c 0
 399.668 977 409.929 950 441.929 950 c 0
 483.929 950 513.155 984 532.87 1025 c 1
 574.682 1010 l 1
 551.504 948 500.176 890 429.176 890 c 0
 390.176 890 368.938 903 346.615 925 c 0
 328.44 943 318.18 970 286.18 970 c 0
 244.18 970 214.953 936 195.238 895 c 1
 153.427 910 l 1
 176.604 972 227.934 1030 298.934 1030 c 0
280.045 800 m 1
 380.045 800 l 1
 210 0 l 1
 110 0 l 1
 280.045 800 l 1
EndSplineSet
EndChar

StartChar: Imacron
Encoding: 298 298 419
Width: 320
VWidth: 0
HStem: 0 21<110 210> 780 20<110 210> 900 60<-40 360>
VStem: 110 100<0 800>
LayerCount: 6
Fore
Refer: 315 772 N 1 0 0 1 570 0 2
Refer: 108 73 N 1 0 0 1 0 0 3
Layer: 2
Refer: 315 772 N 1 0 0 1 570 0 2
Refer: 108 73 N 1 0 0 1 0 0 3
Layer: 3
Refer: 315 772 N 1 0 0 1 570 0 2
Refer: 108 73 N 1 0 0 1 0 0 3
Layer: 4
SplineSet
136.18 970 m 1
 596.18 970 l 1
 577.05 880 l 1
 117.05 880 l 1
 136.18 970 l 1
250.045 800 m 1
 410.045 800 l 1
 240 0 l 1
 80 0 l 1
 250.045 800 l 1
EndSplineSet
Layer: 5
SplineSet
164.055 960 m 1
 564.055 960 l 1
 551.301 900 l 1
 151.301 900 l 1
 164.055 960 l 1
280.045 800 m 1
 380.045 800 l 1
 210 0 l 1
 110 0 l 1
 280.045 800 l 1
EndSplineSet
EndChar

StartChar: ibreve
Encoding: 301 301 422
Width: 320
VWidth: 0
HStem: 0 21<110 210> 580 20<110 210> 670 60<75.389 244.611>
VStem: -40 80<765.687 830> 110 100<0 600> 280 80<765.687 830>
CounterMasks: 1 1c
LayerCount: 6
Fore
Refer: 317 774 N 1 0 0 1 560 -200 2
Refer: 235 305 N 1 0 0 1 0 0 3
Layer: 2
Refer: 317 774 N 1 0 0 1 560 -200 2
Refer: 235 305 N 1 0 0 1 0 0 3
Layer: 3
Refer: 317 774 N 1 0 0 1 560 -200 2
Refer: 235 305 N 1 0 0 1 0 0 3
Layer: 4
SplineSet
108.548 840 m 1
 218.548 840 l 1
 205.794 780 250.292 740 317.292 740 c 0
 384.292 740 445.794 780 458.548 840 c 1
 568.548 840 l 1
 550.48 755 449.287 660 300.287 660 c 0
 151.287 660 90.4805 755 108.548 840 c 1
207.534 600 m 1
 367.534 600 l 1
 240 0 l 1
 80 0 l 1
 207.534 600 l 1
EndSplineSet
Layer: 5
SplineSet
136.422 830 m 1
 216.422 830 l 1
 207.069 786 225.166 730 315.166 730 c 0
 405.166 730 447.069 786 456.422 830 c 1
 536.422 830 l 1
 521.756 761 441.413 670 302.413 670 c 0
 163.413 670 121.756 761 136.422 830 c 1
237.534 600 m 1
 337.534 600 l 1
 210 0 l 1
 110 0 l 1
 237.534 600 l 1
EndSplineSet
EndChar

StartChar: dotlessi
Encoding: 305 305 260
Width: 300
VWidth: 0
Flags: W
HStem: 0 21G<100 200> 580 20G<100 200>
VStem: 100 100<0 600>
AnchorPoint: "diac_top" 150 700 basechar 0
AnchorPoint: "diac_bottom" 150 -84 basechar 0
LayerCount: 3
Fore
SplineSet
100 600 m 1
 200 600 l 1
 200 0 l 1
 100 0 l 1
 100 600 l 1
EndSplineSet
EndChar

StartChar: Jcircumflex
Encoding: 308 308 424
Width: 540
VWidth: 0
HStem: -20 85<164.007 316.018> 780 20<340 440> 890 160
VStem: 40 100<90.302 150> 340 100<90.302 800>
LayerCount: 6
Fore
Refer: 313 770 N 1 0 0 1 790 0 2
Refer: 119 74 N 1 0 0 1 0 0 3
Layer: 2
Refer: 313 770 N 1 0 0 1 790 0 2
Refer: 119 74 N 1 0 0 1 0 0 3
Layer: 3
Refer: 313 770 N 1 0 0 1 790 0 2
Refer: 119 74 N 1 0 0 1 0 0 3
Layer: 4
SplineSet
487.05 880 m 1
 337.05 880 l 1
 555.31 1060 l 1
 575.31 1060 l 1
 655.31 1060 l 1
 675.31 1060 l 1
 817.05 880 l 1
 667.05 880 l 1
 603.619 1005 l 1
 487.05 880 l 1
235.749 -20 m 0
 85.749 -20 25.5166 73 46.1348 170 c 1
 206.135 170 l 1
 196.357 124 216.256 100 261.256 100 c 0
 306.256 100 336.357 124 346.135 170 c 2
 480.045 800 l 1
 640.045 800 l 1
 506.135 170 l 2
 485.517 73 385.749 -20 235.749 -20 c 0
EndSplineSet
Layer: 5
SplineSet
479.176 890 m 1
 369.176 890 l 1
 578.185 1050 l 1
 648.185 1050 l 1
 789.176 890 l 1
 679.176 890 l 1
 604.47 1009 l 1
 479.176 890 l 1
235.749 -20 m 0
 111.749 -20 51.2656 53 71.8838 150 c 1
 171.884 150 l 1
 161.043 99 187.816 65 253.816 65 c 0
 318.816 65 361.043 99 371.884 150 c 2
 510.045 800 l 1
 610.045 800 l 1
 471.884 150 l 2
 451.266 53 360.749 -20 235.749 -20 c 0
EndSplineSet
EndChar

StartChar: kgreenlandic
Encoding: 312 312 658
Width: 620
VWidth: 0
Flags: HW
HStem: 0 21G<100 200 456.286 590> 280 90<200 275> 580 20G<100 200 425.652 550>
VStem: 100 100<0 280 370 600>
LayerCount: 6
Fore
SplineSet
460 600 m 1
 540 600 l 1
 335 335 l 1
 580 0 l 1
 490 0 l 1
 279 295 l 1
 180 295 l 1
 180 0 l 1
 110 0 l 1
 110 600 l 5
 180 600 l 5
 180 355 l 1
 275 355 l 1
 460 600 l 1
EndSplineSet
Layer: 2
SplineSet
410 600 m 1
 580 600 l 1
 385 335 l 1
 620 0 l 1
 430 0 l 1
 256 265 l 1
 230 265 l 1
 230 0 l 1
 70 0 l 1
 70 600 l 5
 230 600 l 5
 230 385 l 1
 256 385 l 1
 410 600 l 1
EndSplineSet
Layer: 3
SplineSet
440 600 m 1
 550 600 l 1
 355 335 l 1
 590 0 l 1
 470 0 l 1
 278 280 l 1
 200 280 l 1
 200 0 l 1
 100 0 l 1
 100 600 l 5
 200 600 l 5
 200 370 l 1
 275 370 l 1
 440 600 l 1
EndSplineSet
Layer: 4
SplineSet
460 600 m 1
 540 600 l 1
 335 335 l 1
 580 0 l 1
 490 0 l 1
 279 295 l 1
 180 295 l 1
 180 0 l 1
 110 0 l 1
 110 600 l 5
 180 600 l 5
 180 355 l 1
 275 355 l 1
 460 600 l 1
EndSplineSet
Layer: 5
SplineSet
430 600 m 1
 560 600 l 1
 365 335 l 1
 600 0 l 1
 460 0 l 1
 271 275 l 1
 210 275 l 1
 210 0 l 1
 90 0 l 1
 90 600 l 5
 210 600 l 5
 210 375 l 1
 269 375 l 1
 430 600 l 1
EndSplineSet
EndChar

StartChar: lcommaaccent
Encoding: 316 316 431
Width: 350
VWidth: 0
Flags: W
HStem: -370 290 -10 90<215.698 260> 880 20<110 210>
VStem: 110 100<86.5698 900> 165 80<-273.205 -220>
LayerCount: 6
Fore
Refer: 334 806 N 1 0 0 1 555 0 2
Refer: 138 108 N 1 0 0 1 0 0 3
Layer: 2
Refer: 334 806 N 1 0 0 1 555 0 2
Refer: 138 108 N 1 0 0 1 0 0 3
Layer: 3
Refer: 334 806 N 1 0 0 1 555 0 2
Refer: 138 108 N 1 0 0 1 0 0 3
Layer: 4
SplineSet
152.995 -80 m 0
 214.995 -80 247.58 -129 234.614 -190 c 0
 211.021 -301 122.74 -387 53.6006 -430 c 1
 -26.3994 -430 l 1
 35.5039 -374 76.1318 -324 86.1221 -277 c 1
 44.46 -266 22.5371 -228 32.7402 -180 c 0
 44.6426 -124 96.9951 -80 152.995 -80 c 0
287.874 -10 m 1
 141.874 -10 85.5264 26 107.633 130 c 2
 271.301 900 l 1
 431.301 900 l 1
 278.26 180 l 2
 266.782 126 276.381 110 313.381 110 c 1
 287.874 -10 l 1
EndSplineSet
Layer: 5
SplineSet
147.995 -80 m 0
 198.995 -80 219.706 -119 208.865 -170 c 0
 192.286 -248 129.494 -327 61.3545 -370 c 1
 6.35449 -370 l 1
 65.4941 -327 106.547 -275 118.237 -220 c 1
 79.2373 -220 54.8271 -189 63.1162 -150 c 0
 71.4062 -111 108.995 -80 147.995 -80 c 0
257.874 -10 m 1
 165.874 -10 115.526 26 131.256 100 c 2
 301.301 900 l 1
 401.301 900 l 1
 241.884 150 l 2
 230.405 96 240.005 80 277.005 80 c 1
 257.874 -10 l 1
EndSplineSet
EndChar

StartChar: lcaron
Encoding: 318 318 819
Width: 590
VWidth: 0
Flags: W
HStem: -10 90<215.698 260> 550 290 880 20<110 210>
VStem: 110 100<86.5698 900> 390 80<646.795 700>
LayerCount: 6
Fore
Refer: 645 789 S 1 0 0 1 420 -310 2
Refer: 138 108 N 1 0 0 1 0 0 2
Layer: 2
Refer: 645 789 S 1 0 0 1 460 -310 2
Refer: 138 108 N 1 0 0 1 0 0 2
Layer: 3
Refer: 645 789 S 1 0 0 1 420 -310 2
Refer: 138 108 N 1 0 0 1 0 0 2
Layer: 4
SplineSet
627.301 900 m 0
 689.301 900 720.886 851 707.92 790 c 0
 684.326 679 596.046 593 526.906 550 c 1
 446.906 550 l 1
 508.81 606 549.438 656 559.428 703 c 1
 517.766 714 495.843 752 506.045 800 c 0
 517.948 856 571.301 900 627.301 900 c 0
287.874 -10 m 1
 141.874 -10 85.5264 26 107.633 130 c 2
 271.301 900 l 1
 431.301 900 l 1
 278.26 180 l 2
 266.782 126 276.381 110 313.381 110 c 1
 287.874 -10 l 1
EndSplineSet
Layer: 5
SplineSet
568.548 840 m 0
 619.548 840 640.258 801 629.417 750 c 0
 612.838 672 550.046 593 481.906 550 c 1
 426.906 550 l 1
 486.046 593 527.099 645 538.79 700 c 1
 499.79 700 475.379 731 483.669 770 c 0
 491.958 809 529.548 840 568.548 840 c 0
257.874 -10 m 1
 165.874 -10 115.526 26 131.256 100 c 2
 301.301 900 l 1
 401.301 900 l 1
 241.884 150 l 2
 230.405 96 240.005 80 277.005 80 c 1
 257.874 -10 l 1
EndSplineSet
EndChar

StartChar: Lslash
Encoding: 321 321 831
Width: 590
VWidth: 0
Flags: HW
HStem: 0 90<200 580> 780 20<100 200>
VStem: 100 100<90 800>
AnchorPoint: "diac_bottom" 328.744 -50 basechar 0
LayerCount: 6
Fore
SplineSet
10 280 m 1
 340 570 l 5
 340 510 l 5
 10 220 l 1
 10 280 l 1
EndSplineSet
Refer: 117 76 N 1 0 0 1 0 0 2
Layer: 2
SplineSet
-20 290 m 5
 370 580 l 5
 370 490 l 5
 -20 200 l 5
 -20 290 l 5
EndSplineSet
Refer: 117 76 N 1 0 0 1 0 0 2
Layer: 3
SplineSet
0 280 m 5
 350 570 l 5
 350 500 l 5
 0 210 l 5
 0 280 l 5
EndSplineSet
Refer: 117 76 N 1 0 0 1 0 0 2
Layer: 4
SplineSet
10 280 m 1
 340 570 l 5
 340 510 l 5
 10 220 l 1
 10 280 l 1
EndSplineSet
Refer: 117 76 N 1 0 0 1 0 0 2
Layer: 5
SplineSet
0 280 m 5
 350 570 l 5
 350 500 l 5
 0 210 l 5
 0 280 l 5
EndSplineSet
Refer: 117 76 N 1 0 0 1 0 0 2
EndChar

StartChar: lslash
Encoding: 322 322 832
Width: 350
VWidth: 0
Flags: W
HStem: -10 60<205.547 250> 880 20<130 200>
VStem: 10 330 130 70<54.2052 900>
AnchorPoint: "diac_bottom" 148.744 -50 basechar 0
AnchorPoint: "diac_top" 545.355 930 basechar 0
LayerCount: 5
Fore
SplineSet
10 380 m 1xe0
 340 670 l 1
 340 610 l 5
 10 320 l 5
 10 380 l 1xe0
EndSplineSet
Refer: 138 108 N 1 0 0 1 0 0 2
Layer: 2
SplineSet
-20 390 m 5xc0
 370 680 l 5
 370 590 l 5
 -20 300 l 5
 -20 390 l 5xc0
EndSplineSet
Refer: 138 108 N 1 0 0 1 0 0 2
Layer: 3
SplineSet
0 380 m 5xe0
 350 670 l 5
 350 600 l 5
 0 310 l 5
 0 380 l 5xe0
EndSplineSet
Refer: 138 108 N 1 0 0 1 0 0 2
Layer: 4
SplineSet
10 380 m 1xe0
 340 670 l 1
 340 610 l 5
 10 320 l 5
 10 380 l 1xe0
EndSplineSet
Refer: 138 108 N 1 0 0 1 0 0 2
EndChar

StartChar: Ncaron
Encoding: 327 327 436
Width: 800
VWidth: 0
HStem: 0 21<100 200 587.302 700> 780 20<100 212.698 600 700> 890 160
VStem: 100 100<0 630> 600 100<170 800>
LayerCount: 6
Fore
Refer: 323 780 N 1 0 0 1 810 0 2
Refer: 121 78 N 1 0 0 1 0 0 3
Layer: 2
Refer: 323 780 N 1 0 0 1 810 0 2
Refer: 121 78 N 1 0 0 1 0 0 3
Layer: 3
Refer: 323 780 N 1 0 0 1 810 0 2
Refer: 121 78 N 1 0 0 1 0 0 3
Layer: 4
SplineSet
545.31 1060 m 1
 395.31 1060 l 1
 537.05 880 l 1
 557.05 880 l 1
 637.05 880 l 1
 657.05 880 l 1
 875.31 1060 l 1
 725.31 1060 l 1
 608.74 935 l 1
 545.31 1060 l 1
230 0 m 1
 70 0 l 1
 240.045 800 l 1
 400.045 800 l 1
 621.014 240 l 1
 740.045 800 l 1
 900.045 800 l 1
 730 0 l 1
 570 0 l 1
 349.031 560 l 1
 230 0 l 1
EndSplineSet
Layer: 5
SplineSet
533.185 1050 m 1
 423.185 1050 l 1
 564.176 890 l 1
 634.176 890 l 1
 843.185 1050 l 1
 733.185 1050 l 1
 607.891 931 l 1
 533.185 1050 l 1
200 0 m 1
 100 0 l 1
 270.045 800 l 1
 370.045 800 l 1
 636.135 170 l 1
 770.045 800 l 1
 870.045 800 l 1
 700 0 l 1
 600 0 l 1
 333.91 630 l 1
 200 0 l 1
EndSplineSet
EndChar

StartChar: Eng
Encoding: 330 330 836
Width: 800
VWidth: 0
Flags: W
HStem: -290 60<490 581.497> -20 20<620 690> 0 21<110 180 607.246 690> 780 20<110 192.754 620 690>
VStem: 110 70<0 690> 620 70<-191.811 0 110 800>
LayerCount: 5
Fore
Refer: 852 801 S 1 0 0 1 790 0 2
Refer: 121 78 N 1 0 0 1 0 0 2
Layer: 2
SplineSet
730 -80 m 6xdc
 730 -212 645 -290 440 -290 c 5
 440 -170 l 5
 529 -170 570 -141 570 -80 c 6
 570 0 l 5
 730 0 l 5
 730 -80 l 6xdc
EndSplineSet
Refer: 121 78 N 1 0 0 1 0 0 2
Layer: 3
SplineSet
700 -100 m 6xdc
 700 -217 617 -290 470 -290 c 5
 470 -200 l 5
 531 -200 600 -178 600 -100 c 6
 600 0 l 5
 700 0 l 5
 700 -100 l 6xdc
EndSplineSet
Refer: 121 78 N 1 0 0 1 0 0 2
Layer: 4
Refer: 852 801 S 1 0 0 1 790 0 2
Refer: 121 78 N 1 0 0 1 0 0 2
EndChar

StartChar: Obreve
Encoding: 334 334 440
Width: 820
VWidth: 0
HStem: -20 90<294.413 525.587> 735 85<298.958 521.042> 870 60<325.389 494.611>
VStem: 90 100<170.439 624.08> 210 80<965.687 1030> 530 80<965.687 1030> 630 100<170.439 624.467>
AnchorPoint: "hook_above" 843.615 1020 basechar 0
LayerCount: 6
Fore
Refer: 317 774 N 1 0 0 1 810 0 2
Refer: 107 79 N 1 0 0 1 0 0 3
Layer: 2
Refer: 317 774 N 1 0 0 1 810 0 2
Refer: 107 79 N 1 0 0 1 0 0 3
Layer: 3
Refer: 317 774 N 1 0 0 1 810 0 2
Refer: 107 79 N 1 0 0 1 0 0 3
Layer: 4
SplineSet
401.059 1040 m 1
 511.059 1040 l 1
 498.306 980 542.803 940 609.803 940 c 0
 676.803 940 738.306 980 751.059 1040 c 1
 861.059 1040 l 1
 842.991 955 741.799 860 592.799 860 c 0
 443.799 860 382.991 955 401.059 1040 c 1
708.404 510 m 2
 733.698 629 675.79 700 558.79 700 c 0
 441.79 700 353.698 629 328.404 510 c 2
 279.516 280 l 2
 256.135 170 314.256 100 431.256 100 c 0
 548.256 100 636.135 170 659.516 280 c 2
 708.404 510 l 2
868.404 510 m 2
 819.516 280 l 2
 780.83 98 612.749 -20 405.749 -20 c 0
 198.749 -20 80.8301 98 119.516 280 c 2
 168.404 510 l 2
 205.813 686 377.297 820 584.297 820 c 0
 791.297 820 906.026 687 868.404 510 c 2
EndSplineSet
Layer: 5
SplineSet
428.934 1030 m 1
 508.934 1030 l 1
 499.581 986 517.678 930 607.678 930 c 0
 697.678 930 739.581 986 748.934 1030 c 1
 828.934 1030 l 1
 814.267 961 733.924 870 594.924 870 c 0
 455.924 870 414.267 961 428.934 1030 c 1
740.529 520 m 2
 767.949 649 693.229 735 566.229 735 c 0
 439.229 735 327.949 649 300.529 520 c 2
 247.391 270 l 2
 221.884 150 293.879 70 424.879 70 c 0
 555.879 70 661.884 150 687.391 270 c 2
 740.529 520 l 2
840.529 520 m 2
 787.391 270 l 2
 748.705 88 582.749 -20 405.749 -20 c 0
 228.749 -20 108.705 88 147.391 270 c 2
 200.529 520 l 2
 240.064 706 407.297 820 584.297 820 c 0
 761.297 820 880.277 707 840.529 520 c 2
EndSplineSet
EndChar

StartChar: oe
Encoding: 339 339 378
Width: 1060
VWidth: 0
Flags: W
HStem: -20 60<228.178 420.819 625.105 832.757> 290 50<560 900> 560 60<233.159 417.487 633.781 825.724>
VStem: 90 70<113.734 477.488> 490 70<112.311 290 340 479.971> 900 70<106.35 200 340 477.488>
AnchorPoint: "diac_top" 806.324 650 basechar 0
AnchorPoint: "diac_bottom" 508.744 -50 basechar 0
LayerCount: 5
Fore
SplineSet
970 360 m 2
 970 290 l 1
 560 290 l 1
 560 220 l 1
 560 200 l 2
 560 101 617 40 730 40 c 0
 843 40 900 101 900 200 c 1
 970 200 l 1
 970 47 858 -20 730 -20 c 0
 644 -20 565 10 523 77 c 1
 481 11 408 -20 325 -20 c 0
 195 -20 90 57 90 220 c 2
 90 360 l 2
 90 528 193 620 325 620 c 0
 411 620 484 581 525 509 c 1
 566 581 640 620 730 620 c 0
 869 620 970 528 970 360 c 2
900 360 m 2
 900 489 840 560 730 560 c 0
 620 560 560 489 560 360 c 2
 560 340 l 1
 900 340 l 1
 900 360 l 2
325 560 m 0
 221 560 160 489 160 360 c 2
 160 220 l 2
 160 111 216 40 325 40 c 0
 434 40 490 111 490 220 c 2
 490 360 l 2
 490 489 429 560 325 560 c 0
EndSplineSet
Layer: 2
SplineSet
730 500 m 0
 641 500 610 443 610 360 c 1
 850 360 l 1
 850 443 819 500 730 500 c 0
730 620 m 0
 920 620 1010 482 1010 360 c 2
 1010 270 l 1
 610 270 l 1
 610 230 l 1
 610 200 l 2
 610 149 652 100 730 100 c 0
 808 100 850 149 850 200 c 1
 1010 200 l 1
 1010 89 909 -20 730 -20 c 0
 645 -20 577 5 530 43 c 1
 482 2 414 -20 330 -20 c 0
 156 -20 50 77 50 230 c 2
 50 350 l 2
 50 508 156 620 330 620 c 0
 415 620 483 594 531 548 c 1
 577 591 643 620 730 620 c 0
330 500 m 0
 265 500 210 469 210 350 c 2
 210 230 l 2
 210 131 261 100 330 100 c 0
 399 100 450 131 450 230 c 2
 450 350 l 2
 450 469 395 500 330 500 c 0
EndSplineSet
Layer: 3
SplineSet
730 620 m 0
 874 620 980 528 980 360 c 2
 980 290 l 1
 580 290 l 1
 580 220 l 1
 580 200 l 2
 580 101 658 70 730 70 c 0
 802 70 880 101 880 200 c 1
 980 200 l 1
 980 47 858 -20 730 -20 c 0
 652 -20 576 5 529 59 c 1
 484 6 413 -20 330 -20 c 0
 186 -20 80 57 80 220 c 2
 80 360 l 2
 80 528 186 620 330 620 c 0
 414 620 485 589 530 529 c 1
 575 589 646 620 730 620 c 0
330 535 m 0
 245 535 180 489 180 360 c 2
 180 220 l 2
 180 111 245 70 330 70 c 0
 415 70 480 111 480 220 c 2
 480 360 l 2
 480 489 415 535 330 535 c 0
580 360 m 1
 880 360 l 1
 880 489 815 535 730 535 c 0
 645 535 580 489 580 360 c 1
EndSplineSet
Layer: 4
SplineSet
970 360 m 2
 970 290 l 1
 560 290 l 1
 560 220 l 1
 560 200 l 2
 560 101 617 40 730 40 c 0
 843 40 900 101 900 200 c 1
 970 200 l 1
 970 47 858 -20 730 -20 c 0
 644 -20 565 10 523 77 c 1
 481 11 408 -20 325 -20 c 0
 195 -20 90 57 90 220 c 2
 90 360 l 2
 90 528 193 620 325 620 c 0
 411 620 484 581 525 509 c 1
 566 581 640 620 730 620 c 0
 869 620 970 528 970 360 c 2
900 360 m 2
 900 489 840 560 730 560 c 0
 620 560 560 489 560 360 c 2
 560 340 l 1
 900 340 l 1
 900 360 l 2
325 560 m 0
 221 560 160 489 160 360 c 2
 160 220 l 2
 160 111 216 40 325 40 c 0
 434 40 490 111 490 220 c 2
 490 360 l 2
 490 489 429 560 325 560 c 0
EndSplineSet
EndChar

StartChar: Rcommaaccent
Encoding: 342 342 445
Width: 770
VWidth: 0
HStem: -350 290 0 21<100 200 608.125 740> 320 85<200 430> 715 85<200 518.348>
VStem: 100 100<0 320 405 715> 420 80<-253.205 -200> 580 100<466.92 652.94>
LayerCount: 6
Fore
Refer: 334 806 N 1 0 0 1 810 20 2
Refer: 125 82 N 1 0 0 1 0 0 3
Layer: 2
Refer: 334 806 N 1 0 0 1 805 20 2
Refer: 125 82 N 1 0 0 1 0 0 3
Layer: 3
Refer: 334 806 N 1 0 0 1 810 20 2
Refer: 125 82 N 1 0 0 1 0 0 3
Layer: 4
SplineSet
407.247 -60 m 0
 469.247 -60 501.831 -109 488.865 -170 c 0
 465.271 -281 376.992 -367 307.852 -410 c 1
 227.852 -410 l 1
 289.755 -354 330.383 -304 340.373 -257 c 1
 298.711 -246 276.788 -208 286.991 -160 c 0
 298.895 -104 351.247 -60 407.247 -60 c 0
610.045 800 m 2
 811.045 800 849.862 658 826.906 550 c 0
 810.326 472 753.921 376 648.931 329 c 1
 770 0 l 1
 590 0 l 1
 483.767 300 l 1
 293.767 300 l 1
 230 0 l 1
 70 0 l 1
 240.045 800 l 1
 610.045 800 l 2
534.538 680 m 2
 374.538 680 l 1
 319.273 420 l 1
 479.273 420 l 2
 602.273 420 651.814 479 666.906 550 c 0
 681.998 621 657.538 680 534.538 680 c 2
EndSplineSet
Layer: 5
SplineSet
407.247 -60 m 0
 458.247 -60 478.957 -99 468.116 -150 c 0
 451.537 -228 388.745 -307 320.605 -350 c 1
 265.605 -350 l 1
 324.745 -307 365.798 -255 377.488 -200 c 1
 338.488 -200 314.078 -169 322.367 -130 c 0
 330.657 -91 368.247 -60 407.247 -60 c 0
602.632 337 m 1
 740 0 l 1
 620 0 l 1
 498.019 320 l 1
 494.019 320 491.019 320 488.019 320 c 2
 268.019 320 l 1
 200 0 l 1
 100 0 l 1
 270.045 800 l 1
 590.045 800 l 2
 791.045 800 821.988 668 799.031 560 c 0
 780.965 475 722.921 376 602.632 337 c 1
571.978 715 m 2
 351.978 715 l 1
 286.085 405 l 1
 506.085 405 l 2
 629.085 405 683.94 489 699.031 560 c 0
 714.123 631 694.978 715 571.978 715 c 2
EndSplineSet
EndChar

StartChar: scaron
Encoding: 353 353 452
Width: 680
VWidth: 0
HStem: -20 90<226.121 453.879> 530 90<241.551 438.449> 690 160
VStem: 80 100<111.992 170> 100 100<387.596 491.015> 480 100<440 490.994> 500 100<111.481 225.338>
AnchorPoint: "diac_top" 714.1 880 basechar 0
LayerCount: 6
Fore
Refer: 323 780 N 1 0 0 1 740 -200 2
Refer: 153 115 N 1 0 0 1 0 0 3
Layer: 2
Refer: 323 780 N 1 0 0 1 740 -200 2
Refer: 153 115 N 1 0 0 1 0 0 3
Layer: 3
Refer: 323 780 N 1 0 0 1 740 -200 2
Refer: 153 115 N 1 0 0 1 0 0 3
Layer: 4
SplineSet
432.799 860 m 1
 282.799 860 l 1
 424.538 680 l 1
 444.538 680 l 1
 524.538 680 l 1
 544.538 680 l 1
 762.799 860 l 1
 612.799 860 l 1
 496.229 735 l 1
 432.799 860 l 1
89.3232 185 m 1
 249.323 185 l 1
 237.633 130 284.256 100 361.256 100 c 0
 438.256 100 497.633 130 509.323 185 c 0
 518.25 227 469.227 241 393.139 250 c 0
 287.689 262 129.941 282 160.337 425 c 0
 179.892 517 292.785 620 471.785 620 c 0
 650.785 620 719.892 517 700.337 425 c 1
 540.337 425 l 1
 547.563 459 524.278 500 446.278 500 c 0
 368.278 500 327.563 459 320.337 425 c 0
 313.535 393 346.559 379 418.646 370 c 0
 538.458 355 703.97 348 669.323 185 c 0
 647.005 80 529.749 -20 335.749 -20 c 0
 141.749 -20 67.0049 80 89.3232 185 c 1
EndSplineSet
Layer: 5
SplineSet
420.673 850 m 1
 310.673 850 l 1
 451.664 690 l 1
 521.664 690 l 1
 730.673 850 l 1
 620.673 850 l 1
 495.379 731 l 1
 420.673 850 l 1
116.135 170 m 1
 216.135 170 l 1
 203.381 110 257.879 70 354.879 70 c 0
 451.879 70 523.381 110 536.135 170 c 0
 551.438 242 473.478 261 397.391 270 c 0
 291.941 282 167.381 317 193.524 440 c 0
 210.954 522 312.785 620 471.785 620 c 0
 630.785 620 690.954 522 673.525 440 c 1
 573.525 440 l 1
 581.814 479 545.655 530 452.655 530 c 0
 359.655 530 301.814 479 293.525 440 c 0
 280.347 378 342.308 359 414.395 350 c 0
 534.206 335 666.53 313 636.135 170 c 0
 614.879 70 509.749 -20 335.749 -20 c 0
 161.749 -20 94.8789 70 116.135 170 c 1
EndSplineSet
EndChar

StartChar: Tbar
Encoding: 358 358 837
Width: 580
VWidth: 0
Flags: HW
HStem: 0 21<240 340> 410 60<80 500> 710 90<50 240 340 530>
VStem: 240 100<0 710>
LayerCount: 6
Fore
SplineSet
90 470 m 1
 490 470 l 1
 490 420 l 5
 90 420 l 5
 90 470 l 1
EndSplineSet
Refer: 120 84 N 1 0 0 1 0 0 2
Layer: 2
SplineSet
60 470 m 5
 520 470 l 5
 520 400 l 5
 60 400 l 5
 60 470 l 5
EndSplineSet
Refer: 120 84 N 1 0 0 1 0 0 2
Layer: 3
SplineSet
80 470 m 5
 500 470 l 5
 500 410 l 5
 80 410 l 5
 80 470 l 5
EndSplineSet
Refer: 120 84 N 1 0 0 1 0 0 2
Layer: 4
SplineSet
90 470 m 1
 490 470 l 1
 490 420 l 5
 90 420 l 5
 90 470 l 1
EndSplineSet
Refer: 120 84 N 1 0 0 1 0 0 2
Layer: 5
SplineSet
80 470 m 5
 500 470 l 5
 500 410 l 5
 80 410 l 5
 80 470 l 5
EndSplineSet
Refer: 120 84 N 1 0 0 1 0 0 2
EndChar
